<?xml version='1.0' encoding='utf-8'?>
<svg xmlns="http://www.w3.org/2000/svg" width="2005" height="685" viewBox="0 -70 2005 685"><defs><marker id="arrowIn" markerWidth="10" markerHeight="10" refX="9" refY="3" orient="auto" markerUnits="strokeWidth"><path d="M0,0 L0,6 L9,3 z" fill="#000" /></marker><marker id="arrowOut" markerWidth="10" markerHeight="10" refX="9" refY="3" orient="auto" markerUnits="strokeWidth"><path d="M0,0 L0,6 L9,3 z" fill="#000" /></marker></defs><rect x="0" y="-70" width="2005" height="685" fill="white" /><g transform="translate(620.0, 10.0) scale(2.375)"><rect x="10" y="10" width="300" height="140" rx="8" ry="8" fill="#EFF6FF" stroke="#2563EB" stroke-width="2.5" />
  
  <rect x="10" y="10" width="300" height="30" rx="8" ry="8" fill="#2563EB" />
  <rect x="10" y="28" width="300" height="12" fill="#2563EB" />
  
  <circle cx="160" cy="105" r="28" fill="none" stroke="#2563EB" stroke-width="2" />
  <circle cx="160" cy="105" r="12" fill="#2563EB" opacity="0.25" />
  <line x1="160" y1="73" x2="160" y2="137" stroke="#2563EB" stroke-width="2" />
  <line x1="128" y1="105" x2="192" y2="105" stroke="#2563EB" stroke-width="2" />
  <line x1="136" y1="81" x2="184" y2="129" stroke="#2563EB" stroke-width="2" />
  <line x1="184" y1="81" x2="136" y2="129" stroke="#2563EB" stroke-width="2" />
  
  <text x="160" y="32" text-anchor="middle" font-family="Arial, Helvetica, sans-serif" font-size="13" font-weight="600" fill="white">Gasturbine</text>
</g><rect x="590.0" y="-20.0" width="820.0" height="440" fill="none" stroke="#666" stroke-width="2" stroke-dasharray="5,5" rx="10" /><text x="1002.5" y="-40.0" text-anchor="middle" font-size="24" font-weight="bold" fill="#333">Gasturbine - Block Flow Diagram</text><rect x="55" y="175" width="200" height="50" fill="white" stroke="#2563eb" stroke-width="1" rx="5" /><text x="155" y="195" text-anchor="middle" font-size="14" font-weight="bold" fill="#2563eb">NatGas</text><text x="155" y="212" text-anchor="middle" font-size="12" fill="#555">3,333.33 kW</text><line x1="255" y1="200" x2="590.0" y2="200" stroke="#2563eb" stroke-width="2" marker-end="url(#arrowIn)" /><line x1="1410.0" y1="150" x2="1755" y2="150" stroke="#dc2626" stroke-width="2" marker-end="url(#arrowOut)" /><rect x="1760" y="125" width="200" height="50" fill="white" stroke="#dc2626" stroke-width="1" rx="5" /><text x="1860" y="145" text-anchor="middle" font-size="14" font-weight="bold" fill="#dc2626">Electricity</text><text x="1860" y="162" text-anchor="middle" font-size="12" fill="#555">929.25 kW</text><line x1="1410.0" y1="250" x2="1755" y2="250" stroke="#dc2626" stroke-width="2" marker-end="url(#arrowOut)" /><rect x="1760" y="225" width="200" height="50" fill="white" stroke="#dc2626" stroke-width="1" rx="5" /><text x="1860" y="245" text-anchor="middle" font-size="14" font-weight="bold" fill="#dc2626">CO2inFluegas</text><text x="1860" y="262" text-anchor="middle" font-size="12" fill="#555">660.00 kg/h</text><text x="516.25" y="460.0" text-anchor="middle" font-size="16" font-weight="bold" fill="#dc2626">Hot Streams</text><rect x="50" y="480.0" width="932.5" height="35" fill="#e5e7eb" stroke="#333" stroke-width="1" /><text x="166.5625" y="502.5" text-anchor="middle" font-size="14" font-weight="bold" fill="#333">Name</text><line x1="283.125" y1="480.0" x2="283.125" y2="515.0" stroke="#333" stroke-width="1" /><text x="370.546875" y="502.5" text-anchor="middle" font-size="14" font-weight="bold" fill="#333">T in [°C]</text><line x1="457.96875" y1="480.0" x2="457.96875" y2="515.0" stroke="#333" stroke-width="1" /><text x="545.390625" y="502.5" text-anchor="middle" font-size="14" font-weight="bold" fill="#333">T out [°C]</text><line x1="632.8125" y1="480.0" x2="632.8125" y2="515.0" stroke="#333" stroke-width="1" /><text x="720.234375" y="502.5" text-anchor="middle" font-size="14" font-weight="bold" fill="#333">H in [kW]</text><line x1="807.65625" y1="480.0" x2="807.65625" y2="515.0" stroke="#333" stroke-width="1" /><text x="895.078125" y="502.5" text-anchor="middle" font-size="14" font-weight="bold" fill="#333">H out [kW]</text><rect x="50" y="515.0" width="932.5" height="30" fill="#fee2e2" stroke="#333" stroke-width="1" /><text x="166.5625" y="535.0" text-anchor="middle" font-size="13" font-weight="normal" fill="#333">qwasteheat</text><line x1="283.125" y1="515.0" x2="283.125" y2="545.0" stroke="#333" stroke-width="1" /><text x="370.546875" y="535.0" text-anchor="middle" font-size="13" font-weight="normal" fill="#333">616.99</text><line x1="457.96875" y1="515.0" x2="457.96875" y2="545.0" stroke="#333" stroke-width="1" /><text x="545.390625" y="535.0" text-anchor="middle" font-size="13" font-weight="normal" fill="#333">423.00</text><line x1="632.8125" y1="515.0" x2="632.8125" y2="545.0" stroke="#333" stroke-width="1" /><text x="720.234375" y="535.0" text-anchor="middle" font-size="13" font-weight="normal" fill="#333">2,186.57</text><line x1="807.65625" y1="515.0" x2="807.65625" y2="545.0" stroke="#333" stroke-width="1" /><text x="895.078125" y="535.0" text-anchor="middle" font-size="13" font-weight="normal" fill="#333">0.00</text><text x="1488.75" y="460.0" text-anchor="middle" font-size="16" font-weight="bold" fill="#2563eb">Cold Streams</text><rect x="1022.5" y="480.0" width="932.5" height="35" fill="#e5e7eb" stroke="#333" stroke-width="1" /><text x="1139.0625" y="502.5" text-anchor="middle" font-size="14" font-weight="bold" fill="#333">Name</text><line x1="1255.625" y1="480.0" x2="1255.625" y2="515.0" stroke="#333" stroke-width="1" /><text x="1343.046875" y="502.5" text-anchor="middle" font-size="14" font-weight="bold" fill="#333">T in [°C]</text><line x1="1430.46875" y1="480.0" x2="1430.46875" y2="515.0" stroke="#333" stroke-width="1" /><text x="1517.890625" y="502.5" text-anchor="middle" font-size="14" font-weight="bold" fill="#333">T out [°C]</text><line x1="1605.3125" y1="480.0" x2="1605.3125" y2="515.0" stroke="#333" stroke-width="1" /><text x="1692.734375" y="502.5" text-anchor="middle" font-size="14" font-weight="bold" fill="#333">H in [kW]</text><line x1="1780.15625" y1="480.0" x2="1780.15625" y2="515.0" stroke="#333" stroke-width="1" /><text x="1867.578125" y="502.5" text-anchor="middle" font-size="14" font-weight="bold" fill="#333">H out [kW]</text><rect x="1022.5" y="515.0" width="932.5" height="30" fill="#dbeafe" stroke="#333" stroke-width="1" /><text x="1139.0625" y="535.0" text-anchor="middle" font-size="13" font-weight="normal" fill="#333">qrecovery</text><line x1="1255.625" y1="515.0" x2="1255.625" y2="545.0" stroke="#333" stroke-width="1" /><text x="1343.046875" y="535.0" text-anchor="middle" font-size="13" font-weight="normal" fill="#333">459.87</text><line x1="1430.46875" y1="515.0" x2="1430.46875" y2="545.0" stroke="#333" stroke-width="1" /><text x="1517.890625" y="535.0" text-anchor="middle" font-size="13" font-weight="normal" fill="#333">599.85</text><line x1="1605.3125" y1="515.0" x2="1605.3125" y2="545.0" stroke="#333" stroke-width="1" /><text x="1692.734375" y="535.0" text-anchor="middle" font-size="13" font-weight="normal" fill="#333">0.00</text><line x1="1780.15625" y1="515.0" x2="1780.15625" y2="545.0" stroke="#333" stroke-width="1" /><text x="1867.578125" y="535.0" text-anchor="middle" font-size="13" font-weight="normal" fill="#333">563.29</text></svg>