<?xml version='1.0' encoding='utf-8'?>
<svg xmlns="http://www.w3.org/2000/svg" width="2005" height="895" viewBox="0 -20 2005 895"><defs><marker id="arrowIn" markerWidth="10" markerHeight="10" refX="9" refY="3" orient="auto" markerUnits="strokeWidth"><path d="M0,0 L0,6 L9,3 z" fill="#000" /></marker><marker id="arrowOut" markerWidth="10" markerHeight="10" refX="9" refY="3" orient="auto" markerUnits="strokeWidth"><path d="M0,0 L0,6 L9,3 z" fill="#000" /></marker></defs><rect x="0" y="-20" width="2005" height="895" fill="white" /><g transform="translate(620.0, 60.0) scale(2.375)"><rect x="10" y="10" width="300" height="140" rx="8" ry="8" fill="#EFF6FF" stroke="#2563EB" stroke-width="2.5" />
  
  <rect x="10" y="10" width="300" height="30" rx="8" ry="8" fill="#2563EB" />
  <rect x="10" y="28" width="300" height="12" fill="#2563EB" />
  
  <circle cx="160" cy="105" r="28" fill="none" stroke="#2563EB" stroke-width="2" />
  <circle cx="160" cy="105" r="12" fill="#2563EB" opacity="0.25" />
  <line x1="160" y1="73" x2="160" y2="137" stroke="#2563EB" stroke-width="2" />
  <line x1="128" y1="105" x2="192" y2="105" stroke="#2563EB" stroke-width="2" />
  <line x1="136" y1="81" x2="184" y2="129" stroke="#2563EB" stroke-width="2" />
  <line x1="184" y1="81" x2="136" y2="129" stroke="#2563EB" stroke-width="2" />
  
  <text x="160" y="32" text-anchor="middle" font-family="Arial, Helvetica, sans-serif" font-size="13" font-weight="600" fill="white">rWGS</text>
</g><rect x="590.0" y="30.0" width="820.0" height="440" fill="none" stroke="#666" stroke-width="2" stroke-dasharray="5,5" rx="10" /><text x="1002.5" y="10.0" text-anchor="middle" font-size="24" font-weight="bold" fill="#333">rWGS - Block Flow Diagram</text><rect x="55" y="125" width="200" height="50" fill="white" stroke="#2563eb" stroke-width="1" rx="5" /><text x="155" y="145" text-anchor="middle" font-size="14" font-weight="bold" fill="#2563eb">Hydrogen</text><text x="155" y="162" text-anchor="middle" font-size="12" fill="#555">9,421.00 kg/h</text><line x1="255" y1="150" x2="590.0" y2="150" stroke="#2563eb" stroke-width="2" marker-end="url(#arrowIn)" /><rect x="55" y="225" width="200" height="50" fill="white" stroke="#2563eb" stroke-width="1" rx="5" /><text x="155" y="245" text-anchor="middle" font-size="14" font-weight="bold" fill="#2563eb">CO2</text><text x="155" y="262" text-anchor="middle" font-size="12" fill="#555">66,014.00 kg/h</text><line x1="255" y1="250" x2="590.0" y2="250" stroke="#2563eb" stroke-width="2" marker-end="url(#arrowIn)" /><rect x="55" y="325" width="200" height="50" fill="white" stroke="#2563eb" stroke-width="1" rx="5" /><text x="155" y="345" text-anchor="middle" font-size="14" font-weight="bold" fill="#2563eb">Electricity</text><text x="155" y="362" text-anchor="middle" font-size="12" fill="#555">12,074.30 kW</text><line x1="255" y1="350" x2="590.0" y2="350" stroke="#2563eb" stroke-width="2" marker-end="url(#arrowIn)" /><line x1="1410.0" y1="200" x2="1755" y2="200" stroke="#dc2626" stroke-width="2" marker-end="url(#arrowOut)" /><rect x="1760" y="175" width="200" height="50" fill="white" stroke="#dc2626" stroke-width="1" rx="5" /><text x="1860" y="195" text-anchor="middle" font-size="14" font-weight="bold" fill="#dc2626">Water</text><text x="1860" y="212" text-anchor="middle" font-size="12" fill="#555">29.36 m3/h</text><line x1="1410.0" y1="300" x2="1755" y2="300" stroke="#dc2626" stroke-width="2" marker-end="url(#arrowOut)" /><rect x="1760" y="275" width="200" height="50" fill="white" stroke="#dc2626" stroke-width="1" rx="5" /><text x="1860" y="295" text-anchor="middle" font-size="14" font-weight="bold" fill="#dc2626">Syngas_rWGS</text><text x="1860" y="312" text-anchor="middle" font-size="12" fill="#555">46,069.00 kg/h</text><text x="516.25" y="510.0" text-anchor="middle" font-size="16" font-weight="bold" fill="#dc2626">Hot Streams</text><rect x="50" y="530.0" width="932.5" height="35" fill="#e5e7eb" stroke="#333" stroke-width="1" /><text x="166.5625" y="552.5" text-anchor="middle" font-size="14" font-weight="bold" fill="#333">Name</text><line x1="283.125" y1="530.0" x2="283.125" y2="565.0" stroke="#333" stroke-width="1" /><text x="370.546875" y="552.5" text-anchor="middle" font-size="14" font-weight="bold" fill="#333">T in [°C]</text><line x1="457.96875" y1="530.0" x2="457.96875" y2="565.0" stroke="#333" stroke-width="1" /><text x="545.390625" y="552.5" text-anchor="middle" font-size="14" font-weight="bold" fill="#333">T out [°C]</text><line x1="632.8125" y1="530.0" x2="632.8125" y2="565.0" stroke="#333" stroke-width="1" /><text x="720.234375" y="552.5" text-anchor="middle" font-size="14" font-weight="bold" fill="#333">H in [kW]</text><line x1="807.65625" y1="530.0" x2="807.65625" y2="565.0" stroke="#333" stroke-width="1" /><text x="895.078125" y="552.5" text-anchor="middle" font-size="14" font-weight="bold" fill="#333">H out [kW]</text><rect x="50" y="565.0" width="932.5" height="30" fill="#fee2e2" stroke="#333" stroke-width="1" /><text x="166.5625" y="585.0" text-anchor="middle" font-size="13" font-weight="normal" fill="#333">q_rWGS_hot1</text><line x1="283.125" y1="565.0" x2="283.125" y2="595.0" stroke="#333" stroke-width="1" /><text x="370.546875" y="585.0" text-anchor="middle" font-size="13" font-weight="normal" fill="#333">165.40</text><line x1="457.96875" y1="565.0" x2="457.96875" y2="595.0" stroke="#333" stroke-width="1" /><text x="545.390625" y="585.0" text-anchor="middle" font-size="13" font-weight="normal" fill="#333">30.00</text><line x1="632.8125" y1="565.0" x2="632.8125" y2="595.0" stroke="#333" stroke-width="1" /><text x="720.234375" y="585.0" text-anchor="middle" font-size="13" font-weight="normal" fill="#333">5,029.00</text><line x1="807.65625" y1="565.0" x2="807.65625" y2="595.0" stroke="#333" stroke-width="1" /><text x="895.078125" y="585.0" text-anchor="middle" font-size="13" font-weight="normal" fill="#333">0.00</text><rect x="50" y="595.0" width="932.5" height="30" fill="#fee2e2" stroke="#333" stroke-width="1" /><text x="166.5625" y="615.0" text-anchor="middle" font-size="13" font-weight="normal" fill="#333">q_rWGS_hot2</text><line x1="283.125" y1="595.0" x2="283.125" y2="625.0" stroke="#333" stroke-width="1" /><text x="370.546875" y="615.0" text-anchor="middle" font-size="13" font-weight="normal" fill="#333">107.70</text><line x1="457.96875" y1="595.0" x2="457.96875" y2="625.0" stroke="#333" stroke-width="1" /><text x="545.390625" y="615.0" text-anchor="middle" font-size="13" font-weight="normal" fill="#333">30.00</text><line x1="632.8125" y1="595.0" x2="632.8125" y2="625.0" stroke="#333" stroke-width="1" /><text x="720.234375" y="615.0" text-anchor="middle" font-size="13" font-weight="normal" fill="#333">2,880.00</text><line x1="807.65625" y1="595.0" x2="807.65625" y2="625.0" stroke="#333" stroke-width="1" /><text x="895.078125" y="615.0" text-anchor="middle" font-size="13" font-weight="normal" fill="#333">0.00</text><rect x="50" y="625.0" width="932.5" height="30" fill="#fee2e2" stroke="#333" stroke-width="1" /><text x="166.5625" y="645.0" text-anchor="middle" font-size="13" font-weight="normal" fill="#333">q_rWGS_hot3</text><line x1="283.125" y1="625.0" x2="283.125" y2="655.0" stroke="#333" stroke-width="1" /><text x="370.546875" y="645.0" text-anchor="middle" font-size="13" font-weight="normal" fill="#333">115.70</text><line x1="457.96875" y1="625.0" x2="457.96875" y2="655.0" stroke="#333" stroke-width="1" /><text x="545.390625" y="645.0" text-anchor="middle" font-size="13" font-weight="normal" fill="#333">30.00</text><line x1="632.8125" y1="625.0" x2="632.8125" y2="655.0" stroke="#333" stroke-width="1" /><text x="720.234375" y="645.0" text-anchor="middle" font-size="13" font-weight="normal" fill="#333">1,435.00</text><line x1="807.65625" y1="625.0" x2="807.65625" y2="655.0" stroke="#333" stroke-width="1" /><text x="895.078125" y="645.0" text-anchor="middle" font-size="13" font-weight="normal" fill="#333">0.00</text><rect x="50" y="655.0" width="932.5" height="30" fill="#fee2e2" stroke="#333" stroke-width="1" /><text x="166.5625" y="675.0" text-anchor="middle" font-size="13" font-weight="normal" fill="#333">q_rWGS_hot4</text><line x1="283.125" y1="655.0" x2="283.125" y2="685.0" stroke="#333" stroke-width="1" /><text x="370.546875" y="675.0" text-anchor="middle" font-size="13" font-weight="normal" fill="#333">92.72</text><line x1="457.96875" y1="655.0" x2="457.96875" y2="685.0" stroke="#333" stroke-width="1" /><text x="545.390625" y="675.0" text-anchor="middle" font-size="13" font-weight="normal" fill="#333">30.00</text><line x1="632.8125" y1="655.0" x2="632.8125" y2="685.0" stroke="#333" stroke-width="1" /><text x="720.234375" y="675.0" text-anchor="middle" font-size="13" font-weight="normal" fill="#333">1,053.00</text><line x1="807.65625" y1="655.0" x2="807.65625" y2="685.0" stroke="#333" stroke-width="1" /><text x="895.078125" y="675.0" text-anchor="middle" font-size="13" font-weight="normal" fill="#333">0.00</text><rect x="50" y="685.0" width="932.5" height="30" fill="#fee2e2" stroke="#333" stroke-width="1" /><text x="166.5625" y="705.0" text-anchor="middle" font-size="13" font-weight="normal" fill="#333">q_rWGS_hot5</text><line x1="283.125" y1="685.0" x2="283.125" y2="715.0" stroke="#333" stroke-width="1" /><text x="370.546875" y="705.0" text-anchor="middle" font-size="13" font-weight="normal" fill="#333">750.00</text><line x1="457.96875" y1="685.0" x2="457.96875" y2="715.0" stroke="#333" stroke-width="1" /><text x="545.390625" y="705.0" text-anchor="middle" font-size="13" font-weight="normal" fill="#333">99.34</text><line x1="632.8125" y1="685.0" x2="632.8125" y2="715.0" stroke="#333" stroke-width="1" /><text x="720.234375" y="705.0" text-anchor="middle" font-size="13" font-weight="normal" fill="#333">48,387.00</text><line x1="807.65625" y1="685.0" x2="807.65625" y2="715.0" stroke="#333" stroke-width="1" /><text x="895.078125" y="705.0" text-anchor="middle" font-size="13" font-weight="normal" fill="#333">0.00</text><rect x="50" y="715.0" width="932.5" height="30" fill="#fee2e2" stroke="#333" stroke-width="1" /><text x="166.5625" y="735.0" text-anchor="middle" font-size="13" font-weight="normal" fill="#333">q_rWGS_hot6</text><line x1="283.125" y1="715.0" x2="283.125" y2="745.0" stroke="#333" stroke-width="1" /><text x="370.546875" y="735.0" text-anchor="middle" font-size="13" font-weight="normal" fill="#333">99.34</text><line x1="457.96875" y1="715.0" x2="457.96875" y2="745.0" stroke="#333" stroke-width="1" /><text x="545.390625" y="735.0" text-anchor="middle" font-size="13" font-weight="normal" fill="#333">30.00</text><line x1="632.8125" y1="715.0" x2="632.8125" y2="745.0" stroke="#333" stroke-width="1" /><text x="720.234375" y="735.0" text-anchor="middle" font-size="13" font-weight="normal" fill="#333">20,310.00</text><line x1="807.65625" y1="715.0" x2="807.65625" y2="745.0" stroke="#333" stroke-width="1" /><text x="895.078125" y="735.0" text-anchor="middle" font-size="13" font-weight="normal" fill="#333">0.00</text><rect x="50" y="745.0" width="932.5" height="30" fill="#fee2e2" stroke="#333" stroke-width="1" /><text x="166.5625" y="765.0" text-anchor="middle" font-size="13" font-weight="normal" fill="#333">q_rWGS_hot7</text><line x1="283.125" y1="745.0" x2="283.125" y2="775.0" stroke="#333" stroke-width="1" /><text x="370.546875" y="765.0" text-anchor="middle" font-size="13" font-weight="normal" fill="#333">91.53</text><line x1="457.96875" y1="745.0" x2="457.96875" y2="775.0" stroke="#333" stroke-width="1" /><text x="545.390625" y="765.0" text-anchor="middle" font-size="13" font-weight="normal" fill="#333">30.00</text><line x1="632.8125" y1="745.0" x2="632.8125" y2="775.0" stroke="#333" stroke-width="1" /><text x="720.234375" y="765.0" text-anchor="middle" font-size="13" font-weight="normal" fill="#333">746.90</text><line x1="807.65625" y1="745.0" x2="807.65625" y2="775.0" stroke="#333" stroke-width="1" /><text x="895.078125" y="765.0" text-anchor="middle" font-size="13" font-weight="normal" fill="#333">0.00</text><rect x="50" y="775.0" width="932.5" height="30" fill="#fee2e2" stroke="#333" stroke-width="1" /><text x="166.5625" y="795.0" text-anchor="middle" font-size="13" font-weight="normal" fill="#333">q_rWGS_hot8</text><line x1="283.125" y1="775.0" x2="283.125" y2="805.0" stroke="#333" stroke-width="1" /><text x="370.546875" y="795.0" text-anchor="middle" font-size="13" font-weight="normal" fill="#333">115.90</text><line x1="457.96875" y1="775.0" x2="457.96875" y2="805.0" stroke="#333" stroke-width="1" /><text x="545.390625" y="795.0" text-anchor="middle" font-size="13" font-weight="normal" fill="#333">30.00</text><line x1="632.8125" y1="775.0" x2="632.8125" y2="805.0" stroke="#333" stroke-width="1" /><text x="720.234375" y="795.0" text-anchor="middle" font-size="13" font-weight="normal" fill="#333">1,065.00</text><line x1="807.65625" y1="775.0" x2="807.65625" y2="805.0" stroke="#333" stroke-width="1" /><text x="895.078125" y="795.0" text-anchor="middle" font-size="13" font-weight="normal" fill="#333">0.00</text><text x="1488.75" y="510.0" text-anchor="middle" font-size="16" font-weight="bold" fill="#2563eb">Cold Streams</text><rect x="1022.5" y="530.0" width="932.5" height="35" fill="#e5e7eb" stroke="#333" stroke-width="1" /><text x="1139.0625" y="552.5" text-anchor="middle" font-size="14" font-weight="bold" fill="#333">Name</text><line x1="1255.625" y1="530.0" x2="1255.625" y2="565.0" stroke="#333" stroke-width="1" /><text x="1343.046875" y="552.5" text-anchor="middle" font-size="14" font-weight="bold" fill="#333">T in [°C]</text><line x1="1430.46875" y1="530.0" x2="1430.46875" y2="565.0" stroke="#333" stroke-width="1" /><text x="1517.890625" y="552.5" text-anchor="middle" font-size="14" font-weight="bold" fill="#333">T out [°C]</text><line x1="1605.3125" y1="530.0" x2="1605.3125" y2="565.0" stroke="#333" stroke-width="1" /><text x="1692.734375" y="552.5" text-anchor="middle" font-size="14" font-weight="bold" fill="#333">H in [kW]</text><line x1="1780.15625" y1="530.0" x2="1780.15625" y2="565.0" stroke="#333" stroke-width="1" /><text x="1867.578125" y="552.5" text-anchor="middle" font-size="14" font-weight="bold" fill="#333">H out [kW]</text><rect x="1022.5" y="565.0" width="932.5" height="30" fill="#dbeafe" stroke="#333" stroke-width="1" /><text x="1139.0625" y="585.0" text-anchor="middle" font-size="13" font-weight="normal" fill="#333">q_rWGS_cold1</text><line x1="1255.625" y1="565.0" x2="1255.625" y2="595.0" stroke="#333" stroke-width="1" /><text x="1343.046875" y="585.0" text-anchor="middle" font-size="13" font-weight="normal" fill="#333">28.87</text><line x1="1430.46875" y1="565.0" x2="1430.46875" y2="595.0" stroke="#333" stroke-width="1" /><text x="1517.890625" y="585.0" text-anchor="middle" font-size="13" font-weight="normal" fill="#333">700.00</text><line x1="1605.3125" y1="565.0" x2="1605.3125" y2="595.0" stroke="#333" stroke-width="1" /><text x="1692.734375" y="585.0" text-anchor="middle" font-size="13" font-weight="normal" fill="#333">0.00</text><line x1="1780.15625" y1="565.0" x2="1780.15625" y2="595.0" stroke="#333" stroke-width="1" /><text x="1867.578125" y="585.0" text-anchor="middle" font-size="13" font-weight="normal" fill="#333">48,387.00</text><rect x="1022.5" y="595.0" width="932.5" height="30" fill="#dbeafe" stroke="#333" stroke-width="1" /><text x="1139.0625" y="615.0" text-anchor="middle" font-size="13" font-weight="normal" fill="#333">q_rWGS_cold2</text><line x1="1255.625" y1="595.0" x2="1255.625" y2="625.0" stroke="#333" stroke-width="1" /><text x="1343.046875" y="615.0" text-anchor="middle" font-size="13" font-weight="normal" fill="#333">700.00</text><line x1="1430.46875" y1="595.0" x2="1430.46875" y2="625.0" stroke="#333" stroke-width="1" /><text x="1517.890625" y="615.0" text-anchor="middle" font-size="13" font-weight="normal" fill="#333">750.00</text><line x1="1605.3125" y1="595.0" x2="1605.3125" y2="625.0" stroke="#333" stroke-width="1" /><text x="1692.734375" y="615.0" text-anchor="middle" font-size="13" font-weight="normal" fill="#333">0.00</text><line x1="1780.15625" y1="595.0" x2="1780.15625" y2="625.0" stroke="#333" stroke-width="1" /><text x="1867.578125" y="615.0" text-anchor="middle" font-size="13" font-weight="normal" fill="#333">7,606.00</text></svg>