<?xml version='1.0' encoding='utf-8'?>
<svg xmlns="http://www.w3.org/2000/svg" width="2005" height="1075" viewBox="0 55 2005 1075"><defs><marker id="arrowIn" markerWidth="10" markerHeight="10" refX="9" refY="3" orient="auto" markerUnits="strokeWidth"><path d="M0,0 L0,6 L9,3 z" fill="#000" /></marker><marker id="arrowOut" markerWidth="10" markerHeight="10" refX="9" refY="3" orient="auto" markerUnits="strokeWidth"><path d="M0,0 L0,6 L9,3 z" fill="#000" /></marker></defs><rect x="0" y="55" width="2005" height="1075" fill="white" /><g transform="translate(560.0, 180.0) scale(2.75)"><rect x="10" y="10" width="300" height="140" rx="8" ry="8" fill="#EFF6FF" stroke="#2563EB" stroke-width="2.5" />
  
  <rect x="10" y="10" width="300" height="30" rx="8" ry="8" fill="#2563EB" />
  <rect x="10" y="28" width="300" height="12" fill="#2563EB" />
  
  <circle cx="160" cy="105" r="28" fill="none" stroke="#2563EB" stroke-width="2" />
  <circle cx="160" cy="105" r="12" fill="#2563EB" opacity="0.25" />
  <line x1="160" y1="73" x2="160" y2="137" stroke="#2563EB" stroke-width="2" />
  <line x1="128" y1="105" x2="192" y2="105" stroke="#2563EB" stroke-width="2" />
  <line x1="136" y1="81" x2="184" y2="129" stroke="#2563EB" stroke-width="2" />
  <line x1="184" y1="81" x2="136" y2="129" stroke="#2563EB" stroke-width="2" />
  
  <text x="160" y="32" text-anchor="middle" font-family="Arial, Helvetica, sans-serif" font-size="13" font-weight="600" fill="white">AElectrolyzer</text>
</g><rect x="530.0" y="105.0" width="940" height="590" fill="none" stroke="#666" stroke-width="2" stroke-dasharray="5,5" rx="10" /><text x="1002.5" y="85.0" text-anchor="middle" font-size="24" font-weight="bold" fill="#333">AElectrolyzer - Block Flow Diagram</text><rect x="55" y="125" width="200" height="50" fill="white" stroke="#2563eb" stroke-width="1" rx="5" /><text x="155" y="145" text-anchor="middle" font-size="14" font-weight="bold" fill="#2563eb">water</text><text x="155" y="162" text-anchor="middle" font-size="12" fill="#555">1.00 kg/h</text><line x1="255" y1="150" x2="530.0" y2="150" stroke="#2563eb" stroke-width="2" marker-end="url(#arrowIn)" /><rect x="55" y="225" width="200" height="50" fill="white" stroke="#2563eb" stroke-width="1" rx="5" /><text x="155" y="245" text-anchor="middle" font-size="14" font-weight="bold" fill="#2563eb">Electricity</text><text x="155" y="262" text-anchor="middle" font-size="12" fill="#555">61.11 kW</text><line x1="255" y1="250" x2="530.0" y2="250" stroke="#2563eb" stroke-width="2" marker-end="url(#arrowIn)" /><rect x="55" y="325" width="200" height="50" fill="white" stroke="#2563eb" stroke-width="1" rx="5" /><text x="155" y="345" text-anchor="middle" font-size="14" font-weight="bold" fill="#2563eb">Electricity</text><text x="155" y="362" text-anchor="middle" font-size="12" fill="#555">103.08 kW</text><line x1="255" y1="350" x2="530.0" y2="350" stroke="#2563eb" stroke-width="2" marker-end="url(#arrowIn)" /><rect x="55" y="425" width="200" height="50" fill="white" stroke="#2563eb" stroke-width="1" rx="5" /><text x="155" y="445" text-anchor="middle" font-size="14" font-weight="bold" fill="#2563eb">oxyvent</text><text x="155" y="462" text-anchor="middle" font-size="12" fill="#555">888.89 kg/h</text><line x1="255" y1="450" x2="530.0" y2="450" stroke="#2563eb" stroke-width="2" marker-end="url(#arrowIn)" /><rect x="55" y="525" width="200" height="50" fill="white" stroke="#2563eb" stroke-width="1" rx="5" /><text x="155" y="545" text-anchor="middle" font-size="14" font-weight="bold" fill="#2563eb">Electricity</text><text x="155" y="562" text-anchor="middle" font-size="12" fill="#555">155.48 kW</text><line x1="255" y1="550" x2="530.0" y2="550" stroke="#2563eb" stroke-width="2" marker-end="url(#arrowIn)" /><rect x="55" y="625" width="200" height="50" fill="white" stroke="#2563eb" stroke-width="1" rx="5" /><text x="155" y="645" text-anchor="middle" font-size="14" font-weight="bold" fill="#2563eb">oxyvent</text><text x="155" y="662" text-anchor="middle" font-size="12" fill="#555">888.89 kg/h</text><line x1="255" y1="650" x2="530.0" y2="650" stroke="#2563eb" stroke-width="2" marker-end="url(#arrowIn)" /><line x1="1470.0" y1="250" x2="1755" y2="250" stroke="#dc2626" stroke-width="2" marker-end="url(#arrowOut)" /><rect x="1760" y="225" width="200" height="50" fill="white" stroke="#dc2626" stroke-width="1" rx="5" /><text x="1860" y="245" text-anchor="middle" font-size="14" font-weight="bold" fill="#dc2626">hydrogen</text><text x="1860" y="262" text-anchor="middle" font-size="12" fill="#555">111.11 kg/h</text><line x1="1470.0" y1="350" x2="1755" y2="350" stroke="#dc2626" stroke-width="2" marker-end="url(#arrowOut)" /><rect x="1760" y="325" width="200" height="50" fill="white" stroke="#dc2626" stroke-width="1" rx="5" /><text x="1860" y="345" text-anchor="middle" font-size="14" font-weight="bold" fill="#dc2626">oxyvent</text><text x="1860" y="362" text-anchor="middle" font-size="12" fill="#555">888.89 kg/h</text><line x1="1470.0" y1="450" x2="1755" y2="450" stroke="#dc2626" stroke-width="2" marker-end="url(#arrowOut)" /><rect x="1760" y="425" width="200" height="50" fill="white" stroke="#dc2626" stroke-width="1" rx="5" /><text x="1860" y="445" text-anchor="middle" font-size="14" font-weight="bold" fill="#dc2626">oxyprocess</text><text x="1860" y="462" text-anchor="middle" font-size="12" fill="#555">888.89 kg/h</text><line x1="1470.0" y1="550" x2="1755" y2="550" stroke="#dc2626" stroke-width="2" marker-end="url(#arrowOut)" /><rect x="1760" y="525" width="200" height="50" fill="white" stroke="#dc2626" stroke-width="1" rx="5" /><text x="1860" y="545" text-anchor="middle" font-size="14" font-weight="bold" fill="#dc2626">oxygen</text><text x="1860" y="562" text-anchor="middle" font-size="12" fill="#555">888.89 kg/h</text><text x="516.25" y="735.0" text-anchor="middle" font-size="16" font-weight="bold" fill="#dc2626">Hot Streams</text><rect x="50" y="755.0" width="932.5" height="35" fill="#e5e7eb" stroke="#333" stroke-width="1" /><text x="166.5625" y="777.5" text-anchor="middle" font-size="14" font-weight="bold" fill="#333">Name</text><line x1="283.125" y1="755.0" x2="283.125" y2="790.0" stroke="#333" stroke-width="1" /><text x="370.546875" y="777.5" text-anchor="middle" font-size="14" font-weight="bold" fill="#333">T in [°C]</text><line x1="457.96875" y1="755.0" x2="457.96875" y2="790.0" stroke="#333" stroke-width="1" /><text x="545.390625" y="777.5" text-anchor="middle" font-size="14" font-weight="bold" fill="#333">T out [°C]</text><line x1="632.8125" y1="755.0" x2="632.8125" y2="790.0" stroke="#333" stroke-width="1" /><text x="720.234375" y="777.5" text-anchor="middle" font-size="14" font-weight="bold" fill="#333">H in [kW]</text><line x1="807.65625" y1="755.0" x2="807.65625" y2="790.0" stroke="#333" stroke-width="1" /><text x="895.078125" y="777.5" text-anchor="middle" font-size="14" font-weight="bold" fill="#333">H out [kW]</text><rect x="50" y="790.0" width="932.5" height="30" fill="#fee2e2" stroke="#333" stroke-width="1" /><text x="166.5625" y="810.0" text-anchor="middle" font-size="13" font-weight="normal" fill="#333">Qo2cw1procWSU</text><line x1="283.125" y1="790.0" x2="283.125" y2="820.0" stroke="#333" stroke-width="1" /><text x="370.546875" y="810.0" text-anchor="middle" font-size="13" font-weight="normal" fill="#333">172.00</text><line x1="457.96875" y1="790.0" x2="457.96875" y2="820.0" stroke="#333" stroke-width="1" /><text x="545.390625" y="810.0" text-anchor="middle" font-size="13" font-weight="normal" fill="#333">30.00</text><line x1="632.8125" y1="790.0" x2="632.8125" y2="820.0" stroke="#333" stroke-width="1" /><text x="720.234375" y="810.0" text-anchor="middle" font-size="13" font-weight="normal" fill="#333">32.98</text><line x1="807.65625" y1="790.0" x2="807.65625" y2="820.0" stroke="#333" stroke-width="1" /><text x="895.078125" y="810.0" text-anchor="middle" font-size="13" font-weight="normal" fill="#333">0.00</text><rect x="50" y="820.0" width="932.5" height="30" fill="#fee2e2" stroke="#333" stroke-width="1" /><text x="166.5625" y="840.0" text-anchor="middle" font-size="13" font-weight="normal" fill="#333">Qo2cw2procWSU</text><line x1="283.125" y1="820.0" x2="283.125" y2="850.0" stroke="#333" stroke-width="1" /><text x="370.546875" y="840.0" text-anchor="middle" font-size="13" font-weight="normal" fill="#333">179.50</text><line x1="457.96875" y1="820.0" x2="457.96875" y2="850.0" stroke="#333" stroke-width="1" /><text x="545.390625" y="840.0" text-anchor="middle" font-size="13" font-weight="normal" fill="#333">30.00</text><line x1="632.8125" y1="820.0" x2="632.8125" y2="850.0" stroke="#333" stroke-width="1" /><text x="720.234375" y="840.0" text-anchor="middle" font-size="13" font-weight="normal" fill="#333">34.94</text><line x1="807.65625" y1="820.0" x2="807.65625" y2="850.0" stroke="#333" stroke-width="1" /><text x="895.078125" y="840.0" text-anchor="middle" font-size="13" font-weight="normal" fill="#333">0.00</text><rect x="50" y="850.0" width="932.5" height="30" fill="#fee2e2" stroke="#333" stroke-width="1" /><text x="166.5625" y="870.0" text-anchor="middle" font-size="13" font-weight="normal" fill="#333">Qo2cw3procWSU</text><line x1="283.125" y1="850.0" x2="283.125" y2="880.0" stroke="#333" stroke-width="1" /><text x="370.546875" y="870.0" text-anchor="middle" font-size="13" font-weight="normal" fill="#333">179.60</text><line x1="457.96875" y1="850.0" x2="457.96875" y2="880.0" stroke="#333" stroke-width="1" /><text x="545.390625" y="870.0" text-anchor="middle" font-size="13" font-weight="normal" fill="#333">30.00</text><line x1="632.8125" y1="850.0" x2="632.8125" y2="880.0" stroke="#333" stroke-width="1" /><text x="720.234375" y="870.0" text-anchor="middle" font-size="13" font-weight="normal" fill="#333">35.78</text><line x1="807.65625" y1="850.0" x2="807.65625" y2="880.0" stroke="#333" stroke-width="1" /><text x="895.078125" y="870.0" text-anchor="middle" font-size="13" font-weight="normal" fill="#333">0.00</text><rect x="50" y="880.0" width="932.5" height="30" fill="#fee2e2" stroke="#333" stroke-width="1" /><text x="166.5625" y="900.0" text-anchor="middle" font-size="13" font-weight="normal" fill="#333">Qo2cw1procWSU</text><line x1="283.125" y1="880.0" x2="283.125" y2="910.0" stroke="#333" stroke-width="1" /><text x="370.546875" y="900.0" text-anchor="middle" font-size="13" font-weight="normal" fill="#333">172.00</text><line x1="457.96875" y1="880.0" x2="457.96875" y2="910.0" stroke="#333" stroke-width="1" /><text x="545.390625" y="900.0" text-anchor="middle" font-size="13" font-weight="normal" fill="#333">30.00</text><line x1="632.8125" y1="880.0" x2="632.8125" y2="910.0" stroke="#333" stroke-width="1" /><text x="720.234375" y="900.0" text-anchor="middle" font-size="13" font-weight="normal" fill="#333">32.98</text><line x1="807.65625" y1="880.0" x2="807.65625" y2="910.0" stroke="#333" stroke-width="1" /><text x="895.078125" y="900.0" text-anchor="middle" font-size="13" font-weight="normal" fill="#333">0.00</text><rect x="50" y="910.0" width="932.5" height="30" fill="#fee2e2" stroke="#333" stroke-width="1" /><text x="166.5625" y="930.0" text-anchor="middle" font-size="13" font-weight="normal" fill="#333">Qo2cw2procWSU</text><line x1="283.125" y1="910.0" x2="283.125" y2="940.0" stroke="#333" stroke-width="1" /><text x="370.546875" y="930.0" text-anchor="middle" font-size="13" font-weight="normal" fill="#333">179.50</text><line x1="457.96875" y1="910.0" x2="457.96875" y2="940.0" stroke="#333" stroke-width="1" /><text x="545.390625" y="930.0" text-anchor="middle" font-size="13" font-weight="normal" fill="#333">30.00</text><line x1="632.8125" y1="910.0" x2="632.8125" y2="940.0" stroke="#333" stroke-width="1" /><text x="720.234375" y="930.0" text-anchor="middle" font-size="13" font-weight="normal" fill="#333">34.94</text><line x1="807.65625" y1="910.0" x2="807.65625" y2="940.0" stroke="#333" stroke-width="1" /><text x="895.078125" y="930.0" text-anchor="middle" font-size="13" font-weight="normal" fill="#333">0.00</text><rect x="50" y="940.0" width="932.5" height="30" fill="#fee2e2" stroke="#333" stroke-width="1" /><text x="166.5625" y="960.0" text-anchor="middle" font-size="13" font-weight="normal" fill="#333">Qo2cw3procWSU</text><line x1="283.125" y1="940.0" x2="283.125" y2="970.0" stroke="#333" stroke-width="1" /><text x="370.546875" y="960.0" text-anchor="middle" font-size="13" font-weight="normal" fill="#333">179.60</text><line x1="457.96875" y1="940.0" x2="457.96875" y2="970.0" stroke="#333" stroke-width="1" /><text x="545.390625" y="960.0" text-anchor="middle" font-size="13" font-weight="normal" fill="#333">30.00</text><line x1="632.8125" y1="940.0" x2="632.8125" y2="970.0" stroke="#333" stroke-width="1" /><text x="720.234375" y="960.0" text-anchor="middle" font-size="13" font-weight="normal" fill="#333">35.78</text><line x1="807.65625" y1="940.0" x2="807.65625" y2="970.0" stroke="#333" stroke-width="1" /><text x="895.078125" y="960.0" text-anchor="middle" font-size="13" font-weight="normal" fill="#333">0.00</text><rect x="50" y="970.0" width="932.5" height="30" fill="#fee2e2" stroke="#333" stroke-width="1" /><text x="166.5625" y="990.0" text-anchor="middle" font-size="13" font-weight="normal" fill="#333">Qo2cw1expWSU</text><line x1="283.125" y1="970.0" x2="283.125" y2="1000.0" stroke="#333" stroke-width="1" /><text x="370.546875" y="990.0" text-anchor="middle" font-size="13" font-weight="normal" fill="#333">108.60</text><line x1="457.96875" y1="970.0" x2="457.96875" y2="1000.0" stroke="#333" stroke-width="1" /><text x="545.390625" y="990.0" text-anchor="middle" font-size="13" font-weight="normal" fill="#333">30.00</text><line x1="632.8125" y1="970.0" x2="632.8125" y2="1000.0" stroke="#333" stroke-width="1" /><text x="720.234375" y="990.0" text-anchor="middle" font-size="13" font-weight="normal" fill="#333">19.39</text><line x1="807.65625" y1="970.0" x2="807.65625" y2="1000.0" stroke="#333" stroke-width="1" /><text x="895.078125" y="990.0" text-anchor="middle" font-size="13" font-weight="normal" fill="#333">0.00</text><rect x="50" y="1000.0" width="932.5" height="30" fill="#fee2e2" stroke="#333" stroke-width="1" /><text x="166.5625" y="1020.0" text-anchor="middle" font-size="13" font-weight="normal" fill="#333">Qo2cw2expWSU</text><line x1="283.125" y1="1000.0" x2="283.125" y2="1030.0" stroke="#333" stroke-width="1" /><text x="370.546875" y="1020.0" text-anchor="middle" font-size="13" font-weight="normal" fill="#333">108.30</text><line x1="457.96875" y1="1000.0" x2="457.96875" y2="1030.0" stroke="#333" stroke-width="1" /><text x="545.390625" y="1020.0" text-anchor="middle" font-size="13" font-weight="normal" fill="#333">30.00</text><line x1="632.8125" y1="1000.0" x2="632.8125" y2="1030.0" stroke="#333" stroke-width="1" /><text x="720.234375" y="1020.0" text-anchor="middle" font-size="13" font-weight="normal" fill="#333">20.46</text><line x1="807.65625" y1="1000.0" x2="807.65625" y2="1030.0" stroke="#333" stroke-width="1" /><text x="895.078125" y="1020.0" text-anchor="middle" font-size="13" font-weight="normal" fill="#333">0.00</text><rect x="50" y="1030.0" width="932.5" height="30" fill="#fee2e2" stroke="#333" stroke-width="1" /><text x="166.5625" y="1050.0" text-anchor="middle" font-size="13" font-weight="normal" fill="#333">Qo2cw3expWSU</text><line x1="283.125" y1="1030.0" x2="283.125" y2="1060.0" stroke="#333" stroke-width="1" /><text x="370.546875" y="1050.0" text-anchor="middle" font-size="13" font-weight="normal" fill="#333">107.00</text><line x1="457.96875" y1="1030.0" x2="457.96875" y2="1060.0" stroke="#333" stroke-width="1" /><text x="545.390625" y="1050.0" text-anchor="middle" font-size="13" font-weight="normal" fill="#333">30.00</text><line x1="632.8125" y1="1030.0" x2="632.8125" y2="1060.0" stroke="#333" stroke-width="1" /><text x="720.234375" y="1050.0" text-anchor="middle" font-size="13" font-weight="normal" fill="#333">21.85</text><line x1="807.65625" y1="1030.0" x2="807.65625" y2="1060.0" stroke="#333" stroke-width="1" /><text x="895.078125" y="1050.0" text-anchor="middle" font-size="13" font-weight="normal" fill="#333">0.00</text><text x="1488.75" y="735.0" text-anchor="middle" font-size="16" font-weight="bold" fill="#2563eb">Cold Streams</text><rect x="1022.5" y="755.0" width="932.5" height="35" fill="#e5e7eb" stroke="#333" stroke-width="1" /><text x="1139.0625" y="777.5" text-anchor="middle" font-size="14" font-weight="bold" fill="#333">Name</text><line x1="1255.625" y1="755.0" x2="1255.625" y2="790.0" stroke="#333" stroke-width="1" /><text x="1343.046875" y="777.5" text-anchor="middle" font-size="14" font-weight="bold" fill="#333">T in [°C]</text><line x1="1430.46875" y1="755.0" x2="1430.46875" y2="790.0" stroke="#333" stroke-width="1" /><text x="1517.890625" y="777.5" text-anchor="middle" font-size="14" font-weight="bold" fill="#333">T out [°C]</text><line x1="1605.3125" y1="755.0" x2="1605.3125" y2="790.0" stroke="#333" stroke-width="1" /><text x="1692.734375" y="777.5" text-anchor="middle" font-size="14" font-weight="bold" fill="#333">H in [kW]</text><line x1="1780.15625" y1="755.0" x2="1780.15625" y2="790.0" stroke="#333" stroke-width="1" /><text x="1867.578125" y="777.5" text-anchor="middle" font-size="14" font-weight="bold" fill="#333">H out [kW]</text><rect x="1022.5" y="790.0" width="932.5" height="30" fill="#dbeafe" stroke="#333" stroke-width="1" /><text x="1139.0625" y="810.0" text-anchor="middle" font-size="13" font-weight="normal" fill="#333">Heat_AlkaElec</text><line x1="1255.625" y1="790.0" x2="1255.625" y2="820.0" stroke="#333" stroke-width="1" /><text x="1343.046875" y="810.0" text-anchor="middle" font-size="13" font-weight="normal" fill="#333">80.00</text><line x1="1430.46875" y1="790.0" x2="1430.46875" y2="820.0" stroke="#333" stroke-width="1" /><text x="1517.890625" y="810.0" text-anchor="middle" font-size="13" font-weight="normal" fill="#333">30.00</text><line x1="1605.3125" y1="790.0" x2="1605.3125" y2="820.0" stroke="#333" stroke-width="1" /><text x="1692.734375" y="810.0" text-anchor="middle" font-size="13" font-weight="normal" fill="#333">0.34</text><line x1="1780.15625" y1="790.0" x2="1780.15625" y2="820.0" stroke="#333" stroke-width="1" /><text x="1867.578125" y="810.0" text-anchor="middle" font-size="13" font-weight="normal" fill="#333">0.00</text></svg>