<?xml version="1.0" encoding="UTF-8"?>
<!-- Do not edit this file with editors other than diagrams.net -->
<!DOCTYPE svg PUBLIC "-//W3C//DTD SVG 1.1//EN" "http://www.w3.org/Graphics/SVG/1.1/DTD/svg11.dtd">
<svg xmlns="http://www.w3.org/2000/svg" xmlns:xlink="http://www.w3.org/1999/xlink" version="1.1" width="291px" height="196px" viewBox="-0.5 -0.5 291 196" content="&lt;mxfile host=&quot;Electron&quot; modified=&quot;2024-02-22T13:49:01.676Z&quot; agent=&quot;5.0 (Windows NT 10.0; Win64; x64) AppleWebKit/537.36 (KHTML, like Gecko) draw.io/20.8.10 Chrome/106.0.5249.199 Electron/21.3.5 Safari/537.36&quot; version=&quot;20.8.10&quot; etag=&quot;HY49Cpwhw6qxlS6M3bNk&quot; type=&quot;device&quot;&gt;&lt;diagram name=&quot;Page-1&quot; id=&quot;ABcNiFNZtX1JtQcVTaAb&quot;&gt;5Zlbc5s4FIB/jR9Xg7jY6DF1vO1DdzYzeWj71FFBAbWAGCFss7++AsRNghQ78U47yUuko/v5zo1k4+zT83uO8/gfFpJkY1vheePcb2zb85Erf9WSqpXsdqgVRJyGrQgOgkf6H1FCS0lLGpJiMlEwlgiaT4UByzISiIkMc85O02lPLJmemuOIGILHACem9BMNRdxKXQ+hYeADoVGsjnYQ2rYjKe5mq6cUMQ7ZaSRyDhtnzxkTbSs970lSa69TTLvu74XR/macZGLNArtdcMRJqR6n7iWq7rVHwgWVj/+Iv5HkgRVUUJbJoW9MCJZunHesFAnNyL7XtiWFOKFRPSuQFyFcCkJcxCRUo7FIE9mEstltf6cWCJZLqdRLXp+fnqPahkBOQ5DSIgAhr5rtnlgmlGVAV/bVO+Rm5LyoC9hrWNomYSkRvJJT1IK/oIO8dpEyTIg8F+yUSk4DagjVvHhEWQqB7SsrUxYW9YcMDGRDYZhH4vwaSc5ordXDUb6s0PS4iKk3NUunYbC6GA9JJHlez2soyQfhjLCyAILjrAjLgPCv9s2o+RbQuTkeQL7BDVlz2GxgOS/H5l7vSb1O1/J5okmyZwmT7ftCcPaDqN5z5AZDaFZ0kQs+j5Nmkp5gvABHzGmtluYGnAmsbo+sm4H1ENA80rYc0x1dFyATrLN9OVTPYEhCmQpUl3ERs4hlODkMUqmaMgt7dt/LNO/mYx7U4bJf9ZHV4BsC34kQlVIgLgWbotS1KzXIq8/qhKbzZdy5P0961bj3QDhVEBth+8D6VdN8inlEOkWuJsdJIq3iON1qTv/N0jvOcTWa0ES1YrTzQy3QPF3z82l6k41206UN3KUN+ksUrOQBUQvHidO8jJEs9OjfKtHYqzG6Xmur7HBrBJd/z1VEMsM8pbuJqe1M4sN9xjKiBRAlMoKMHj9SGoaNgZ9iKshjjoP6zJMMGIbR3yQayOgN9GAgU65nhAN/Jso7GuZrgsHu9wwGKzzY/t89+Bm/0X1QUrSv9kGo+7Pnga2st/ufW3mk/3saQyFfKO7qb5zBs8mZis9qft3uc4VsD6mi7lSjzspE0bK6baKYAQ/RFrgaen8HdnAg719rVH2wWEwSC2Z0eULrK9KFhHbJ7WZz4BWWjYxcc1DlIBXVW0o4LjIC1dp0A1/hg6ILbSMQn3CtqTeEwLMMY3dXAdA99ioAcMETWFIVtKghVIUg6R8CpOmrS8JXoeNuNTr+bgdGuXfmCxzOfYK/RnHW1RAjWB+qkLM3XyRDBP1fQLlVwdxFwT+hSFpR3tyqip6ta7dgazIbV7loawy/vNSxLe9WpY7j6R9v3qWljr7k0lJHdoe/rLfTh39QOIef&lt;/diagram&gt;&lt;/mxfile&gt;"><defs/><g><path d="M 126.56 192 L 105 174.71 L 105 76.72 L 220 76.72 L 220 174.71 L 198.44 192 Z" fill="rgb(255, 255, 255)" stroke="rgb(0, 0, 0)" stroke-miterlimit="10" pointer-events="all"/><rect x="119.5" y="57.98" width="90" height="112.03" fill="none" stroke="none" pointer-events="all"/><rect x="153.25" y="80.39" width="22.5" height="67.22" fill="rgb(255, 255, 255)" stroke="rgb(0, 0, 0)" pointer-events="all"/><path d="M 147.63 85.99 L 147.63 142 M 181.38 85.99 L 181.38 142 M 119.5 57.98 L 119.5 113.99 L 147.63 113.99 M 209.5 57.98 L 209.5 113.99 L 181.38 113.99" fill="none" stroke="rgb(0, 0, 0)" stroke-miterlimit="10" pointer-events="all"/><path d="M 164.5 147.6 L 164.5 170.01" fill="none" stroke="rgb(0, 0, 0)" stroke-miterlimit="10" stroke-dasharray="5.601500000000001 2.2406" pointer-events="all"/><path d="M 140.05 161.36 L 152.02 161.36 C 152.02 164.19 153.7 166.48 155.77 166.48 C 157.83 166.48 159.51 164.19 159.51 161.36 C 159.51 164.19 161.18 166.48 163.25 166.48 C 165.31 166.48 166.99 164.19 166.99 161.36 C 166.99 164.19 168.67 166.48 170.73 166.48 C 172.8 166.48 174.47 164.19 174.47 161.36 C 174.47 164.19 176.15 166.48 178.22 166.48 C 180.28 166.48 181.96 164.19 181.96 161.36 L 184.95 161.36 L 184.95 181.82 L 181.96 181.82 C 181.96 178.99 180.28 176.7 178.22 176.7 C 176.15 176.7 174.47 178.99 174.47 181.82 C 174.47 178.99 172.8 176.7 170.73 176.7 C 168.67 176.7 166.99 178.99 166.99 181.82 C 166.99 178.99 165.31 176.7 163.25 176.7 C 161.18 176.7 159.51 178.99 159.51 181.82 C 159.51 178.99 157.83 176.7 155.77 176.7 C 153.7 176.7 152.02 178.99 152.02 181.82 L 140.05 181.82 M 153.52 190 L 175.97 158.91" fill="none" stroke="rgb(0, 0, 0)" stroke-miterlimit="10" transform="rotate(90,162.5,172)" pointer-events="all"/><path d="M 177.47 160.55 L 174.47 156.86 L 179.26 154 Z" fill="rgb(0, 0, 0)" stroke="rgb(0, 0, 0)" stroke-miterlimit="10" transform="rotate(90,162.5,172)" pointer-events="all"/><path d="M 20 42 L 119.5 42 L 119.5 51.61" fill="none" stroke="rgb(0, 0, 0)" stroke-miterlimit="10" pointer-events="stroke"/><path d="M 119.5 56.86 L 116 49.86 L 119.5 51.61 L 123 49.86 Z" fill="rgb(0, 0, 0)" stroke="rgb(0, 0, 0)" stroke-miterlimit="10" pointer-events="all"/><rect x="209.5" y="137.5" width="80" height="30" fill="none" stroke="none" pointer-events="all"/><g transform="translate(-0.5 -0.5)"><switch><foreignObject pointer-events="none" width="100%" height="100%" requiredFeatures="http://www.w3.org/TR/SVG11/feature#Extensibility" style="overflow: visible; text-align: left;"><div xmlns="http://www.w3.org/1999/xhtml" style="display: flex; align-items: unsafe center; justify-content: unsafe center; width: 78px; height: 1px; padding-top: 152px; margin-left: 211px;"><div data-drawio-colors="color: rgb(0, 0, 0); " style="box-sizing: border-box; font-size: 0px; text-align: center;"><div style="display: inline-block; font-size: 14px; font-family: Helvetica; color: rgb(0, 0, 0); line-height: 1.2; pointer-events: all; white-space: normal; overflow-wrap: normal;">Oxygen</div></div></div></foreignObject><text x="250" y="157" fill="rgb(0, 0, 0)" font-family="Helvetica" font-size="14px" text-anchor="middle">Oxygen</text></switch></g><path d="M 20 134 L 98.63 134.32" fill="none" stroke="rgb(0, 0, 0)" stroke-miterlimit="10" pointer-events="stroke"/><path d="M 103.88 134.37 L 96.85 137.8 L 98.63 134.32 L 96.91 130.8 Z" fill="rgb(0, 0, 0)" stroke="rgb(0, 0, 0)" stroke-miterlimit="10" pointer-events="all"/><path d="M 209.5 57.98 L 209.5 42 L 263.63 42" fill="none" stroke="rgb(0, 0, 0)" stroke-miterlimit="10" pointer-events="stroke"/><path d="M 268.88 42 L 261.88 45.5 L 263.63 42 L 261.88 38.5 Z" fill="rgb(0, 0, 0)" stroke="rgb(0, 0, 0)" stroke-miterlimit="10" pointer-events="all"/><rect x="10" y="137.5" width="80" height="13" fill="none" stroke="none" pointer-events="all"/><g transform="translate(-0.5 -0.5)"><switch><foreignObject pointer-events="none" width="100%" height="100%" requiredFeatures="http://www.w3.org/TR/SVG11/feature#Extensibility" style="overflow: visible; text-align: left;"><div xmlns="http://www.w3.org/1999/xhtml" style="display: flex; align-items: unsafe center; justify-content: unsafe center; width: 78px; height: 1px; padding-top: 144px; margin-left: 11px;"><div data-drawio-colors="color: rgb(0, 0, 0); " style="box-sizing: border-box; font-size: 0px; text-align: center;"><div style="display: inline-block; font-size: 14px; font-family: Helvetica; color: rgb(0, 0, 0); line-height: 1.2; pointer-events: all; white-space: normal; overflow-wrap: normal;">Electricity</div></div></div></foreignObject><text x="50" y="148" fill="rgb(0, 0, 0)" font-family="Helvetica" font-size="14px" text-anchor="middle">Electricity</text></switch></g><rect x="0" y="46" width="80" height="20" fill="none" stroke="none" pointer-events="all"/><g transform="translate(-0.5 -0.5)"><switch><foreignObject pointer-events="none" width="100%" height="100%" requiredFeatures="http://www.w3.org/TR/SVG11/feature#Extensibility" style="overflow: visible; text-align: left;"><div xmlns="http://www.w3.org/1999/xhtml" style="display: flex; align-items: unsafe center; justify-content: unsafe center; width: 78px; height: 1px; padding-top: 56px; margin-left: 1px;"><div data-drawio-colors="color: rgb(0, 0, 0); " style="box-sizing: border-box; font-size: 0px; text-align: center;"><div style="display: inline-block; font-size: 14px; font-family: Helvetica; color: rgb(0, 0, 0); line-height: 1.2; pointer-events: all; white-space: normal; overflow-wrap: normal;">Water</div></div></div></foreignObject><text x="40" y="60" fill="rgb(0, 0, 0)" font-family="Helvetica" font-size="14px" text-anchor="middle">Water</text></switch></g><rect x="40" y="0" width="190" height="30" fill="none" stroke="none" pointer-events="all"/><g transform="translate(-0.5 -0.5)"><switch><foreignObject pointer-events="none" width="100%" height="100%" requiredFeatures="http://www.w3.org/TR/SVG11/feature#Extensibility" style="overflow: visible; text-align: left;"><div xmlns="http://www.w3.org/1999/xhtml" style="display: flex; align-items: unsafe center; justify-content: unsafe center; width: 188px; height: 1px; padding-top: 15px; margin-left: 41px;"><div data-drawio-colors="color: rgb(0, 0, 0); " style="box-sizing: border-box; font-size: 0px; text-align: center;"><div style="display: inline-block; font-size: 14px; font-family: Helvetica; color: rgb(0, 0, 0); line-height: 1.2; pointer-events: all; font-weight: bold; white-space: normal; overflow-wrap: normal;">Electrolysis system</div></div></div></foreignObject><text x="135" y="19" fill="rgb(0, 0, 0)" font-family="Helvetica" font-size="14px" text-anchor="middle" font-weight="bold">Electrolysis system</text></switch></g><rect x="209.5" y="41" width="80" height="30" fill="none" stroke="none" pointer-events="all"/><g transform="translate(-0.5 -0.5)"><switch><foreignObject pointer-events="none" width="100%" height="100%" requiredFeatures="http://www.w3.org/TR/SVG11/feature#Extensibility" style="overflow: visible; text-align: left;"><div xmlns="http://www.w3.org/1999/xhtml" style="display: flex; align-items: unsafe center; justify-content: unsafe center; width: 78px; height: 1px; padding-top: 56px; margin-left: 211px;"><div data-drawio-colors="color: rgb(0, 0, 0); " style="box-sizing: border-box; font-size: 0px; text-align: center;"><div style="display: inline-block; font-size: 14px; font-family: Helvetica; color: rgb(0, 0, 0); line-height: 1.2; pointer-events: all; white-space: normal; overflow-wrap: normal;">Hydrogen</div></div></div></foreignObject><text x="250" y="60" fill="rgb(0, 0, 0)" font-family="Helvetica" font-size="14px" text-anchor="middle">Hydrogen</text></switch></g><path d="M 220 172 L 263.63 172" fill="none" stroke="rgb(0, 0, 0)" stroke-miterlimit="10" pointer-events="stroke"/><path d="M 268.88 172 L 261.88 175.5 L 263.63 172 L 261.88 168.5 Z" fill="rgb(0, 0, 0)" stroke="rgb(0, 0, 0)" stroke-miterlimit="10" pointer-events="all"/></g><switch><g requiredFeatures="http://www.w3.org/TR/SVG11/feature#Extensibility"/><a transform="translate(0,-5)" xlink:href="https://www.diagrams.net/doc/faq/svg-export-text-problems" target="_blank"><text text-anchor="middle" font-size="10px" x="50%" y="100%">Text is not SVG - cannot display</text></a></switch></svg>