<?xml version="1.0" encoding="UTF-8"?>
<!-- Do not edit this file with editors other than diagrams.net -->
<!DOCTYPE svg PUBLIC "-//W3C//DTD SVG 1.1//EN" "http://www.w3.org/Graphics/SVG/1.1/DTD/svg11.dtd">
<svg xmlns="http://www.w3.org/2000/svg" xmlns:xlink="http://www.w3.org/1999/xlink" version="1.1" width="430px" height="275px" viewBox="-0.5 -0.5 430 275" content="&lt;mxfile host=&quot;Electron&quot; modified=&quot;2024-02-20T00:05:04.062Z&quot; agent=&quot;5.0 (Windows NT 10.0; Win64; x64) AppleWebKit/537.36 (KHTML, like Gecko) draw.io/20.8.10 Chrome/106.0.5249.199 Electron/21.3.5 Safari/537.36&quot; version=&quot;20.8.10&quot; etag=&quot;ZvSHG0L3S0B9LXhL8Kx8&quot; type=&quot;device&quot;&gt;&lt;diagram name=&quot;Page-1&quot; id=&quot;nSgV3uoMNxZyJdNA8IVf&quot;&gt;7VtLk9soEP41rkoOoYSQhHTMTCabw25Vqry1SU4ujcXIZGXhRXjGzq9fsNAL5PFLdiYZ+yJoIYT66/5oGjxCt/PVHzxezP5iCclGrpOsRujDyHV918XyoiTrUoJwWApSTpNSBBvBmP4gWuho6ZImpOg0FIxlgi66winLczIVHVnMOXvqNntgWfetizgllmA8jTNb+oUmYlZKPT+KmhufCE1n+tUoioLyzjyuWutPKWZxwp5aInQ3QrecMVGW5qtbkintVYopn/u45W49Mk5ysc8DbvnAY5wt9cfpcYl19bVyiAtVnK9SBSdY0ATMSCwmZDWdxXlKeAEWWSzIJM6TyQOP52TSvT9CNzMxz2QfUBYXjOaC8LtHOcRCy+KMprksT4m6JQWPhAsqNf5nfE+yz6yggjLV4J4JweatBu/1k4ItpDSJixlRn+bIiv402ZCstqoH1kqX5krYnAi+lk30A+/CCihtqjD0NMhPDfKhbjNrYQ49LYy1saV15w0csqAR6UcH7UZnp6Is1XZ01MKlX6N96D/QTCjUM/qf9MTJx0118uY+Tkfu7WQqzUCOblPiQjpwSt4OhYbngkr/DSAh8C1Iqs4NSKqWp4DiXUHpgIIRBl5gecm+oKBoCFD83aCQPHmvyF+pPYuLgk67quZsmSc1Bg8sF3rmgZ5SuZB60wJV/76cL8a685irrmT/+n7QBhTWaiaJNa3sVHJLe34Py1QyTiQB08du93361G/4rDi4hWFUWXUNYGiAUrAlnxL9XHtCMbva+GgY1b9wR8dSrykRVscbwGtF7GUDgWUDd5mc/jmdUiE/Psik0m7uuSylqiSjg0KCuHFN01akO4iudRSCs3/JLcuYdNcPOcuJMhKaZYZo60xWefCcJsoT0c3TjAoyXsRT9c4n6cc7bTChXH5PSSUSD2UYg3hw5Jrui0LLeQPfNr8h5jhsKb+rBNvRGBczlrJc8itTdLjB5zsRYq2VFS8F66LX680VG2jkpLb4+qt6K4AQVoJv6hHg1PUPKz2usrZu1z4TTuX3K9hLoXT4aujNoO8a6TZiKH2iE6HtAefJJAC7vuo6VQByOAlECPiR2Vt4Ls8PLc8fPxGyUO+ifGOzUjF5enXzrptH2HZzLNkb2Z5uYneMp0e/saevqPjaKn/bdO7rWtOTqqxblcEYo/RMLfIvRhkBggB5Pnad8ocMl4cRwJ4XBfq2dySdYBlTYLeJKUw7DuVrDKoajlyqrEOLXb7ECrLXzSaBg4DT+kEDk8izuCV0QRCch1sgtOD4WeSy04VrsgAwgi3CeOdIhQYHc8YejHC5GCL0IXC7LABDeGwYEUEj+4JDI+Lc4uYSk3jdarbJORXPjdvx+9/U2F/Z59EsYmfa7nK5NFGLxCpMmTKWXcOUCJpQRNimkp7F8CA8gl4MjzRBit8OUZqIZNCVSENK2AtG7SjGcQ6PY/bnpPZSp1p/XCJwCRHAhp2F0AVVaHEwVQXIB67vIl9Ph65JJwHwMfZQN4IZmsZwsIUwt48bomefOJ347Hzpp3XCWUpy9WW5or+nazz1Tsa3IGr/LAO6aDy1R0J1n42hYib73WwMieW9uS80gaNfd2cIO11Xk4sdx0KogmJweIIXM03V84YXoc68oVYAP2X9ewCYp04jfogNI3CPzZubRNzY0xmWtNjy7rEg8VyKJC0THgv26ukYOjW5Ppcv28bBA2TGoZ3WvHJwNwfhmrtLyOZg1LNUQEPA83LymTUH+y0Ghgez7x7cesEQHbsBQLCJh7ABtY9A0AqXjFn1aN6FETTSlMPxrmunEptY+FXTrS/XR89Ev5Fj+/UZo9/qAw5l3kdSFCQr9HXyJqGK8CYkTwp19ILTPH37K9MtMmGBdpLXd21MfG8ATGwIXm6Gt8rdQKB2PdvZG4Bc75gMzhZu7uwUo4txs4/NYNU9NnGCoWlUJydHTmHosxy523mgq48GOu7bwzauHKMkGrC5qJ7V9e/1ppmYcUK+qKzNTTwVy00830wZGV18qvhdlv8ZtU8pnRqRBYZhVInv9qq45yjJEAFzdYjpl6AIHbPBVn61IohqHT1svvWCq2LPTI2gY9nBN8/fRsgYz0XZwc6KjVlGVQqTrWhC5LU8csay9Y9rRrNnCR1imw7wuaK4F5ckUzu83SQZwoc7+yHxRzf2qDeSBog8OtyC7GjkkqdQHARQgOq1g5W2wSDAR2/sWIdazKlqwPWhnZezTPh1Z3zC0DxV2BdfnCnr3nPO8ArPs/BAHNjbVmeDJ7Lg0Qe11D/BEpIXr35K9q3j+D2bVgPNx7La/I+tJMPm74Do7n8=&lt;/diagram&gt;&lt;/mxfile&gt;"><defs/><g><rect x="113" y="83" width="80" height="140" fill="none" stroke="none" pointer-events="all"/><rect x="117" y="83" width="72" height="140" fill="rgb(255, 255, 255)" stroke="rgb(0, 0, 0)" pointer-events="all"/><path d="M 125 83 L 125 223 M 133 83 L 133 223 M 141 83 L 141 223 M 149 83 L 149 223 M 157 83 L 157 223 M 165 83 L 165 223 M 173 83 L 173 223 M 181 83 L 181 223 M 113 86.5 L 113 95.83 M 113 210.17 L 113 219.5 M 193 86.5 L 193 95.83 M 193 210.17 L 193 219.5 M 113 91.17 L 117 91.17 L 189 214.83 L 193 214.83 M 113 214.83 L 117 214.83 L 189 91.17 L 193 91.17" fill="none" stroke="rgb(0, 0, 0)" stroke-miterlimit="10" pointer-events="all"/><rect x="90.51" y="82.5" width="21" height="140.5" fill="rgb(255, 255, 255)" stroke="rgb(0, 0, 0)" pointer-events="all"/><rect x="195.54" y="83.5" width="21" height="139.5" fill="rgb(255, 255, 255)" stroke="rgb(0, 0, 0)" pointer-events="all"/><path d="M 9 119 L 84.14 119" fill="none" stroke="rgb(0, 0, 0)" stroke-miterlimit="10" stroke-dasharray="3 3" pointer-events="stroke"/><path d="M 89.39 119 L 82.39 122.5 L 84.14 119 L 82.39 115.5 Z" fill="rgb(0, 0, 0)" stroke="rgb(0, 0, 0)" stroke-miterlimit="10" pointer-events="all"/><rect x="19.5" y="59.5" width="40" height="65" fill="none" stroke="none" transform="rotate(90,39.5,92)" pointer-events="all"/><g transform="translate(-0.5 -0.5)"><switch><foreignObject pointer-events="none" width="100%" height="100%" requiredFeatures="http://www.w3.org/TR/SVG11/feature#Extensibility" style="overflow: visible; text-align: left;"><div xmlns="http://www.w3.org/1999/xhtml" style="display: flex; align-items: unsafe center; justify-content: unsafe center; width: 63px; height: 1px; padding-top: 92px; margin-left: 8px;"><div data-drawio-colors="color: rgb(0, 0, 0); " style="box-sizing: border-box; font-size: 0px; text-align: center;"><div style="display: inline-block; font-size: 14px; font-family: Helvetica; color: rgb(0, 0, 0); line-height: 1.2; pointer-events: all; white-space: normal; overflow-wrap: normal;">Electricity<br />consumption</div></div></div></foreignObject><text x="40" y="96" fill="rgb(0, 0, 0)" font-family="Helvetica" font-size="14px" text-anchor="middle">Electrici...</text></switch></g><path d="M 15 257 L 121.88 257.03 L 121.88 230.77" fill="none" stroke="rgb(0, 0, 0)" stroke-miterlimit="10" pointer-events="stroke"/><path d="M 121.88 225.52 L 125.38 232.52 L 121.88 230.77 L 118.38 232.52 Z" fill="rgb(0, 0, 0)" stroke="rgb(0, 0, 0)" stroke-miterlimit="10" pointer-events="all"/><rect x="29.22" y="189.78" width="28" height="72.43" fill="none" stroke="none" transform="rotate(90,43.22,226)" pointer-events="all"/><g transform="translate(-0.5 -0.5)"><switch><foreignObject pointer-events="none" width="100%" height="100%" requiredFeatures="http://www.w3.org/TR/SVG11/feature#Extensibility" style="overflow: visible; text-align: left;"><div xmlns="http://www.w3.org/1999/xhtml" style="display: flex; align-items: unsafe center; justify-content: unsafe center; width: 70px; height: 1px; padding-top: 226px; margin-left: 8px;"><div data-drawio-colors="color: rgb(0, 0, 0); " style="box-sizing: border-box; font-size: 0px; text-align: center;"><div style="display: inline-block; font-size: 14px; font-family: Helvetica; color: rgb(0, 0, 0); line-height: 1.2; pointer-events: all; white-space: normal; overflow-wrap: normal;">Sweep air heating</div></div></div></foreignObject><text x="43" y="230" fill="rgb(0, 0, 0)" font-family="Helvetica" font-size="14px" text-anchor="middle">Sweep air...</text></switch></g><path d="M 233 258 L 190.3 258 L 190.28 230.1" fill="none" stroke="rgb(0, 0, 0)" stroke-miterlimit="10" pointer-events="stroke"/><path d="M 190.27 224.85 L 193.78 231.84 L 190.28 230.1 L 186.78 231.85 Z" fill="rgb(0, 0, 0)" stroke="rgb(0, 0, 0)" stroke-miterlimit="10" pointer-events="all"/><rect x="357.33" y="200.67" width="28" height="82.66" fill="none" stroke="none" transform="rotate(90,371.33,242)" pointer-events="all"/><g transform="translate(-0.5 -0.5)"><switch><foreignObject pointer-events="none" width="100%" height="100%" requiredFeatures="http://www.w3.org/TR/SVG11/feature#Extensibility" style="overflow: visible; text-align: left;"><div xmlns="http://www.w3.org/1999/xhtml" style="display: flex; align-items: unsafe center; justify-content: unsafe center; width: 81px; height: 1px; padding-top: 242px; margin-left: 331px;"><div data-drawio-colors="color: rgb(0, 0, 0); " style="box-sizing: border-box; font-size: 0px; text-align: center;"><div style="display: inline-block; font-size: 14px; font-family: Helvetica; color: rgb(0, 0, 0); line-height: 1.2; pointer-events: all; white-space: normal; overflow-wrap: normal;">Water</div></div></div></foreignObject><text x="371" y="246" fill="rgb(0, 0, 0)" font-family="Helvetica" font-size="14px" text-anchor="middle">Water</text></switch></g><path d="M 128.28 82.16 L 128.3 14 L 29.37 14" fill="none" stroke="rgb(0, 0, 0)" stroke-miterlimit="10" pointer-events="stroke"/><path d="M 24.12 14 L 31.12 10.5 L 29.37 14 L 31.12 17.5 Z" fill="rgb(0, 0, 0)" stroke="rgb(0, 0, 0)" stroke-miterlimit="10" pointer-events="all"/><rect x="44" y="5" width="28" height="80" fill="none" stroke="none" transform="rotate(90,58,45)" pointer-events="all"/><g transform="translate(-0.5 -0.5)"><switch><foreignObject pointer-events="none" width="100%" height="100%" requiredFeatures="http://www.w3.org/TR/SVG11/feature#Extensibility" style="overflow: visible; text-align: left;"><div xmlns="http://www.w3.org/1999/xhtml" style="display: flex; align-items: unsafe center; justify-content: unsafe center; width: 78px; height: 1px; padding-top: 45px; margin-left: 19px;"><div data-drawio-colors="color: rgb(0, 0, 0); " style="box-sizing: border-box; font-size: 0px; text-align: center;"><div style="display: inline-block; font-size: 14px; font-family: Helvetica; color: rgb(0, 0, 0); line-height: 1.2; pointer-events: all; white-space: normal; overflow-wrap: normal;">Enriched air cooling</div></div></div></foreignObject><text x="58" y="49" fill="rgb(0, 0, 0)" font-family="Helvetica" font-size="14px" text-anchor="middle">Enriched ai...</text></switch></g><path d="M 172.68 83.7 L 172.73 14 L 320 14 L 320 57.63" fill="none" stroke="rgb(0, 0, 0)" stroke-miterlimit="10" pointer-events="stroke"/><path d="M 320 62.88 L 316.5 55.88 L 320 57.63 L 323.5 55.88 Z" fill="rgb(0, 0, 0)" stroke="rgb(0, 0, 0)" stroke-miterlimit="10" pointer-events="all"/><rect x="230.33" y="-7.33" width="28" height="82.66" fill="none" stroke="none" transform="rotate(90,244.33,34)" pointer-events="all"/><g transform="translate(-0.5 -0.5)"><switch><foreignObject pointer-events="none" width="100%" height="100%" requiredFeatures="http://www.w3.org/TR/SVG11/feature#Extensibility" style="overflow: visible; text-align: left;"><div xmlns="http://www.w3.org/1999/xhtml" style="display: flex; align-items: unsafe center; justify-content: unsafe center; width: 81px; height: 1px; padding-top: 34px; margin-left: 204px;"><div data-drawio-colors="color: rgb(0, 0, 0); " style="box-sizing: border-box; font-size: 0px; text-align: center;"><div style="display: inline-block; font-size: 14px; font-family: Helvetica; color: rgb(0, 0, 0); line-height: 1.2; pointer-events: all; white-space: normal; overflow-wrap: normal;">Hydrogen and water</div></div></div></foreignObject><text x="244" y="38" fill="rgb(0, 0, 0)" font-family="Helvetica" font-size="14px" text-anchor="middle">Hydrogen and...</text></switch></g><rect x="233" y="244" width="28" height="28" fill="none" stroke="none" pointer-events="all"/><ellipse cx="247" cy="258" rx="14" ry="14" fill="rgb(255, 255, 255)" stroke="rgb(0, 0, 0)" pointer-events="all"/><path d="M 233 258 L 237.67 258 L 242.33 251 L 251.67 265 L 256.33 258 L 261 258" fill="none" stroke="rgb(0, 0, 0)" stroke-miterlimit="10" pointer-events="all"/><path d="M 319.64 201.68 L 319.87 237.63" fill="none" stroke="rgb(0, 0, 0)" stroke-miterlimit="10" pointer-events="stroke"/><path d="M 319.98 242.88 L 316.34 235.95 L 319.87 237.63 L 323.34 235.81 Z" fill="rgb(0, 0, 0)" stroke="rgb(0, 0, 0)" stroke-miterlimit="10" pointer-events="all"/><rect x="253.67" y="180.67" width="20" height="82.66" fill="none" stroke="none" transform="rotate(90,263.67,222)" pointer-events="all"/><g transform="translate(-0.5 -0.5)"><switch><foreignObject pointer-events="none" width="100%" height="100%" requiredFeatures="http://www.w3.org/TR/SVG11/feature#Extensibility" style="overflow: visible; text-align: left;"><div xmlns="http://www.w3.org/1999/xhtml" style="display: flex; align-items: unsafe center; justify-content: unsafe center; width: 81px; height: 1px; padding-top: 222px; margin-left: 223px;"><div data-drawio-colors="color: rgb(0, 0, 0); " style="box-sizing: border-box; font-size: 0px; text-align: center;"><div style="display: inline-block; font-size: 14px; font-family: Helvetica; color: rgb(0, 0, 0); line-height: 1.2; pointer-events: all; white-space: normal; overflow-wrap: normal;">Steam generator</div></div></div></foreignObject><text x="264" y="226" fill="rgb(0, 0, 0)" font-family="Helvetica" font-size="14px" text-anchor="middle">Steam genera...</text></switch></g><rect x="305" y="64" width="30" height="30" fill="none" stroke="none" pointer-events="all"/><ellipse cx="320" cy="79" rx="15" ry="15" fill="rgb(255, 255, 255)" stroke="rgb(0, 0, 0)" pointer-events="all"/><path d="M 305 79 L 310 79 L 315 71.5 L 325 86.5 L 330 79 L 335 79" fill="none" stroke="rgb(0, 0, 0)" stroke-miterlimit="10" pointer-events="all"/><path d="M 320 94 L 320 141.63" fill="none" stroke="rgb(0, 0, 0)" stroke-miterlimit="10" pointer-events="stroke"/><path d="M 320 146.88 L 316.5 139.88 L 320 141.63 L 323.5 139.88 Z" fill="rgb(0, 0, 0)" stroke="rgb(0, 0, 0)" stroke-miterlimit="10" pointer-events="all"/><rect x="373.33" y="106.67" width="28" height="82.66" fill="none" stroke="none" transform="rotate(90,387.33,148)" pointer-events="all"/><g transform="translate(-0.5 -0.5)"><switch><foreignObject pointer-events="none" width="100%" height="100%" requiredFeatures="http://www.w3.org/TR/SVG11/feature#Extensibility" style="overflow: visible; text-align: left;"><div xmlns="http://www.w3.org/1999/xhtml" style="display: flex; align-items: unsafe center; justify-content: unsafe center; width: 81px; height: 1px; padding-top: 148px; margin-left: 347px;"><div data-drawio-colors="color: rgb(0, 0, 0); " style="box-sizing: border-box; font-size: 0px; text-align: center;"><div style="display: inline-block; font-size: 14px; font-family: Helvetica; color: rgb(0, 0, 0); line-height: 1.2; pointer-events: all; white-space: normal; overflow-wrap: normal;">Hydrogen</div></div></div></foreignObject><text x="387" y="152" fill="rgb(0, 0, 0)" font-family="Helvetica" font-size="14px" text-anchor="middle">Hydrogen</text></switch></g><rect x="294" y="148" width="52" height="54" fill="none" stroke="none" pointer-events="all"/><path d="M 340 152.35 L 340 197.65 C 340 200.05 331.05 202 320 202 C 308.95 202 300 200.05 300 197.65 L 300 152.35 C 300 149.95 308.95 148 320 148 C 331.05 148 340 149.95 340 152.35 Z M 300 152.35 L 340 152.35 M 300 197.65 L 340 197.65" fill="rgb(255, 255, 255)" stroke="rgb(0, 0, 0)" stroke-miterlimit="10" pointer-events="all"/><rect x="294" y="163.68" width="6" height="1.7" fill="rgb(255, 255, 255)" stroke="rgb(0, 0, 0)" pointer-events="all"/><rect x="340" y="163.68" width="6" height="1.7" fill="rgb(255, 255, 255)" stroke="rgb(0, 0, 0)" pointer-events="all"/><path d="M 360 260 L 339.1 260" fill="none" stroke="rgb(0, 0, 0)" stroke-miterlimit="10" pointer-events="stroke"/><path d="M 333.85 260 L 340.85 256.5 L 339.1 260 L 340.85 263.5 Z" fill="rgb(0, 0, 0)" stroke="rgb(0, 0, 0)" stroke-miterlimit="10" pointer-events="all"/><path d="M 307 246 L 319.5 253.5 L 307 261 Z M 332 246 L 319.5 253.5 L 332 261 Z M 319.5 253.5 L 327 266 L 312 266 Z" fill="rgb(255, 255, 255)" stroke="rgb(0, 0, 0)" stroke-linejoin="round" stroke-miterlimit="10" transform="translate(0,256)scale(1,-1)translate(0,-256)" pointer-events="all"/><path d="M 346.26 165.44 L 406.63 165.07" fill="none" stroke="rgb(0, 0, 0)" stroke-miterlimit="10" pointer-events="stroke"/><path d="M 411.88 165.01 L 404.92 168.6 L 406.63 165.07 L 404.84 161.6 Z" fill="rgb(0, 0, 0)" stroke="rgb(0, 0, 0)" stroke-miterlimit="10" pointer-events="all"/><rect x="246.34" y="82" width="28" height="76" fill="none" stroke="none" transform="rotate(90,260.34,120)" pointer-events="all"/><g transform="translate(-0.5 -0.5)"><switch><foreignObject pointer-events="none" width="100%" height="100%" requiredFeatures="http://www.w3.org/TR/SVG11/feature#Extensibility" style="overflow: visible; text-align: left;"><div xmlns="http://www.w3.org/1999/xhtml" style="display: flex; align-items: unsafe center; justify-content: unsafe center; width: 74px; height: 1px; padding-top: 120px; margin-left: 223px;"><div data-drawio-colors="color: rgb(0, 0, 0); " style="box-sizing: border-box; font-size: 0px; text-align: center;"><div style="display: inline-block; font-size: 14px; font-family: Helvetica; color: rgb(0, 0, 0); line-height: 1.2; pointer-events: all; white-space: normal; overflow-wrap: normal;">Solid oxide Electrolyzer</div></div></div></foreignObject><text x="260" y="124" fill="rgb(0, 0, 0)" font-family="Helvetica" font-size="14px" text-anchor="middle">Solid oxide...</text></switch></g><path d="M 306.25 258.54 L 267.37 258.13" fill="none" stroke="rgb(0, 0, 0)" stroke-miterlimit="10" pointer-events="stroke"/><path d="M 262.12 258.02 L 269.19 254.67 L 267.37 258.13 L 269.04 261.67 Z" fill="rgb(0, 0, 0)" stroke="rgb(0, 0, 0)" stroke-miterlimit="10" pointer-events="all"/><rect x="44" y="246" width="28" height="28" fill="none" stroke="none" pointer-events="all"/><ellipse cx="58" cy="260" rx="14" ry="14" fill="rgb(255, 255, 255)" stroke="rgb(0, 0, 0)" pointer-events="all"/><path d="M 44 260 L 48.67 260 L 53.33 253 L 62.67 267 L 67.33 260 L 72 260" fill="none" stroke="rgb(0, 0, 0)" stroke-miterlimit="10" pointer-events="all"/><rect x="44" y="0" width="28" height="28" fill="none" stroke="none" pointer-events="all"/><ellipse cx="58" cy="14" rx="14" ry="14" fill="rgb(255, 255, 255)" stroke="rgb(0, 0, 0)" pointer-events="all"/><path d="M 44 14 L 48.67 14 L 53.33 7 L 62.67 21 L 67.33 14 L 72 14" fill="none" stroke="rgb(0, 0, 0)" stroke-miterlimit="10" pointer-events="all"/><rect x="359" y="20" width="28" height="76" fill="none" stroke="none" transform="rotate(90,373,58)" pointer-events="all"/><g transform="translate(-0.5 -0.5)"><switch><foreignObject pointer-events="none" width="100%" height="100%" requiredFeatures="http://www.w3.org/TR/SVG11/feature#Extensibility" style="overflow: visible; text-align: left;"><div xmlns="http://www.w3.org/1999/xhtml" style="display: flex; align-items: unsafe center; justify-content: unsafe center; width: 74px; height: 1px; padding-top: 58px; margin-left: 336px;"><div data-drawio-colors="color: rgb(0, 0, 0); " style="box-sizing: border-box; font-size: 0px; text-align: center;"><div style="display: inline-block; font-size: 14px; font-family: Helvetica; color: rgb(0, 0, 0); line-height: 1.2; pointer-events: all; white-space: normal; overflow-wrap: normal;">Water condenser</div></div></div></foreignObject><text x="373" y="62" fill="rgb(0, 0, 0)" font-family="Helvetica" font-size="14px" text-anchor="middle">Water conde...</text></switch></g></g><switch><g requiredFeatures="http://www.w3.org/TR/SVG11/feature#Extensibility"/><a transform="translate(0,-5)" xlink:href="https://www.diagrams.net/doc/faq/svg-export-text-problems" target="_blank"><text text-anchor="middle" font-size="10px" x="50%" y="100%">Text is not SVG - cannot display</text></a></switch></svg>