<?xml version='1.0' encoding='utf-8'?>
<svg xmlns="http://www.w3.org/2000/svg" width="2005" height="805" viewBox="0 30 2005 805"><defs><marker id="arrowIn" markerWidth="10" markerHeight="10" refX="9" refY="3" orient="auto" markerUnits="strokeWidth"><path d="M0,0 L0,6 L9,3 z" fill="#000" /></marker><marker id="arrowOut" markerWidth="10" markerHeight="10" refX="9" refY="3" orient="auto" markerUnits="strokeWidth"><path d="M0,0 L0,6 L9,3 z" fill="#000" /></marker></defs><rect x="0" y="30" width="2005" height="805" fill="white" /><g transform="translate(620.0, 110.0) scale(2.375)"><rect x="10" y="10" width="300" height="140" rx="8" ry="8" fill="#EFF6FF" stroke="#2563EB" stroke-width="2.5" />
  
  <rect x="10" y="10" width="300" height="30" rx="8" ry="8" fill="#2563EB" />
  <rect x="10" y="28" width="300" height="12" fill="#2563EB" />
  
  <circle cx="160" cy="105" r="28" fill="none" stroke="#2563EB" stroke-width="2" />
  <circle cx="160" cy="105" r="12" fill="#2563EB" opacity="0.25" />
  <line x1="160" y1="73" x2="160" y2="137" stroke="#2563EB" stroke-width="2" />
  <line x1="128" y1="105" x2="192" y2="105" stroke="#2563EB" stroke-width="2" />
  <line x1="136" y1="81" x2="184" y2="129" stroke="#2563EB" stroke-width="2" />
  <line x1="184" y1="81" x2="136" y2="129" stroke="#2563EB" stroke-width="2" />
  
  <text x="160" y="32" text-anchor="middle" font-family="Arial, Helvetica, sans-serif" font-size="13" font-weight="600" fill="white">SOECmodel</text>
</g><rect x="590.0" y="80.0" width="820.0" height="440" fill="none" stroke="#666" stroke-width="2" stroke-dasharray="5,5" rx="10" /><text x="1002.5" y="60.0" text-anchor="middle" font-size="24" font-weight="bold" fill="#333">SOECmodel - Block Flow Diagram</text><rect x="55" y="125" width="200" height="50" fill="white" stroke="#2563eb" stroke-width="1" rx="5" /><text x="155" y="145" text-anchor="middle" font-size="14" font-weight="bold" fill="#2563eb">Water_SOEC_in</text><text x="155" y="162" text-anchor="middle" font-size="12" fill="#555">10.78 {'value': 'kg/h', 'formula': '=massflow_H2O_in'}</text><line x1="255" y1="150" x2="590.0" y2="150" stroke="#2563eb" stroke-width="2" marker-end="url(#arrowIn)" /><rect x="55" y="225" width="200" height="50" fill="white" stroke="#2563eb" stroke-width="1" rx="5" /><text x="155" y="245" text-anchor="middle" font-size="14" font-weight="bold" fill="#2563eb">Air_in</text><text x="155" y="262" text-anchor="middle" font-size="12" fill="#555">55.66 {'value': 'kg/h', 'formula': '=massflow_Air'}</text><line x1="255" y1="250" x2="590.0" y2="250" stroke="#2563eb" stroke-width="2" marker-end="url(#arrowIn)" /><rect x="55" y="325" width="200" height="50" fill="white" stroke="#2563eb" stroke-width="1" rx="5" /><text x="155" y="345" text-anchor="middle" font-size="14" font-weight="bold" fill="#2563eb">Elec_SOEC_in</text><text x="155" y="362" text-anchor="middle" font-size="12" fill="#555">34.22 {'value': 'kW', 'formula': '=E_SOECElec'}</text><line x1="255" y1="350" x2="590.0" y2="350" stroke="#2563eb" stroke-width="2" marker-end="url(#arrowIn)" /><rect x="55" y="425" width="200" height="50" fill="white" stroke="#2563eb" stroke-width="1" rx="5" /><text x="155" y="445" text-anchor="middle" font-size="14" font-weight="bold" fill="#2563eb">Water_balance</text><text x="155" y="462" text-anchor="middle" font-size="12" fill="#555">0.01 {'value': 'm3/h', 'formula': '=massflow_H2O_balance'}</text><line x1="255" y1="450" x2="590.0" y2="450" stroke="#2563eb" stroke-width="2" marker-end="url(#arrowIn)" /><line x1="1410.0" y1="200" x2="1755" y2="200" stroke="#dc2626" stroke-width="2" marker-end="url(#arrowOut)" /><rect x="1760" y="175" width="200" height="50" fill="white" stroke="#dc2626" stroke-width="1" rx="5" /><text x="1860" y="195" text-anchor="middle" font-size="14" font-weight="bold" fill="#dc2626">H2_SOEC_out</text><text x="1860" y="212" text-anchor="middle" font-size="12" fill="#555">1.00 {'value': 'kg/h', 'formula': '=massflow_H2_out'}</text><line x1="1410.0" y1="300" x2="1755" y2="300" stroke="#dc2626" stroke-width="2" marker-end="url(#arrowOut)" /><rect x="1760" y="275" width="200" height="50" fill="white" stroke="#dc2626" stroke-width="1" rx="5" /><text x="1860" y="295" text-anchor="middle" font-size="14" font-weight="bold" fill="#dc2626">Water_SOEC_out</text><text x="1860" y="312" text-anchor="middle" font-size="12" fill="#555">1.84 {'value': 'kg/h', 'formula': '=massflow_H2O_out'}</text><line x1="1410.0" y1="400" x2="1755" y2="400" stroke="#dc2626" stroke-width="2" marker-end="url(#arrowOut)" /><rect x="1760" y="375" width="200" height="50" fill="white" stroke="#dc2626" stroke-width="1" rx="5" /><text x="1860" y="395" text-anchor="middle" font-size="14" font-weight="bold" fill="#dc2626">Enrair_SOECELec_out</text><text x="1860" y="412" text-anchor="middle" font-size="12" fill="#555">63.59 {'value': 'kg/h', 'formula': '=massflow_O2_N2'}</text><text x="516.25" y="560.0" text-anchor="middle" font-size="16" font-weight="bold" fill="#dc2626">Hot Streams</text><rect x="50" y="580.0" width="932.5" height="35" fill="#e5e7eb" stroke="#333" stroke-width="1" /><text x="166.5625" y="602.5" text-anchor="middle" font-size="14" font-weight="bold" fill="#333">Name</text><line x1="283.125" y1="580.0" x2="283.125" y2="615.0" stroke="#333" stroke-width="1" /><text x="370.546875" y="602.5" text-anchor="middle" font-size="14" font-weight="bold" fill="#333">T in [°C]</text><line x1="457.96875" y1="580.0" x2="457.96875" y2="615.0" stroke="#333" stroke-width="1" /><text x="545.390625" y="602.5" text-anchor="middle" font-size="14" font-weight="bold" fill="#333">T out [°C]</text><line x1="632.8125" y1="580.0" x2="632.8125" y2="615.0" stroke="#333" stroke-width="1" /><text x="720.234375" y="602.5" text-anchor="middle" font-size="14" font-weight="bold" fill="#333">H in [kW]</text><line x1="807.65625" y1="580.0" x2="807.65625" y2="615.0" stroke="#333" stroke-width="1" /><text x="895.078125" y="602.5" text-anchor="middle" font-size="14" font-weight="bold" fill="#333">H out [kW]</text><rect x="50" y="615.0" width="932.5" height="30" fill="#fee2e2" stroke="#333" stroke-width="1" /><text x="166.5625" y="635.0" text-anchor="middle" font-size="13" font-weight="normal" fill="#333">q_105</text><line x1="283.125" y1="615.0" x2="283.125" y2="645.0" stroke="#333" stroke-width="1" /><text x="370.546875" y="635.0" text-anchor="middle" font-size="13" font-weight="normal" fill="#333">712.00</text><line x1="457.96875" y1="615.0" x2="457.96875" y2="645.0" stroke="#333" stroke-width="1" /><text x="545.390625" y="635.0" text-anchor="middle" font-size="13" font-weight="normal" fill="#333">25.00</text><line x1="632.8125" y1="615.0" x2="632.8125" y2="645.0" stroke="#333" stroke-width="1" /><text x="720.234375" y="635.0" text-anchor="middle" font-size="13" font-weight="normal" fill="#333">0.00</text><line x1="807.65625" y1="615.0" x2="807.65625" y2="645.0" stroke="#333" stroke-width="1" /><text x="895.078125" y="635.0" text-anchor="middle" font-size="13" font-weight="normal" fill="#333">-12.90</text><rect x="50" y="645.0" width="932.5" height="30" fill="#fee2e2" stroke="#333" stroke-width="1" /><text x="166.5625" y="665.0" text-anchor="middle" font-size="13" font-weight="normal" fill="#333">q_106</text><line x1="283.125" y1="645.0" x2="283.125" y2="675.0" stroke="#333" stroke-width="1" /><text x="370.546875" y="665.0" text-anchor="middle" font-size="13" font-weight="normal" fill="#333">800.00</text><line x1="457.96875" y1="645.0" x2="457.96875" y2="675.0" stroke="#333" stroke-width="1" /><text x="545.390625" y="665.0" text-anchor="middle" font-size="13" font-weight="normal" fill="#333">200.00</text><line x1="632.8125" y1="645.0" x2="632.8125" y2="675.0" stroke="#333" stroke-width="1" /><text x="720.234375" y="665.0" text-anchor="middle" font-size="13" font-weight="normal" fill="#333">0.00</text><line x1="807.65625" y1="645.0" x2="807.65625" y2="675.0" stroke="#333" stroke-width="1" /><text x="895.078125" y="665.0" text-anchor="middle" font-size="13" font-weight="normal" fill="#333">-3.11</text><rect x="50" y="675.0" width="932.5" height="30" fill="#fee2e2" stroke="#333" stroke-width="1" /><text x="166.5625" y="695.0" text-anchor="middle" font-size="13" font-weight="normal" fill="#333">q_107</text><line x1="283.125" y1="675.0" x2="283.125" y2="705.0" stroke="#333" stroke-width="1" /><text x="370.546875" y="695.0" text-anchor="middle" font-size="13" font-weight="normal" fill="#333">200.00</text><line x1="457.96875" y1="675.0" x2="457.96875" y2="705.0" stroke="#333" stroke-width="1" /><text x="545.390625" y="695.0" text-anchor="middle" font-size="13" font-weight="normal" fill="#333">100.00</text><line x1="632.8125" y1="675.0" x2="632.8125" y2="705.0" stroke="#333" stroke-width="1" /><text x="720.234375" y="695.0" text-anchor="middle" font-size="13" font-weight="normal" fill="#333">0.00</text><line x1="807.65625" y1="675.0" x2="807.65625" y2="705.0" stroke="#333" stroke-width="1" /><text x="895.078125" y="695.0" text-anchor="middle" font-size="13" font-weight="normal" fill="#333">-0.50</text><rect x="50" y="705.0" width="932.5" height="30" fill="#fee2e2" stroke="#333" stroke-width="1" /><text x="166.5625" y="725.0" text-anchor="middle" font-size="13" font-weight="normal" fill="#333">q_108</text><line x1="283.125" y1="705.0" x2="283.125" y2="735.0" stroke="#333" stroke-width="1" /><text x="370.546875" y="725.0" text-anchor="middle" font-size="13" font-weight="normal" fill="#333">100.00</text><line x1="457.96875" y1="705.0" x2="457.96875" y2="735.0" stroke="#333" stroke-width="1" /><text x="545.390625" y="725.0" text-anchor="middle" font-size="13" font-weight="normal" fill="#333">60.00</text><line x1="632.8125" y1="705.0" x2="632.8125" y2="735.0" stroke="#333" stroke-width="1" /><text x="720.234375" y="725.0" text-anchor="middle" font-size="13" font-weight="normal" fill="#333">0.00</text><line x1="807.65625" y1="705.0" x2="807.65625" y2="735.0" stroke="#333" stroke-width="1" /><text x="895.078125" y="725.0" text-anchor="middle" font-size="13" font-weight="normal" fill="#333">-0.20</text><rect x="50" y="735.0" width="932.5" height="30" fill="#fee2e2" stroke="#333" stroke-width="1" /><text x="166.5625" y="755.0" text-anchor="middle" font-size="13" font-weight="normal" fill="#333">q_109</text><line x1="283.125" y1="735.0" x2="283.125" y2="765.0" stroke="#333" stroke-width="1" /><text x="370.546875" y="755.0" text-anchor="middle" font-size="13" font-weight="normal" fill="#333">60.00</text><line x1="457.96875" y1="735.0" x2="457.96875" y2="765.0" stroke="#333" stroke-width="1" /><text x="545.390625" y="755.0" text-anchor="middle" font-size="13" font-weight="normal" fill="#333">25.00</text><line x1="632.8125" y1="735.0" x2="632.8125" y2="765.0" stroke="#333" stroke-width="1" /><text x="720.234375" y="755.0" text-anchor="middle" font-size="13" font-weight="normal" fill="#333">0.00</text><line x1="807.65625" y1="735.0" x2="807.65625" y2="765.0" stroke="#333" stroke-width="1" /><text x="895.078125" y="755.0" text-anchor="middle" font-size="13" font-weight="normal" fill="#333">-1.23</text><text x="1488.75" y="560.0" text-anchor="middle" font-size="16" font-weight="bold" fill="#2563eb">Cold Streams</text><rect x="1022.5" y="580.0" width="932.5" height="35" fill="#e5e7eb" stroke="#333" stroke-width="1" /><text x="1139.0625" y="602.5" text-anchor="middle" font-size="14" font-weight="bold" fill="#333">Name</text><line x1="1255.625" y1="580.0" x2="1255.625" y2="615.0" stroke="#333" stroke-width="1" /><text x="1343.046875" y="602.5" text-anchor="middle" font-size="14" font-weight="bold" fill="#333">T in [°C]</text><line x1="1430.46875" y1="580.0" x2="1430.46875" y2="615.0" stroke="#333" stroke-width="1" /><text x="1517.890625" y="602.5" text-anchor="middle" font-size="14" font-weight="bold" fill="#333">T out [°C]</text><line x1="1605.3125" y1="580.0" x2="1605.3125" y2="615.0" stroke="#333" stroke-width="1" /><text x="1692.734375" y="602.5" text-anchor="middle" font-size="14" font-weight="bold" fill="#333">H in [kW]</text><line x1="1780.15625" y1="580.0" x2="1780.15625" y2="615.0" stroke="#333" stroke-width="1" /><text x="1867.578125" y="602.5" text-anchor="middle" font-size="14" font-weight="bold" fill="#333">H out [kW]</text><rect x="1022.5" y="615.0" width="932.5" height="30" fill="#dbeafe" stroke="#333" stroke-width="1" /><text x="1139.0625" y="635.0" text-anchor="middle" font-size="13" font-weight="normal" fill="#333">q_101</text><line x1="1255.625" y1="615.0" x2="1255.625" y2="645.0" stroke="#333" stroke-width="1" /><text x="1343.046875" y="635.0" text-anchor="middle" font-size="13" font-weight="normal" fill="#333">25.00</text><line x1="1430.46875" y1="615.0" x2="1430.46875" y2="645.0" stroke="#333" stroke-width="1" /><text x="1517.890625" y="635.0" text-anchor="middle" font-size="13" font-weight="normal" fill="#333">700.00</text><line x1="1605.3125" y1="615.0" x2="1605.3125" y2="645.0" stroke="#333" stroke-width="1" /><text x="1692.734375" y="635.0" text-anchor="middle" font-size="13" font-weight="normal" fill="#333">0.00</text><line x1="1780.15625" y1="615.0" x2="1780.15625" y2="645.0" stroke="#333" stroke-width="1" /><text x="1867.578125" y="635.0" text-anchor="middle" font-size="13" font-weight="normal" fill="#333">11.16</text><rect x="1022.5" y="645.0" width="932.5" height="30" fill="#dbeafe" stroke="#333" stroke-width="1" /><text x="1139.0625" y="665.0" text-anchor="middle" font-size="13" font-weight="normal" fill="#333">q_102</text><line x1="1255.625" y1="645.0" x2="1255.625" y2="675.0" stroke="#333" stroke-width="1" /><text x="1343.046875" y="665.0" text-anchor="middle" font-size="13" font-weight="normal" fill="#333">25.00</text><line x1="1430.46875" y1="645.0" x2="1430.46875" y2="675.0" stroke="#333" stroke-width="1" /><text x="1517.890625" y="665.0" text-anchor="middle" font-size="13" font-weight="normal" fill="#333">99.00</text><line x1="1605.3125" y1="645.0" x2="1605.3125" y2="675.0" stroke="#333" stroke-width="1" /><text x="1692.734375" y="665.0" text-anchor="middle" font-size="13" font-weight="normal" fill="#333">0.00</text><line x1="1780.15625" y1="645.0" x2="1780.15625" y2="675.0" stroke="#333" stroke-width="1" /><text x="1867.578125" y="665.0" text-anchor="middle" font-size="13" font-weight="normal" fill="#333">0.95</text><rect x="1022.5" y="675.0" width="932.5" height="30" fill="#dbeafe" stroke="#333" stroke-width="1" /><text x="1139.0625" y="695.0" text-anchor="middle" font-size="13" font-weight="normal" fill="#333">q_103</text><line x1="1255.625" y1="675.0" x2="1255.625" y2="705.0" stroke="#333" stroke-width="1" /><text x="1343.046875" y="695.0" text-anchor="middle" font-size="13" font-weight="normal" fill="#333">99.00</text><line x1="1430.46875" y1="675.0" x2="1430.46875" y2="705.0" stroke="#333" stroke-width="1" /><text x="1517.890625" y="695.0" text-anchor="middle" font-size="13" font-weight="normal" fill="#333">99.64</text><line x1="1605.3125" y1="675.0" x2="1605.3125" y2="705.0" stroke="#333" stroke-width="1" /><text x="1692.734375" y="695.0" text-anchor="middle" font-size="13" font-weight="normal" fill="#333">0.00</text><line x1="1780.15625" y1="675.0" x2="1780.15625" y2="705.0" stroke="#333" stroke-width="1" /><text x="1867.578125" y="695.0" text-anchor="middle" font-size="13" font-weight="normal" fill="#333">6.77</text><rect x="1022.5" y="705.0" width="932.5" height="30" fill="#dbeafe" stroke="#333" stroke-width="1" /><text x="1139.0625" y="725.0" text-anchor="middle" font-size="13" font-weight="normal" fill="#333">q_104</text><line x1="1255.625" y1="705.0" x2="1255.625" y2="735.0" stroke="#333" stroke-width="1" /><text x="1343.046875" y="725.0" text-anchor="middle" font-size="13" font-weight="normal" fill="#333">99.64</text><line x1="1430.46875" y1="705.0" x2="1430.46875" y2="735.0" stroke="#333" stroke-width="1" /><text x="1517.890625" y="725.0" text-anchor="middle" font-size="13" font-weight="normal" fill="#333">800.00</text><line x1="1605.3125" y1="705.0" x2="1605.3125" y2="735.0" stroke="#333" stroke-width="1" /><text x="1692.734375" y="725.0" text-anchor="middle" font-size="13" font-weight="normal" fill="#333">0.00</text><line x1="1780.15625" y1="705.0" x2="1780.15625" y2="735.0" stroke="#333" stroke-width="1" /><text x="1867.578125" y="725.0" text-anchor="middle" font-size="13" font-weight="normal" fill="#333">4.41</text></svg>