<?xml version='1.0' encoding='utf-8'?>
<svg xmlns="http://www.w3.org/2000/svg" width="2005" height="1675" viewBox="0 55 2005 1675"><defs><marker id="arrowIn" markerWidth="10" markerHeight="10" refX="9" refY="3" orient="auto" markerUnits="strokeWidth"><path d="M0,0 L0,6 L9,3 z" fill="#000" /></marker><marker id="arrowOut" markerWidth="10" markerHeight="10" refX="9" refY="3" orient="auto" markerUnits="strokeWidth"><path d="M0,0 L0,6 L9,3 z" fill="#000" /></marker></defs><rect x="0" y="55" width="2005" height="1675" fill="white" /><g transform="translate(560.0, 330.0) scale(2.75)"><rect x="10" y="10" width="300" height="140" rx="8" ry="8" fill="#EFF6FF" stroke="#2563EB" stroke-width="2.5" />
  
  <rect x="10" y="10" width="300" height="30" rx="8" ry="8" fill="#2563EB" />
  <rect x="10" y="28" width="300" height="12" fill="#2563EB" />
  
  <circle cx="160" cy="105" r="28" fill="none" stroke="#2563EB" stroke-width="2" />
  <circle cx="160" cy="105" r="12" fill="#2563EB" opacity="0.25" />
  <line x1="160" y1="73" x2="160" y2="137" stroke="#2563EB" stroke-width="2" />
  <line x1="128" y1="105" x2="192" y2="105" stroke="#2563EB" stroke-width="2" />
  <line x1="136" y1="81" x2="184" y2="129" stroke="#2563EB" stroke-width="2" />
  <line x1="184" y1="81" x2="136" y2="129" stroke="#2563EB" stroke-width="2" />
  
  <text x="160" y="32" text-anchor="middle" font-family="Arial, Helvetica, sans-serif" font-size="13" font-weight="600" fill="white">CryoASUnit</text>
</g><rect x="530.0" y="105.0" width="940" height="890" fill="none" stroke="#666" stroke-width="2" stroke-dasharray="5,5" rx="10" /><text x="1002.5" y="85.0" text-anchor="middle" font-size="24" font-weight="bold" fill="#333">CryoASUnit - Block Flow Diagram</text><rect x="55" y="125" width="200" height="50" fill="white" stroke="#2563eb" stroke-width="1" rx="5" /><text x="155" y="145" text-anchor="middle" font-size="14" font-weight="bold" fill="#2563eb">Electricity</text><text x="155" y="162" text-anchor="middle" font-size="12" fill="#555">6,054.17 kW</text><line x1="255" y1="150" x2="530.0" y2="150" stroke="#2563eb" stroke-width="2" marker-end="url(#arrowIn)" /><rect x="55" y="225" width="200" height="50" fill="white" stroke="#2563eb" stroke-width="1" rx="5" /><text x="155" y="245" text-anchor="middle" font-size="14" font-weight="bold" fill="#2563eb">Electricity</text><text x="155" y="262" text-anchor="middle" font-size="12" fill="#555">5,753.00 kW</text><line x1="255" y1="250" x2="530.0" y2="250" stroke="#2563eb" stroke-width="2" marker-end="url(#arrowIn)" /><rect x="55" y="325" width="200" height="50" fill="white" stroke="#2563eb" stroke-width="1" rx="5" /><text x="155" y="345" text-anchor="middle" font-size="14" font-weight="bold" fill="#2563eb">Nitrovent</text><text x="155" y="362" text-anchor="middle" font-size="12" fill="#555">86,417.20 kg/h</text><line x1="255" y1="350" x2="530.0" y2="350" stroke="#2563eb" stroke-width="2" marker-end="url(#arrowIn)" /><rect x="55" y="425" width="200" height="50" fill="white" stroke="#2563eb" stroke-width="1" rx="5" /><text x="155" y="445" text-anchor="middle" font-size="14" font-weight="bold" fill="#2563eb">Electricity</text><text x="155" y="462" text-anchor="middle" font-size="12" fill="#555">18,776.00 kW</text><line x1="255" y1="450" x2="530.0" y2="450" stroke="#2563eb" stroke-width="2" marker-end="url(#arrowIn)" /><rect x="55" y="525" width="200" height="50" fill="white" stroke="#2563eb" stroke-width="1" rx="5" /><text x="155" y="545" text-anchor="middle" font-size="14" font-weight="bold" fill="#2563eb">Nitrovent</text><text x="155" y="562" text-anchor="middle" font-size="12" fill="#555">86,417.20 kg/h</text><line x1="255" y1="550" x2="530.0" y2="550" stroke="#2563eb" stroke-width="2" marker-end="url(#arrowIn)" /><rect x="55" y="625" width="200" height="50" fill="white" stroke="#2563eb" stroke-width="1" rx="5" /><text x="155" y="645" text-anchor="middle" font-size="14" font-weight="bold" fill="#2563eb">Electricity</text><text x="155" y="662" text-anchor="middle" font-size="12" fill="#555">2,280.80 kW</text><line x1="255" y1="650" x2="530.0" y2="650" stroke="#2563eb" stroke-width="2" marker-end="url(#arrowIn)" /><rect x="55" y="725" width="200" height="50" fill="white" stroke="#2563eb" stroke-width="1" rx="5" /><text x="155" y="745" text-anchor="middle" font-size="14" font-weight="bold" fill="#2563eb">Oxyvent</text><text x="155" y="762" text-anchor="middle" font-size="12" fill="#555">21,025.81 kg/h</text><line x1="255" y1="750" x2="530.0" y2="750" stroke="#2563eb" stroke-width="2" marker-end="url(#arrowIn)" /><rect x="55" y="825" width="200" height="50" fill="white" stroke="#2563eb" stroke-width="1" rx="5" /><text x="155" y="845" text-anchor="middle" font-size="14" font-weight="bold" fill="#2563eb">Electricity</text><text x="155" y="862" text-anchor="middle" font-size="12" fill="#555">3,767.40 kW</text><line x1="255" y1="850" x2="530.0" y2="850" stroke="#2563eb" stroke-width="2" marker-end="url(#arrowIn)" /><rect x="55" y="925" width="200" height="50" fill="white" stroke="#2563eb" stroke-width="1" rx="5" /><text x="155" y="945" text-anchor="middle" font-size="14" font-weight="bold" fill="#2563eb">Oxyvent</text><text x="155" y="962" text-anchor="middle" font-size="12" fill="#555">21,025.81 kg/h</text><line x1="255" y1="950" x2="530.0" y2="950" stroke="#2563eb" stroke-width="2" marker-end="url(#arrowIn)" /><line x1="1470.0" y1="300" x2="1755" y2="300" stroke="#dc2626" stroke-width="2" marker-end="url(#arrowOut)" /><rect x="1760" y="275" width="200" height="50" fill="white" stroke="#dc2626" stroke-width="1" rx="5" /><text x="1860" y="295" text-anchor="middle" font-size="14" font-weight="bold" fill="#dc2626">Oxyvent</text><text x="1860" y="312" text-anchor="middle" font-size="12" fill="#555">21,025.81 kg/h</text><line x1="1470.0" y1="400" x2="1755" y2="400" stroke="#dc2626" stroke-width="2" marker-end="url(#arrowOut)" /><rect x="1760" y="375" width="200" height="50" fill="white" stroke="#dc2626" stroke-width="1" rx="5" /><text x="1860" y="395" text-anchor="middle" font-size="14" font-weight="bold" fill="#dc2626">Nitrovent</text><text x="1860" y="412" text-anchor="middle" font-size="12" fill="#555">86,417.20 kg/h</text><line x1="1470.0" y1="500" x2="1755" y2="500" stroke="#dc2626" stroke-width="2" marker-end="url(#arrowOut)" /><rect x="1760" y="475" width="200" height="50" fill="white" stroke="#dc2626" stroke-width="1" rx="5" /><text x="1860" y="495" text-anchor="middle" font-size="14" font-weight="bold" fill="#dc2626">Nitroplasma</text><text x="1860" y="512" text-anchor="middle" font-size="12" fill="#555">86,417.20 kg/h</text><line x1="1470.0" y1="600" x2="1755" y2="600" stroke="#dc2626" stroke-width="2" marker-end="url(#arrowOut)" /><rect x="1760" y="575" width="200" height="50" fill="white" stroke="#dc2626" stroke-width="1" rx="5" /><text x="1860" y="595" text-anchor="middle" font-size="14" font-weight="bold" fill="#dc2626">Nitrogen</text><text x="1860" y="612" text-anchor="middle" font-size="12" fill="#555">86,417.20 kg/h</text><line x1="1470.0" y1="700" x2="1755" y2="700" stroke="#dc2626" stroke-width="2" marker-end="url(#arrowOut)" /><rect x="1760" y="675" width="200" height="50" fill="white" stroke="#dc2626" stroke-width="1" rx="5" /><text x="1860" y="695" text-anchor="middle" font-size="14" font-weight="bold" fill="#dc2626">Oxyprocess</text><text x="1860" y="712" text-anchor="middle" font-size="12" fill="#555">21,025.81 kg/h</text><line x1="1470.0" y1="800" x2="1755" y2="800" stroke="#dc2626" stroke-width="2" marker-end="url(#arrowOut)" /><rect x="1760" y="775" width="200" height="50" fill="white" stroke="#dc2626" stroke-width="1" rx="5" /><text x="1860" y="795" text-anchor="middle" font-size="14" font-weight="bold" fill="#dc2626">Oxygen</text><text x="1860" y="812" text-anchor="middle" font-size="12" fill="#555">21,025.81 kg/h</text><text x="1002.5" y="1035.0" text-anchor="middle" font-size="16" font-weight="bold" fill="#dc2626">Hot Streams</text><rect x="602.5" y="1055.0" width="800" height="35" fill="#e5e7eb" stroke="#333" stroke-width="1" /><text x="702.5" y="1077.5" text-anchor="middle" font-size="12" font-weight="bold" fill="#333">Name</text><line x1="802.5" y1="1055.0" x2="802.5" y2="1090.0" stroke="#333" stroke-width="1" /><text x="877.5" y="1077.5" text-anchor="middle" font-size="12" font-weight="bold" fill="#333">T inlet [°C]</text><line x1="952.5" y1="1055.0" x2="952.5" y2="1090.0" stroke="#333" stroke-width="1" /><text x="1027.5" y="1077.5" text-anchor="middle" font-size="12" font-weight="bold" fill="#333">T outlet [°C]</text><line x1="1102.5" y1="1055.0" x2="1102.5" y2="1090.0" stroke="#333" stroke-width="1" /><text x="1177.5" y="1077.5" text-anchor="middle" font-size="12" font-weight="bold" fill="#333">H inlet [kW]</text><line x1="1252.5" y1="1055.0" x2="1252.5" y2="1090.0" stroke="#333" stroke-width="1" /><text x="1327.5" y="1077.5" text-anchor="middle" font-size="12" font-weight="bold" fill="#333">H outlet [kW]</text><rect x="602.5" y="1090.0" width="800" height="30" fill="#fee2e2" stroke="#333" stroke-width="1" /><text x="702.5" y="1110.0" text-anchor="middle" font-size="11" font-weight="normal" fill="#333">heatexchanger1</text><line x1="802.5" y1="1090.0" x2="802.5" y2="1120.0" stroke="#333" stroke-width="1" /><text x="877.5" y="1110.0" text-anchor="middle" font-size="11" font-weight="normal" fill="#333">77.95</text><line x1="952.5" y1="1090.0" x2="952.5" y2="1120.0" stroke="#333" stroke-width="1" /><text x="1027.5" y="1110.0" text-anchor="middle" font-size="11" font-weight="normal" fill="#333">40.00</text><line x1="1102.5" y1="1090.0" x2="1102.5" y2="1120.0" stroke="#333" stroke-width="1" /><text x="1177.5" y="1110.0" text-anchor="middle" font-size="11" font-weight="normal" fill="#333">1,223.34</text><line x1="1252.5" y1="1090.0" x2="1252.5" y2="1120.0" stroke="#333" stroke-width="1" /><text x="1327.5" y="1110.0" text-anchor="middle" font-size="11" font-weight="normal" fill="#333">0.00</text><rect x="602.5" y="1120.0" width="800" height="30" fill="#fee2e2" stroke="#333" stroke-width="1" /><text x="702.5" y="1140.0" text-anchor="middle" font-size="11" font-weight="normal" fill="#333">heatexchanger2</text><line x1="802.5" y1="1120.0" x2="802.5" y2="1150.0" stroke="#333" stroke-width="1" /><text x="877.5" y="1140.0" text-anchor="middle" font-size="11" font-weight="normal" fill="#333">96.72</text><line x1="952.5" y1="1120.0" x2="952.5" y2="1150.0" stroke="#333" stroke-width="1" /><text x="1027.5" y="1140.0" text-anchor="middle" font-size="11" font-weight="normal" fill="#333">40.00</text><line x1="1102.5" y1="1120.0" x2="1102.5" y2="1150.0" stroke="#333" stroke-width="1" /><text x="1177.5" y="1140.0" text-anchor="middle" font-size="11" font-weight="normal" fill="#333">1,834.63</text><line x1="1252.5" y1="1120.0" x2="1252.5" y2="1150.0" stroke="#333" stroke-width="1" /><text x="1327.5" y="1140.0" text-anchor="middle" font-size="11" font-weight="normal" fill="#333">0.00</text><rect x="602.5" y="1150.0" width="800" height="30" fill="#fee2e2" stroke="#333" stroke-width="1" /><text x="702.5" y="1170.0" text-anchor="middle" font-size="11" font-weight="normal" fill="#333">heatexchanger3</text><line x1="802.5" y1="1150.0" x2="802.5" y2="1180.0" stroke="#333" stroke-width="1" /><text x="877.5" y="1170.0" text-anchor="middle" font-size="11" font-weight="normal" fill="#333">96.33</text><line x1="952.5" y1="1150.0" x2="952.5" y2="1180.0" stroke="#333" stroke-width="1" /><text x="1027.5" y="1170.0" text-anchor="middle" font-size="11" font-weight="normal" fill="#333">40.00</text><line x1="1102.5" y1="1150.0" x2="1102.5" y2="1180.0" stroke="#333" stroke-width="1" /><text x="1177.5" y="1170.0" text-anchor="middle" font-size="11" font-weight="normal" fill="#333">1,826.33</text><line x1="1252.5" y1="1150.0" x2="1252.5" y2="1180.0" stroke="#333" stroke-width="1" /><text x="1327.5" y="1170.0" text-anchor="middle" font-size="11" font-weight="normal" fill="#333">0.00</text><rect x="602.5" y="1180.0" width="800" height="30" fill="#fee2e2" stroke="#333" stroke-width="1" /><text x="702.5" y="1200.0" text-anchor="middle" font-size="11" font-weight="normal" fill="#333">heatexchanger4</text><line x1="802.5" y1="1180.0" x2="802.5" y2="1210.0" stroke="#333" stroke-width="1" /><text x="877.5" y="1200.0" text-anchor="middle" font-size="11" font-weight="normal" fill="#333">95.64</text><line x1="952.5" y1="1180.0" x2="952.5" y2="1210.0" stroke="#333" stroke-width="1" /><text x="1027.5" y="1200.0" text-anchor="middle" font-size="11" font-weight="normal" fill="#333">40.00</text><line x1="1102.5" y1="1180.0" x2="1102.5" y2="1210.0" stroke="#333" stroke-width="1" /><text x="1177.5" y="1200.0" text-anchor="middle" font-size="11" font-weight="normal" fill="#333">1,811.04</text><line x1="1252.5" y1="1180.0" x2="1252.5" y2="1210.0" stroke="#333" stroke-width="1" /><text x="1327.5" y="1200.0" text-anchor="middle" font-size="11" font-weight="normal" fill="#333">0.00</text><rect x="602.5" y="1210.0" width="800" height="30" fill="#fee2e2" stroke="#333" stroke-width="1" /><text x="702.5" y="1230.0" text-anchor="middle" font-size="11" font-weight="normal" fill="#333">heatexchanger13</text><line x1="802.5" y1="1210.0" x2="802.5" y2="1240.0" stroke="#333" stroke-width="1" /><text x="877.5" y="1230.0" text-anchor="middle" font-size="11" font-weight="normal" fill="#333">109.80</text><line x1="952.5" y1="1210.0" x2="952.5" y2="1240.0" stroke="#333" stroke-width="1" /><text x="1027.5" y="1230.0" text-anchor="middle" font-size="11" font-weight="normal" fill="#333">30.00</text><line x1="1102.5" y1="1210.0" x2="1102.5" y2="1240.0" stroke="#333" stroke-width="1" /><text x="1177.5" y="1230.0" text-anchor="middle" font-size="11" font-weight="normal" fill="#333">2,148.00</text><line x1="1252.5" y1="1210.0" x2="1252.5" y2="1240.0" stroke="#333" stroke-width="1" /><text x="1327.5" y="1230.0" text-anchor="middle" font-size="11" font-weight="normal" fill="#333">0.00</text><rect x="602.5" y="1240.0" width="800" height="30" fill="#fee2e2" stroke="#333" stroke-width="1" /><text x="702.5" y="1260.0" text-anchor="middle" font-size="11" font-weight="normal" fill="#333">heatexchanger14</text><line x1="802.5" y1="1240.0" x2="802.5" y2="1270.0" stroke="#333" stroke-width="1" /><text x="877.5" y="1260.0" text-anchor="middle" font-size="11" font-weight="normal" fill="#333">135.80</text><line x1="952.5" y1="1240.0" x2="952.5" y2="1270.0" stroke="#333" stroke-width="1" /><text x="1027.5" y="1260.0" text-anchor="middle" font-size="11" font-weight="normal" fill="#333">30.00</text><line x1="1102.5" y1="1240.0" x2="1102.5" y2="1270.0" stroke="#333" stroke-width="1" /><text x="1177.5" y="1260.0" text-anchor="middle" font-size="11" font-weight="normal" fill="#333">2,867.00</text><line x1="1252.5" y1="1240.0" x2="1252.5" y2="1270.0" stroke="#333" stroke-width="1" /><text x="1327.5" y="1260.0" text-anchor="middle" font-size="11" font-weight="normal" fill="#333">0.00</text><rect x="602.5" y="1270.0" width="800" height="30" fill="#fee2e2" stroke="#333" stroke-width="1" /><text x="702.5" y="1290.0" text-anchor="middle" font-size="11" font-weight="normal" fill="#333">heatexchanger15</text><line x1="802.5" y1="1270.0" x2="802.5" y2="1300.0" stroke="#333" stroke-width="1" /><text x="877.5" y="1290.0" text-anchor="middle" font-size="11" font-weight="normal" fill="#333">129.30</text><line x1="952.5" y1="1270.0" x2="952.5" y2="1300.0" stroke="#333" stroke-width="1" /><text x="1027.5" y="1290.0" text-anchor="middle" font-size="11" font-weight="normal" fill="#333">30.00</text><line x1="1102.5" y1="1270.0" x2="1102.5" y2="1300.0" stroke="#333" stroke-width="1" /><text x="1177.5" y="1290.0" text-anchor="middle" font-size="11" font-weight="normal" fill="#333">2,678.00</text><line x1="1252.5" y1="1270.0" x2="1252.5" y2="1300.0" stroke="#333" stroke-width="1" /><text x="1327.5" y="1290.0" text-anchor="middle" font-size="11" font-weight="normal" fill="#333">0.00</text><rect x="602.5" y="1300.0" width="800" height="30" fill="#fee2e2" stroke="#333" stroke-width="1" /><text x="702.5" y="1320.0" text-anchor="middle" font-size="11" font-weight="normal" fill="#333">heatexchanger16</text><line x1="802.5" y1="1300.0" x2="802.5" y2="1330.0" stroke="#333" stroke-width="1" /><text x="877.5" y="1320.0" text-anchor="middle" font-size="11" font-weight="normal" fill="#333">171.10</text><line x1="952.5" y1="1300.0" x2="952.5" y2="1330.0" stroke="#333" stroke-width="1" /><text x="1027.5" y="1320.0" text-anchor="middle" font-size="11" font-weight="normal" fill="#333">30.00</text><line x1="1102.5" y1="1300.0" x2="1102.5" y2="1330.0" stroke="#333" stroke-width="1" /><text x="1177.5" y="1320.0" text-anchor="middle" font-size="11" font-weight="normal" fill="#333">3,841.00</text><line x1="1252.5" y1="1300.0" x2="1252.5" y2="1330.0" stroke="#333" stroke-width="1" /><text x="1327.5" y="1320.0" text-anchor="middle" font-size="11" font-weight="normal" fill="#333">0.00</text><rect x="602.5" y="1330.0" width="800" height="30" fill="#fee2e2" stroke="#333" stroke-width="1" /><text x="702.5" y="1350.0" text-anchor="middle" font-size="11" font-weight="normal" fill="#333">heatexchanger17</text><line x1="802.5" y1="1330.0" x2="802.5" y2="1360.0" stroke="#333" stroke-width="1" /><text x="877.5" y="1350.0" text-anchor="middle" font-size="11" font-weight="normal" fill="#333">171.20</text><line x1="952.5" y1="1330.0" x2="952.5" y2="1360.0" stroke="#333" stroke-width="1" /><text x="1027.5" y="1350.0" text-anchor="middle" font-size="11" font-weight="normal" fill="#333">30.00</text><line x1="1102.5" y1="1330.0" x2="1102.5" y2="1360.0" stroke="#333" stroke-width="1" /><text x="1177.5" y="1350.0" text-anchor="middle" font-size="11" font-weight="normal" fill="#333">3,910.00</text><line x1="1252.5" y1="1330.0" x2="1252.5" y2="1360.0" stroke="#333" stroke-width="1" /><text x="1327.5" y="1350.0" text-anchor="middle" font-size="11" font-weight="normal" fill="#333">0.00</text><rect x="602.5" y="1360.0" width="800" height="30" fill="#fee2e2" stroke="#333" stroke-width="1" /><text x="702.5" y="1380.0" text-anchor="middle" font-size="11" font-weight="normal" fill="#333">heatexchanger18</text><line x1="802.5" y1="1360.0" x2="802.5" y2="1390.0" stroke="#333" stroke-width="1" /><text x="877.5" y="1380.0" text-anchor="middle" font-size="11" font-weight="normal" fill="#333">171.30</text><line x1="952.5" y1="1360.0" x2="952.5" y2="1390.0" stroke="#333" stroke-width="1" /><text x="1027.5" y="1380.0" text-anchor="middle" font-size="11" font-weight="normal" fill="#333">30.00</text><line x1="1102.5" y1="1360.0" x2="1102.5" y2="1390.0" stroke="#333" stroke-width="1" /><text x="1177.5" y="1380.0" text-anchor="middle" font-size="11" font-weight="normal" fill="#333">4,088.00</text><line x1="1252.5" y1="1360.0" x2="1252.5" y2="1390.0" stroke="#333" stroke-width="1" /><text x="1327.5" y="1380.0" text-anchor="middle" font-size="11" font-weight="normal" fill="#333">0.00</text><rect x="602.5" y="1390.0" width="800" height="30" fill="#fee2e2" stroke="#333" stroke-width="1" /><text x="702.5" y="1410.0" text-anchor="middle" font-size="11" font-weight="normal" fill="#333">heatexchanger19</text><line x1="802.5" y1="1390.0" x2="802.5" y2="1420.0" stroke="#333" stroke-width="1" /><text x="877.5" y="1410.0" text-anchor="middle" font-size="11" font-weight="normal" fill="#333">170.50</text><line x1="952.5" y1="1390.0" x2="952.5" y2="1420.0" stroke="#333" stroke-width="1" /><text x="1027.5" y="1410.0" text-anchor="middle" font-size="11" font-weight="normal" fill="#333">30.00</text><line x1="1102.5" y1="1390.0" x2="1102.5" y2="1420.0" stroke="#333" stroke-width="1" /><text x="1177.5" y="1410.0" text-anchor="middle" font-size="11" font-weight="normal" fill="#333">4,415.00</text><line x1="1252.5" y1="1390.0" x2="1252.5" y2="1420.0" stroke="#333" stroke-width="1" /><text x="1327.5" y="1410.0" text-anchor="middle" font-size="11" font-weight="normal" fill="#333">0.00</text><rect x="602.5" y="1420.0" width="800" height="30" fill="#fee2e2" stroke="#333" stroke-width="1" /><text x="702.5" y="1440.0" text-anchor="middle" font-size="11" font-weight="normal" fill="#333">heatexchanger5</text><line x1="802.5" y1="1420.0" x2="802.5" y2="1450.0" stroke="#333" stroke-width="1" /><text x="877.5" y="1440.0" text-anchor="middle" font-size="11" font-weight="normal" fill="#333">155.60</text><line x1="952.5" y1="1420.0" x2="952.5" y2="1450.0" stroke="#333" stroke-width="1" /><text x="1027.5" y="1440.0" text-anchor="middle" font-size="11" font-weight="normal" fill="#333">56.00</text><line x1="1102.5" y1="1420.0" x2="1102.5" y2="1450.0" stroke="#333" stroke-width="1" /><text x="1177.5" y="1440.0" text-anchor="middle" font-size="11" font-weight="normal" fill="#333">548.60</text><line x1="1252.5" y1="1420.0" x2="1252.5" y2="1450.0" stroke="#333" stroke-width="1" /><text x="1327.5" y="1440.0" text-anchor="middle" font-size="11" font-weight="normal" fill="#333">0.00</text><rect x="602.5" y="1450.0" width="800" height="30" fill="#fee2e2" stroke="#333" stroke-width="1" /><text x="702.5" y="1470.0" text-anchor="middle" font-size="11" font-weight="normal" fill="#333">heatexchanger6</text><line x1="802.5" y1="1450.0" x2="802.5" y2="1480.0" stroke="#333" stroke-width="1" /><text x="877.5" y="1470.0" text-anchor="middle" font-size="11" font-weight="normal" fill="#333">198.30</text><line x1="952.5" y1="1450.0" x2="952.5" y2="1480.0" stroke="#333" stroke-width="1" /><text x="1027.5" y="1470.0" text-anchor="middle" font-size="11" font-weight="normal" fill="#333">56.00</text><line x1="1102.5" y1="1450.0" x2="1102.5" y2="1480.0" stroke="#333" stroke-width="1" /><text x="1177.5" y="1470.0" text-anchor="middle" font-size="11" font-weight="normal" fill="#333">794.10</text><line x1="1252.5" y1="1450.0" x2="1252.5" y2="1480.0" stroke="#333" stroke-width="1" /><text x="1327.5" y="1470.0" text-anchor="middle" font-size="11" font-weight="normal" fill="#333">0.00</text><rect x="602.5" y="1480.0" width="800" height="30" fill="#fee2e2" stroke="#333" stroke-width="1" /><text x="702.5" y="1500.0" text-anchor="middle" font-size="11" font-weight="normal" fill="#333">heatexchanger7</text><line x1="802.5" y1="1480.0" x2="802.5" y2="1510.0" stroke="#333" stroke-width="1" /><text x="877.5" y="1500.0" text-anchor="middle" font-size="11" font-weight="normal" fill="#333">198.70</text><line x1="952.5" y1="1480.0" x2="952.5" y2="1510.0" stroke="#333" stroke-width="1" /><text x="1027.5" y="1500.0" text-anchor="middle" font-size="11" font-weight="normal" fill="#333">30.00</text><line x1="1102.5" y1="1480.0" x2="1102.5" y2="1510.0" stroke="#333" stroke-width="1" /><text x="1177.5" y="1500.0" text-anchor="middle" font-size="11" font-weight="normal" fill="#333">959.10</text><line x1="1252.5" y1="1480.0" x2="1252.5" y2="1510.0" stroke="#333" stroke-width="1" /><text x="1327.5" y="1500.0" text-anchor="middle" font-size="11" font-weight="normal" fill="#333">0.00</text><rect x="602.5" y="1510.0" width="800" height="30" fill="#fee2e2" stroke="#333" stroke-width="1" /><text x="702.5" y="1530.0" text-anchor="middle" font-size="11" font-weight="normal" fill="#333">heatexchanger8</text><line x1="802.5" y1="1510.0" x2="802.5" y2="1540.0" stroke="#333" stroke-width="1" /><text x="877.5" y="1530.0" text-anchor="middle" font-size="11" font-weight="normal" fill="#333">162.00</text><line x1="952.5" y1="1510.0" x2="952.5" y2="1540.0" stroke="#333" stroke-width="1" /><text x="1027.5" y="1530.0" text-anchor="middle" font-size="11" font-weight="normal" fill="#333">30.00</text><line x1="1102.5" y1="1510.0" x2="1102.5" y2="1540.0" stroke="#333" stroke-width="1" /><text x="1177.5" y="1530.0" text-anchor="middle" font-size="11" font-weight="normal" fill="#333">724.40</text><line x1="1252.5" y1="1510.0" x2="1252.5" y2="1540.0" stroke="#333" stroke-width="1" /><text x="1327.5" y="1530.0" text-anchor="middle" font-size="11" font-weight="normal" fill="#333">0.00</text><rect x="602.5" y="1540.0" width="800" height="30" fill="#fee2e2" stroke="#333" stroke-width="1" /><text x="702.5" y="1560.0" text-anchor="middle" font-size="11" font-weight="normal" fill="#333">heatexchanger9</text><line x1="802.5" y1="1540.0" x2="802.5" y2="1570.0" stroke="#333" stroke-width="1" /><text x="877.5" y="1560.0" text-anchor="middle" font-size="11" font-weight="normal" fill="#333">169.00</text><line x1="952.5" y1="1540.0" x2="952.5" y2="1570.0" stroke="#333" stroke-width="1" /><text x="1027.5" y="1560.0" text-anchor="middle" font-size="11" font-weight="normal" fill="#333">30.00</text><line x1="1102.5" y1="1540.0" x2="1102.5" y2="1570.0" stroke="#333" stroke-width="1" /><text x="1177.5" y="1560.0" text-anchor="middle" font-size="11" font-weight="normal" fill="#333">768.80</text><line x1="1252.5" y1="1540.0" x2="1252.5" y2="1570.0" stroke="#333" stroke-width="1" /><text x="1327.5" y="1560.0" text-anchor="middle" font-size="11" font-weight="normal" fill="#333">0.00</text><rect x="602.5" y="1570.0" width="800" height="30" fill="#fee2e2" stroke="#333" stroke-width="1" /><text x="702.5" y="1590.0" text-anchor="middle" font-size="11" font-weight="normal" fill="#333">heatexchanger10</text><line x1="802.5" y1="1570.0" x2="802.5" y2="1600.0" stroke="#333" stroke-width="1" /><text x="877.5" y="1590.0" text-anchor="middle" font-size="11" font-weight="normal" fill="#333">169.10</text><line x1="952.5" y1="1570.0" x2="952.5" y2="1600.0" stroke="#333" stroke-width="1" /><text x="1027.5" y="1590.0" text-anchor="middle" font-size="11" font-weight="normal" fill="#333">30.00</text><line x1="1102.5" y1="1570.0" x2="1102.5" y2="1600.0" stroke="#333" stroke-width="1" /><text x="1177.5" y="1590.0" text-anchor="middle" font-size="11" font-weight="normal" fill="#333">783.80</text><line x1="1252.5" y1="1570.0" x2="1252.5" y2="1600.0" stroke="#333" stroke-width="1" /><text x="1327.5" y="1590.0" text-anchor="middle" font-size="11" font-weight="normal" fill="#333">0.00</text><rect x="602.5" y="1600.0" width="800" height="30" fill="#fee2e2" stroke="#333" stroke-width="1" /><text x="702.5" y="1620.0" text-anchor="middle" font-size="11" font-weight="normal" fill="#333">heatexchanger11</text><line x1="802.5" y1="1600.0" x2="802.5" y2="1630.0" stroke="#333" stroke-width="1" /><text x="877.5" y="1620.0" text-anchor="middle" font-size="11" font-weight="normal" fill="#333">169.30</text><line x1="952.5" y1="1600.0" x2="952.5" y2="1630.0" stroke="#333" stroke-width="1" /><text x="1027.5" y="1620.0" text-anchor="middle" font-size="11" font-weight="normal" fill="#333">30.00</text><line x1="1102.5" y1="1600.0" x2="1102.5" y2="1630.0" stroke="#333" stroke-width="1" /><text x="1177.5" y="1620.0" text-anchor="middle" font-size="11" font-weight="normal" fill="#333">824.40</text><line x1="1252.5" y1="1600.0" x2="1252.5" y2="1630.0" stroke="#333" stroke-width="1" /><text x="1327.5" y="1620.0" text-anchor="middle" font-size="11" font-weight="normal" fill="#333">0.00</text><rect x="602.5" y="1630.0" width="800" height="30" fill="#fee2e2" stroke="#333" stroke-width="1" /><text x="702.5" y="1650.0" text-anchor="middle" font-size="11" font-weight="normal" fill="#333">heatexchanger12</text><line x1="802.5" y1="1630.0" x2="802.5" y2="1660.0" stroke="#333" stroke-width="1" /><text x="877.5" y="1650.0" text-anchor="middle" font-size="11" font-weight="normal" fill="#333">168.20</text><line x1="952.5" y1="1630.0" x2="952.5" y2="1660.0" stroke="#333" stroke-width="1" /><text x="1027.5" y="1650.0" text-anchor="middle" font-size="11" font-weight="normal" fill="#333">30.00</text><line x1="1102.5" y1="1630.0" x2="1102.5" y2="1660.0" stroke="#333" stroke-width="1" /><text x="1177.5" y="1650.0" text-anchor="middle" font-size="11" font-weight="normal" fill="#333">909.80</text><line x1="1252.5" y1="1630.0" x2="1252.5" y2="1660.0" stroke="#333" stroke-width="1" /><text x="1327.5" y="1650.0" text-anchor="middle" font-size="11" font-weight="normal" fill="#333">0.00</text></svg>