<?xml version='1.0' encoding='utf-8'?>
<svg xmlns="http://www.w3.org/2000/svg" width="2005" height="685" viewBox="0 -70 2005 685"><defs><marker id="arrowIn" markerWidth="10" markerHeight="10" refX="9" refY="3" orient="auto" markerUnits="strokeWidth"><path d="M0,0 L0,6 L9,3 z" fill="#000" /></marker><marker id="arrowOut" markerWidth="10" markerHeight="10" refX="9" refY="3" orient="auto" markerUnits="strokeWidth"><path d="M0,0 L0,6 L9,3 z" fill="#000" /></marker></defs><rect x="0" y="-70" width="2005" height="685" fill="white" /><g transform="translate(620.0, 10.0) scale(2.375)"><rect x="10" y="10" width="300" height="140" rx="8" ry="8" fill="#EFF6FF" stroke="#2563EB" stroke-width="2.5" />
  
  <rect x="10" y="10" width="300" height="30" rx="8" ry="8" fill="#2563EB" />
  <rect x="10" y="28" width="300" height="12" fill="#2563EB" />
  
  <circle cx="160" cy="105" r="28" fill="none" stroke="#2563EB" stroke-width="2" />
  <circle cx="160" cy="105" r="12" fill="#2563EB" opacity="0.25" />
  <line x1="160" y1="73" x2="160" y2="137" stroke="#2563EB" stroke-width="2" />
  <line x1="128" y1="105" x2="192" y2="105" stroke="#2563EB" stroke-width="2" />
  <line x1="136" y1="81" x2="184" y2="129" stroke="#2563EB" stroke-width="2" />
  <line x1="184" y1="81" x2="136" y2="129" stroke="#2563EB" stroke-width="2" />
  
  <text x="160" y="32" text-anchor="middle" font-family="Arial, Helvetica, sans-serif" font-size="13" font-weight="600" fill="white">CCSPostTSA</text>
</g><rect x="590.0" y="-20.0" width="820.0" height="440" fill="none" stroke="#666" stroke-width="2" stroke-dasharray="5,5" rx="10" /><text x="1002.5" y="-40.0" text-anchor="middle" font-size="24" font-weight="bold" fill="#333">CCSPostTSA - Block Flow Diagram</text><rect x="55" y="125" width="200" height="50" fill="white" stroke="#2563eb" stroke-width="1" rx="5" /><text x="155" y="145" text-anchor="middle" font-size="14" font-weight="bold" fill="#2563eb">Electricity</text><text x="155" y="162" text-anchor="middle" font-size="12" fill="#555">180.00 kW</text><line x1="255" y1="150" x2="590.0" y2="150" stroke="#2563eb" stroke-width="2" marker-end="url(#arrowIn)" /><rect x="55" y="225" width="200" height="50" fill="white" stroke="#2563eb" stroke-width="1" rx="5" /><text x="155" y="245" text-anchor="middle" font-size="14" font-weight="bold" fill="#2563eb">CO2inFlueGas</text><text x="155" y="262" text-anchor="middle" font-size="12" fill="#555">1,000.00 kg/h</text><line x1="255" y1="250" x2="590.0" y2="250" stroke="#2563eb" stroke-width="2" marker-end="url(#arrowIn)" /><line x1="1410.0" y1="150" x2="1755" y2="150" stroke="#dc2626" stroke-width="2" marker-end="url(#arrowOut)" /><rect x="1760" y="125" width="200" height="50" fill="white" stroke="#dc2626" stroke-width="1" rx="5" /><text x="1860" y="145" text-anchor="middle" font-size="14" font-weight="bold" fill="#dc2626">EnvCO2Em</text><text x="1860" y="162" text-anchor="middle" font-size="12" fill="#555">100.00 kg/h</text><line x1="1410.0" y1="250" x2="1755" y2="250" stroke="#dc2626" stroke-width="2" marker-end="url(#arrowOut)" /><rect x="1760" y="225" width="200" height="50" fill="white" stroke="#dc2626" stroke-width="1" rx="5" /><text x="1860" y="245" text-anchor="middle" font-size="14" font-weight="bold" fill="#dc2626">CO2</text><text x="1860" y="262" text-anchor="middle" font-size="12" fill="#555">900.00 kg/h</text><text x="1002.5" y="460.0" text-anchor="middle" font-size="16" font-weight="bold" fill="#dc2626">Hot Streams</text><rect x="602.5" y="480.0" width="800" height="35" fill="#e5e7eb" stroke="#333" stroke-width="1" /><text x="702.5" y="502.5" text-anchor="middle" font-size="12" font-weight="bold" fill="#333">Name</text><line x1="802.5" y1="480.0" x2="802.5" y2="515.0" stroke="#333" stroke-width="1" /><text x="877.5" y="502.5" text-anchor="middle" font-size="12" font-weight="bold" fill="#333">T inlet [°C]</text><line x1="952.5" y1="480.0" x2="952.5" y2="515.0" stroke="#333" stroke-width="1" /><text x="1027.5" y="502.5" text-anchor="middle" font-size="12" font-weight="bold" fill="#333">T outlet [°C]</text><line x1="1102.5" y1="480.0" x2="1102.5" y2="515.0" stroke="#333" stroke-width="1" /><text x="1177.5" y="502.5" text-anchor="middle" font-size="12" font-weight="bold" fill="#333">H inlet [kW]</text><line x1="1252.5" y1="480.0" x2="1252.5" y2="515.0" stroke="#333" stroke-width="1" /><text x="1327.5" y="502.5" text-anchor="middle" font-size="12" font-weight="bold" fill="#333">H outlet [kW]</text><rect x="602.5" y="515.0" width="800" height="30" fill="#fee2e2" stroke="#333" stroke-width="1" /><text x="702.5" y="535.0" text-anchor="middle" font-size="11" font-weight="normal" fill="#333">qt_ccs</text><line x1="802.5" y1="515.0" x2="802.5" y2="545.0" stroke="#333" stroke-width="1" /><text x="877.5" y="535.0" text-anchor="middle" font-size="11" font-weight="normal" fill="#333">140.00</text><line x1="952.5" y1="515.0" x2="952.5" y2="545.0" stroke="#333" stroke-width="1" /><text x="1027.5" y="535.0" text-anchor="middle" font-size="11" font-weight="normal" fill="#333">100.00</text><line x1="1102.5" y1="515.0" x2="1102.5" y2="545.0" stroke="#333" stroke-width="1" /><text x="1177.5" y="535.0" text-anchor="middle" font-size="11" font-weight="normal" fill="#333">0.00</text><line x1="1252.5" y1="515.0" x2="1252.5" y2="545.0" stroke="#333" stroke-width="1" /><text x="1327.5" y="535.0" text-anchor="middle" font-size="11" font-weight="normal" fill="#333">200.00</text></svg>