<?xml version='1.0' encoding='utf-8'?>
<svg xmlns="http://www.w3.org/2000/svg" width="1450" height="685" viewBox="0 -120 1450 685"><defs><marker id="arrowIn" markerWidth="10" markerHeight="10" refX="9" refY="3" orient="auto" markerUnits="strokeWidth"><path d="M0,0 L0,6 L9,3 z" fill="#000" /></marker><marker id="arrowOut" markerWidth="10" markerHeight="10" refX="9" refY="3" orient="auto" markerUnits="strokeWidth"><path d="M0,0 L0,6 L9,3 z" fill="#000" /></marker></defs><rect x="0" y="-120" width="1450" height="685" fill="white" /><g transform="translate(620.0, -40.0) scale(2.375)"><rect x="10" y="10" width="300" height="140" rx="8" ry="8" fill="#EFF6FF" stroke="#2563EB" stroke-width="2.5" />
  
  <rect x="10" y="10" width="300" height="30" rx="8" ry="8" fill="#2563EB" />
  <rect x="10" y="28" width="300" height="12" fill="#2563EB" />
  
  <circle cx="160" cy="105" r="28" fill="none" stroke="#2563EB" stroke-width="2" />
  <circle cx="160" cy="105" r="12" fill="#2563EB" opacity="0.25" />
  <line x1="160" y1="73" x2="160" y2="137" stroke="#2563EB" stroke-width="2" />
  <line x1="128" y1="105" x2="192" y2="105" stroke="#2563EB" stroke-width="2" />
  <line x1="136" y1="81" x2="184" y2="129" stroke="#2563EB" stroke-width="2" />
  <line x1="184" y1="81" x2="136" y2="129" stroke="#2563EB" stroke-width="2" />
  
  <text x="160" y="32" text-anchor="middle" font-family="Arial, Helvetica, sans-serif" font-size="13" font-weight="600" fill="white">Refrigerator</text>
</g><rect x="590.0" y="-70.0" width="820.0" height="440" fill="none" stroke="#666" stroke-width="2" stroke-dasharray="5,5" rx="10" /><text x="725.0" y="-90.0" text-anchor="middle" font-size="24" font-weight="bold" fill="#333">Refrigerator - Block Flow Diagram</text><rect x="55" y="125" width="200" height="50" fill="white" stroke="#2563eb" stroke-width="1" rx="5" /><text x="155" y="145" text-anchor="middle" font-size="14" font-weight="bold" fill="#2563eb">Electricity</text><text x="155" y="162" text-anchor="middle" font-size="12" fill="#555">966.54 kW</text><line x1="255" y1="150" x2="590.0" y2="150" stroke="#2563eb" stroke-width="2" marker-end="url(#arrowIn)" /><text x="377.5" y="410.0" text-anchor="middle" font-size="16" font-weight="bold" fill="#dc2626">Hot Streams</text><rect x="50" y="430.0" width="655.0" height="35" fill="#e5e7eb" stroke="#333" stroke-width="1" /><text x="131.875" y="452.5" text-anchor="middle" font-size="14" font-weight="bold" fill="#333">Name</text><line x1="213.75" y1="430.0" x2="213.75" y2="465.0" stroke="#333" stroke-width="1" /><text x="275.15625" y="452.5" text-anchor="middle" font-size="14" font-weight="bold" fill="#333">T in [°C]</text><line x1="336.5625" y1="430.0" x2="336.5625" y2="465.0" stroke="#333" stroke-width="1" /><text x="397.96875" y="452.5" text-anchor="middle" font-size="14" font-weight="bold" fill="#333">T out [°C]</text><line x1="459.375" y1="430.0" x2="459.375" y2="465.0" stroke="#333" stroke-width="1" /><text x="520.78125" y="452.5" text-anchor="middle" font-size="14" font-weight="bold" fill="#333">H in [kW]</text><line x1="582.1875" y1="430.0" x2="582.1875" y2="465.0" stroke="#333" stroke-width="1" /><text x="643.59375" y="452.5" text-anchor="middle" font-size="14" font-weight="bold" fill="#333">H out [kW]</text><rect x="50" y="465.0" width="655.0" height="30" fill="#fee2e2" stroke="#333" stroke-width="1" /><text x="131.875" y="485.0" text-anchor="middle" font-size="13" font-weight="normal" fill="#333">condensation</text><line x1="213.75" y1="465.0" x2="213.75" y2="495.0" stroke="#333" stroke-width="1" /><text x="275.15625" y="485.0" text-anchor="middle" font-size="13" font-weight="normal" fill="#333">22.00</text><line x1="336.5625" y1="465.0" x2="336.5625" y2="495.0" stroke="#333" stroke-width="1" /><text x="397.96875" y="485.0" text-anchor="middle" font-size="13" font-weight="normal" fill="#333">22.00</text><line x1="459.375" y1="465.0" x2="459.375" y2="495.0" stroke="#333" stroke-width="1" /><text x="520.78125" y="485.0" text-anchor="middle" font-size="13" font-weight="normal" fill="#333">5,966.54</text><line x1="582.1875" y1="465.0" x2="582.1875" y2="495.0" stroke="#333" stroke-width="1" /><text x="643.59375" y="485.0" text-anchor="middle" font-size="13" font-weight="normal" fill="#333">0.00</text><text x="1072.5" y="410.0" text-anchor="middle" font-size="16" font-weight="bold" fill="#2563eb">Cold Streams</text><rect x="745.0" y="430.0" width="655.0" height="35" fill="#e5e7eb" stroke="#333" stroke-width="1" /><text x="826.875" y="452.5" text-anchor="middle" font-size="14" font-weight="bold" fill="#333">Name</text><line x1="908.75" y1="430.0" x2="908.75" y2="465.0" stroke="#333" stroke-width="1" /><text x="970.15625" y="452.5" text-anchor="middle" font-size="14" font-weight="bold" fill="#333">T in [°C]</text><line x1="1031.5625" y1="430.0" x2="1031.5625" y2="465.0" stroke="#333" stroke-width="1" /><text x="1092.96875" y="452.5" text-anchor="middle" font-size="14" font-weight="bold" fill="#333">T out [°C]</text><line x1="1154.375" y1="430.0" x2="1154.375" y2="465.0" stroke="#333" stroke-width="1" /><text x="1215.78125" y="452.5" text-anchor="middle" font-size="14" font-weight="bold" fill="#333">H in [kW]</text><line x1="1277.1875" y1="430.0" x2="1277.1875" y2="465.0" stroke="#333" stroke-width="1" /><text x="1338.59375" y="452.5" text-anchor="middle" font-size="14" font-weight="bold" fill="#333">H out [kW]</text><rect x="745.0" y="465.0" width="655.0" height="30" fill="#dbeafe" stroke="#333" stroke-width="1" /><text x="826.875" y="485.0" text-anchor="middle" font-size="13" font-weight="normal" fill="#333">evaporation</text><line x1="908.75" y1="465.0" x2="908.75" y2="495.0" stroke="#333" stroke-width="1" /><text x="970.15625" y="485.0" text-anchor="middle" font-size="13" font-weight="normal" fill="#333">-4.00</text><line x1="1031.5625" y1="465.0" x2="1031.5625" y2="495.0" stroke="#333" stroke-width="1" /><text x="1092.96875" y="485.0" text-anchor="middle" font-size="13" font-weight="normal" fill="#333">-4.00</text><line x1="1154.375" y1="465.0" x2="1154.375" y2="495.0" stroke="#333" stroke-width="1" /><text x="1215.78125" y="485.0" text-anchor="middle" font-size="13" font-weight="normal" fill="#333">0.00</text><line x1="1277.1875" y1="465.0" x2="1277.1875" y2="495.0" stroke="#333" stroke-width="1" /><text x="1338.59375" y="485.0" text-anchor="middle" font-size="13" font-weight="normal" fill="#333">5,000.00</text></svg>