<?xml version='1.0' encoding='utf-8'?>
<svg xmlns="http://www.w3.org/2000/svg" xmlns:html="http://www.w3.org/1999/xhtml" xmlns:ns2="http://www.w3.org/1999/xlink" width="1317" height="520" viewBox="0 -120 1317 520"><defs><marker id="arrowIn" markerWidth="10" markerHeight="10" refX="9" refY="3" orient="auto" markerUnits="strokeWidth"><path d="M0,0 L0,6 L9,3 z" fill="#000" /></marker><marker id="arrowOut" markerWidth="10" markerHeight="10" refX="9" refY="3" orient="auto" markerUnits="strokeWidth"><path d="M0,0 L0,6 L9,3 z" fill="#000" /></marker></defs><rect x="0" y="-120" width="1317" height="520" fill="white" /><g transform="translate(70.0, -40.0) scale(1.4232209737827715)"><defs /><g><ellipse cx="290" cy="50" rx="31.57894736842105" ry="31.57894736842105" fill="rgb(255, 255, 255)" stroke="rgb(0, 0, 0)" pointer-events="all" /><path d="M 284.74 15.26 L 290 0 L 295.26 15.26 Z" fill="rgb(255, 255, 255)" stroke="rgb(0, 0, 0)" stroke-miterlimit="10" pointer-events="all" /><path d="M 284.74 84.74 L 290 100 L 295.26 84.74 Z" fill="rgb(255, 255, 255)" stroke="rgb(0, 0, 0)" stroke-miterlimit="10" pointer-events="all" /><path d="M 255.26 44.74 L 240 50 L 255.26 55.26 Z" fill="rgb(255, 255, 255)" stroke="rgb(0, 0, 0)" stroke-miterlimit="10" pointer-events="all" /><path d="M 324.74 44.74 L 340 50 L 324.74 55.26 Z" fill="rgb(255, 255, 255)" stroke="rgb(0, 0, 0)" stroke-miterlimit="10" pointer-events="all" /><path d="M 311.05 21.58 L 325.47 14.63 L 318.42 28.95 Z" fill="rgb(255, 255, 255)" stroke="rgb(0, 0, 0)" stroke-miterlimit="10" pointer-events="all" /><path d="M 311.05 78.42 L 325.47 85.37 L 318.42 71.05 Z" fill="rgb(255, 255, 255)" stroke="rgb(0, 0, 0)" stroke-miterlimit="10" pointer-events="all" /><path d="M 268.95 21.58 L 254.53 14.63 L 261.58 28.95 Z" fill="rgb(255, 255, 255)" stroke="rgb(0, 0, 0)" stroke-miterlimit="10" pointer-events="all" /><path d="M 268.95 78.42 L 254.53 85.37 L 261.58 71.05 Z" fill="rgb(255, 255, 255)" stroke="rgb(0, 0, 0)" stroke-miterlimit="10" pointer-events="all" /><rect x="80" y="230" width="30" height="30" rx="4.5" ry="4.5" fill="rgb(255, 255, 255)" stroke="rgb(0, 0, 0)" transform="rotate(30,95,245)" pointer-events="all" /><rect x="77.5" y="221.5" width="35" height="10" fill="rgb(255, 255, 255)" stroke="rgb(0, 0, 0)" transform="rotate(90,95,226.5)" pointer-events="all" /><path d="M 74 110 C 74 150.01 74 189.99 74 230 L 178 230 L 178 110 Z" fill="#ffffff" stroke="none" transform="rotate(55,126,170)" pointer-events="all" /><path d="M 74 110 L 74 230 L 178 230 L 178 110 Z M 74.64 111.99 L 77.85 111.99 L 77.85 228.01 L 74.64 228.01 Z M 78.5 111.99 L 173.57 111.99 L 173.57 228.01 L 78.5 228.01 Z M 174.21 111.99 L 177.36 111.99 L 177.36 228.01 L 174.21 228.01 Z M 79.14 115.98 L 79.14 131.93 L 102.26 131.93 L 102.26 115.98 Z M 102.91 115.98 L 102.91 131.93 L 126.03 131.93 L 126.03 115.98 Z M 126.67 115.98 L 126.67 131.93 L 149.8 131.93 L 149.8 115.98 Z M 150.44 115.98 L 150.44 131.93 L 172.93 131.93 L 172.93 115.98 Z M 79.78 117.97 L 101.62 117.97 L 101.62 129.93 L 79.78 129.93 Z M 103.55 117.97 L 125.39 117.97 L 125.39 129.93 L 103.55 129.93 Z M 127.32 117.97 L 149.16 117.97 L 149.16 129.93 L 127.32 129.93 Z M 151.08 117.97 L 172.28 117.97 L 172.28 129.93 L 151.08 129.93 Z M 79.14 133.92 L 79.14 149.87 L 102.26 149.87 L 102.26 133.92 Z M 102.91 133.92 L 102.91 149.87 L 126.03 149.87 L 126.03 133.92 Z M 126.67 133.92 L 126.67 149.87 L 149.8 149.87 L 149.8 133.92 Z M 150.44 133.92 L 150.44 149.87 L 172.93 149.87 L 172.93 133.92 Z M 79.78 135.91 L 101.62 135.91 L 101.62 147.87 L 79.78 147.87 Z M 103.55 135.91 L 125.39 135.91 L 125.39 147.87 L 103.55 147.87 Z M 127.32 135.91 L 149.16 135.91 L 149.16 147.87 L 127.32 147.87 Z M 151.08 135.91 L 172.28 135.91 L 172.28 147.87 L 151.08 147.87 Z M 79.14 151.86 L 79.14 167.81 L 102.26 167.81 L 102.26 151.86 Z M 102.91 151.86 L 102.91 167.81 L 126.03 167.81 L 126.03 151.86 Z M 126.67 151.86 L 126.67 167.81 L 149.8 167.81 L 149.8 151.86 Z M 150.44 151.86 L 150.44 167.81 L 172.93 167.81 L 172.93 151.86 Z M 79.78 153.85 L 101.62 153.85 L 101.62 165.81 L 79.78 165.81 Z M 103.55 153.85 L 125.39 153.85 L 125.39 165.81 L 103.55 165.81 Z M 127.32 153.85 L 149.16 153.85 L 149.16 165.81 L 127.32 165.81 Z M 151.08 153.85 L 172.28 153.85 L 172.28 165.81 L 151.08 165.81 Z M 79.14 171.79 L 79.14 187.74 L 102.26 187.74 L 102.26 171.79 Z M 102.91 171.79 L 102.91 187.74 L 126.03 187.74 L 126.03 171.79 Z M 126.67 171.79 L 126.67 187.74 L 149.8 187.74 L 149.8 171.79 Z M 150.44 171.79 L 150.44 187.74 L 172.93 187.74 L 172.93 171.79 Z M 79.78 173.79 L 101.62 173.79 L 101.62 185.75 L 79.78 185.75 Z M 103.55 173.79 L 125.39 173.79 L 125.39 185.75 L 103.55 185.75 Z M 127.32 173.79 L 149.16 173.79 L 149.16 185.75 L 127.32 185.75 Z M 151.08 173.79 L 172.28 173.79 L 172.28 185.75 L 151.08 185.75 Z M 79.14 189.73 L 79.14 205.68 L 102.26 205.68 L 102.26 189.73 Z M 102.91 189.73 L 102.91 205.68 L 126.03 205.68 L 126.03 189.73 Z M 126.67 189.73 L 126.67 205.68 L 149.8 205.68 L 149.8 189.73 Z M 150.44 189.73 L 150.44 205.68 L 172.93 205.68 L 172.93 189.73 Z M 79.78 191.73 L 101.62 191.73 L 101.62 203.69 L 79.78 203.69 Z M 103.55 191.73 L 125.39 191.73 L 125.39 203.69 L 103.55 203.69 Z M 127.32 191.73 L 149.16 191.73 L 149.16 203.69 L 127.32 203.69 Z M 151.08 191.73 L 172.28 191.73 L 172.28 203.69 L 151.08 203.69 Z M 79.14 207.67 L 79.14 223.62 L 102.26 223.62 L 102.26 207.67 Z M 102.91 207.67 L 102.91 223.62 L 126.03 223.62 L 126.03 207.67 Z M 126.67 207.67 L 126.67 223.62 L 149.8 223.62 L 149.8 207.67 Z M 150.44 207.67 L 150.44 223.62 L 172.93 223.62 L 172.93 207.67 Z M 79.78 209.67 L 101.62 209.67 L 101.62 221.63 L 79.78 221.63 Z M 103.55 209.67 L 125.39 209.67 L 125.39 221.63 L 103.55 221.63 Z M 127.32 209.67 L 149.16 209.67 L 149.16 221.63 L 127.32 221.63 Z M 151.08 209.67 L 172.28 209.67 L 172.28 221.63 L 151.08 221.63 Z" fill-opacity="0.644" fill="#000000" stroke="none" transform="rotate(55,126,170)" pointer-events="all" /><path d="M 160 90 L 240 50" fill="none" stroke="rgb(0, 0, 0)" stroke-width="2" stroke-miterlimit="10" stroke-dasharray="2 6" pointer-events="stroke" /><path d="M 180 110 L 240 70" fill="none" stroke="rgb(0, 0, 0)" stroke-width="2" stroke-miterlimit="10" stroke-dasharray="2 6" pointer-events="stroke" /><path d="M 200 130 L 250 90" fill="none" stroke="rgb(0, 0, 0)" stroke-width="2" stroke-miterlimit="10" stroke-dasharray="2 6" pointer-events="stroke" /><path d="M 210 170 L 270 100" fill="none" stroke="rgb(0, 0, 0)" stroke-width="2" stroke-miterlimit="10" stroke-dasharray="2 6" pointer-events="stroke" /><rect x="250" y="140" width="60" height="30" fill="none" stroke="none" pointer-events="all" /><g transform="translate(-0.5 -0.5)"><switch><foreignObject pointer-events="none" width="100%" height="100%" requiredFeatures="http://www.w3.org/TR/SVG11/feature#Extensibility" style="overflow: visible; text-align: left;"><html:div style="display: flex; align-items: unsafe center; justify-content: unsafe center; width: 58px; height: 1px; padding-top: 155px; margin-left: 251px;"><html:div data-drawio-colors="color: rgb(0, 0, 0); " style="box-sizing: border-box; font-size: 0px; text-align: center;"><html:div style="display: inline-block; font-size: 12px; font-family: Helvetica; color: rgb(0, 0, 0); line-height: 1.2; pointer-events: all; white-space: normal; overflow-wrap: normal;">Direct normal<html:br />irradiance (DNI)</html:div></html:div></html:div></foreignObject><text x="280" y="159" fill="rgb(0, 0, 0)" font-family="Helvetica" font-size="12px" text-anchor="middle">Direct nor...</text></switch></g><path d="M 51.5 17.5 C 33.5 17.5 29 35 43.4 38.5 C 29 46.2 45.2 63 56.9 56 C 65 70 92 70 101 56 C 119 56 119 42 107.75 35 C 119 21 101 7 85.25 14 C 74 3.5 56 3.5 51.5 17.5 Z" fill="rgb(255, 255, 255)" stroke="rgb(0, 0, 0)" stroke-miterlimit="10" pointer-events="all" /><path d="M 120 20 L 230 30" fill="none" stroke="rgb(0, 0, 0)" stroke-width="2" stroke-miterlimit="10" stroke-dasharray="2 6" pointer-events="stroke" /><path d="M 70 135 L 62 70" fill="none" stroke="rgb(0, 0, 0)" stroke-width="2" stroke-miterlimit="10" stroke-dasharray="2 6" pointer-events="stroke" /><path d="M 121 40 L 221 40" fill="none" stroke="rgb(0, 0, 0)" stroke-width="2" stroke-miterlimit="10" stroke-dasharray="2 6" pointer-events="stroke" /><path d="M 90 130 L 80 70" fill="none" stroke="rgb(0, 0, 0)" stroke-width="2" stroke-miterlimit="10" stroke-dasharray="2 6" pointer-events="stroke" /><path d="M 110 120 L 100 70" fill="none" stroke="rgb(0, 0, 0)" stroke-width="2" stroke-miterlimit="10" stroke-dasharray="2 6" pointer-events="stroke" /><rect x="0" y="90" width="60" height="30" fill="none" stroke="none" pointer-events="all" /><g transform="translate(-0.5 -0.5)"><switch><foreignObject pointer-events="none" width="100%" height="100%" requiredFeatures="http://www.w3.org/TR/SVG11/feature#Extensibility" style="overflow: visible; text-align: left;"><html:div style="display: flex; align-items: unsafe center; justify-content: unsafe center; width: 58px; height: 1px; padding-top: 105px; margin-left: 1px;"><html:div data-drawio-colors="color: rgb(0, 0, 0); " style="box-sizing: border-box; font-size: 0px; text-align: center;"><html:div style="display: inline-block; font-size: 12px; font-family: Helvetica; color: rgb(0, 0, 0); line-height: 1.2; pointer-events: all; white-space: normal; overflow-wrap: normal;">Diffuse<html:br />horizontal irradiance (DHI)</html:div></html:div></html:div></foreignObject><text x="30" y="109" fill="rgb(0, 0, 0)" font-family="Helvetica" font-size="12px" text-anchor="middle">Diffuse...</text></switch></g><rect x="170" y="221.5" width="150" height="30" fill="none" stroke="none" pointer-events="all" /><g transform="translate(-0.5 -0.5)"><switch><foreignObject pointer-events="none" width="100%" height="100%" requiredFeatures="http://www.w3.org/TR/SVG11/feature#Extensibility" style="overflow: visible; text-align: left;"><html:div style="display: flex; align-items: unsafe center; justify-content: unsafe center; width: 148px; height: 1px; padding-top: 237px; margin-left: 171px;"><html:div data-drawio-colors="color: rgb(0, 0, 0); " style="box-sizing: border-box; font-size: 0px; text-align: center;"><html:div style="display: inline-block; font-size: 12px; font-family: Helvetica; color: rgb(0, 0, 0); line-height: 1.2; pointer-events: all; white-space: normal; overflow-wrap: normal;">Global irradiance (GHI): DHI and DNI contributions</html:div></html:div></html:div></foreignObject><text x="245" y="240" fill="rgb(0, 0, 0)" font-family="Helvetica" font-size="12px" text-anchor="middle">Global irradiance (GHI):...</text></switch></g><rect x="14" y="211.5" width="60" height="30" fill="none" stroke="none" pointer-events="all" /><g transform="translate(-0.5 -0.5)"><switch><foreignObject pointer-events="none" width="100%" height="100%" requiredFeatures="http://www.w3.org/TR/SVG11/feature#Extensibility" style="overflow: visible; text-align: left;"><html:div style="display: flex; align-items: unsafe center; justify-content: unsafe center; width: 58px; height: 1px; padding-top: 227px; margin-left: 15px;"><html:div data-drawio-colors="color: rgb(0, 0, 0); " style="box-sizing: border-box; font-size: 0px; text-align: center;"><html:div style="display: inline-block; font-size: 12px; font-family: Helvetica; color: rgb(0, 0, 0); line-height: 1.2; pointer-events: all; font-weight: bold; white-space: normal; overflow-wrap: normal;">PV panel</html:div></html:div></html:div></foreignObject><text x="44" y="230" fill="rgb(0, 0, 0)" font-family="Helvetica" font-size="12px" text-anchor="middle" font-weight="bold">PV panel</text></switch></g></g><switch><g requiredFeatures="http://www.w3.org/TR/SVG11/feature#Extensibility" /><a transform="translate(0,-5)" ns2:href="https://www.diagrams.net/doc/faq/svg-export-text-problems" target="_blank"><text text-anchor="middle" font-size="10px" x="50%" y="100%">Text is not SVG - cannot display</text></a></switch></g><rect x="40.0" y="-70.0" width="545.318352059925" height="440" fill="none" stroke="#666" stroke-width="2" stroke-dasharray="5,5" rx="10" /><text x="658.8295880149813" y="-90.0" text-anchor="middle" font-size="24" font-weight="bold" fill="#333">PVpanel - Block Flow Diagram</text><line x1="585.318352059925" y1="150" x2="1067.6591760299625" y2="150" stroke="#dc2626" stroke-width="2" marker-end="url(#arrowOut)" /><rect x="1072.6591760299625" y="125" width="200" height="50" fill="white" stroke="#dc2626" stroke-width="1" rx="5" /><text x="1172.6591760299625" y="145" text-anchor="middle" font-size="14" font-weight="bold" fill="#dc2626">Electricity</text><text x="1172.6591760299625" y="162" text-anchor="middle" font-size="12" fill="#555">44.50 kW</text></svg>