<?xml version='1.0' encoding='utf-8'?>
<svg xmlns="http://www.w3.org/2000/svg" width="1455" height="520" viewBox="0 -120 1455 520"><defs><marker id="arrowIn" markerWidth="10" markerHeight="10" refX="9" refY="3" orient="auto" markerUnits="strokeWidth"><path d="M0,0 L0,6 L9,3 z" fill="#000" /></marker><marker id="arrowOut" markerWidth="10" markerHeight="10" refX="9" refY="3" orient="auto" markerUnits="strokeWidth"><path d="M0,0 L0,6 L9,3 z" fill="#000" /></marker></defs><rect x="0" y="-120" width="1455" height="520" fill="white" /><g transform="translate(70.0, -40.0) scale(2.375)"><rect x="10" y="10" width="300" height="140" rx="8" ry="8" fill="#EFF6FF" stroke="#2563EB" stroke-width="2.5" />
  
  <rect x="10" y="10" width="300" height="30" rx="8" ry="8" fill="#2563EB" />
  <rect x="10" y="28" width="300" height="12" fill="#2563EB" />
  
  <circle cx="160" cy="105" r="28" fill="none" stroke="#2563EB" stroke-width="2" />
  <circle cx="160" cy="105" r="12" fill="#2563EB" opacity="0.25" />
  <line x1="160" y1="73" x2="160" y2="137" stroke="#2563EB" stroke-width="2" />
  <line x1="128" y1="105" x2="192" y2="105" stroke="#2563EB" stroke-width="2" />
  <line x1="136" y1="81" x2="184" y2="129" stroke="#2563EB" stroke-width="2" />
  <line x1="184" y1="81" x2="136" y2="129" stroke="#2563EB" stroke-width="2" />
  
  <text x="160" y="32" text-anchor="middle" font-family="Arial, Helvetica, sans-serif" font-size="13" font-weight="600" fill="white">PVpanel</text>
</g><rect x="40.0" y="-70.0" width="820.0" height="440" fill="none" stroke="#666" stroke-width="2" stroke-dasharray="5,5" rx="10" /><text x="727.5" y="-90.0" text-anchor="middle" font-size="24" font-weight="bold" fill="#333">PVpanel - Block Flow Diagram</text><line x1="860.0" y1="150" x2="1205.0" y2="150" stroke="#dc2626" stroke-width="2" marker-end="url(#arrowOut)" /><rect x="1210.0" y="125" width="200" height="50" fill="white" stroke="#dc2626" stroke-width="1" rx="5" /><text x="1310.0" y="145" text-anchor="middle" font-size="14" font-weight="bold" fill="#dc2626">Electricity</text><text x="1310.0" y="162" text-anchor="middle" font-size="12" fill="#555">44.50 kW</text></svg>