<?xml version="1.0" encoding="UTF-8"?>
<!-- Do not edit this file with editors other than diagrams.net -->
<!DOCTYPE svg PUBLIC "-//W3C//DTD SVG 1.1//EN" "http://www.w3.org/Graphics/SVG/1.1/DTD/svg11.dtd">
<svg xmlns="http://www.w3.org/2000/svg" xmlns:xlink="http://www.w3.org/1999/xlink" version="1.1" width="639px" height="183px" viewBox="-0.5 -0.5 639 183" content="&lt;mxfile host=&quot;Electron&quot; modified=&quot;2024-02-19T23:50:11.140Z&quot; agent=&quot;5.0 (Windows NT 10.0; Win64; x64) AppleWebKit/537.36 (KHTML, like Gecko) draw.io/20.8.10 Chrome/106.0.5249.199 Electron/21.3.5 Safari/537.36&quot; version=&quot;20.8.10&quot; etag=&quot;3G3SRdhZSRKKBATbSCJE&quot; type=&quot;device&quot;&gt;&lt;diagram name=&quot;Page-1&quot; id=&quot;WtNzCcjRCjQnDjVlIDT8&quot;&gt;7Vzfc5s4EP5rPHP3UEY/AMFjk6aXh3amM7m5Xp8yBKs2LUYekJP4/voTRgIhQYJtcNwmfkistRBC37er1e7aM3y5evwrj9bLz2xO0xkC88cZ/jBDKECh+FsKtpXADYNKsMiTeSWCjeAm+Y9KIZDSTTKnRasjZyzlybotjFmW0Zi3ZFGes4d2t+8sbd91HS2oJbiJo9SWfk3mfKkeizTya5oslurO0JcPvIpUZ/kkxTKaswdNhK9m+DJnjFfvVo+XNC3XTq1Ldd3Hnk/rieU040MuQHIafKuejc7Fo8omy/mSLVgWpVeN9CJnm2xOywGAaDV9PjG2FkIohD8o51uJW7ThTIiWfJXKT+ljwv8tL3dAoNrfdm2xVLL94VGOv2tstcYXmicrymmuZBnPt9Vwnmp+0z9rhtq11FjfWcblFKEr2tVKlI/fJlaUL6gCMrTXF9aoCbZTJmaWb0WXnKYRT+7bY0WSd4u6X33pF5aIERGQKuKHkiDbmkKgPUY1L3mZjrAxUoBcB7m+B+TLNcaFnoOwH6qX375LwTZ5TK27vM/zaKt1W5cdCr2HeKOtRyPa8a+bi/hoLv7YrNaqf5THB7JT8emd4CfyW5RyPOA+Q6tdy+SoyTWlAW32e3tzv4ezFWoSf5vG7vgsbsH+BMby1vdRupGDWqALk7gu364eF+Xm4ayTuXNPi4KmhZPTKOYsbwO2Ix/Nr+5pycFKFqXJIhPvY5rtVuvinuY8ERb8U3RH0y+sSHjCyg53jHO20jq8l1fyki4X86hY1vT6nqTpJUvL+4uJ4o+7VylPk/W1vHG3VSkHp4+9Nrpn9eUFLjBsASDSDj00mw+W2rPU9h0CjgfMOzOlBG19dMPwnPSxEGrG35cehhBkLKPDdFSpha6k/kRbTb/p7t4/PNfciSB6csPpuMA1GFfN4dB9wn+zIfvbENOf6LQhYBobQs7bhnijWhAHwLYVKQ83E+zrvm0ygpN5py422KTcymf8xgO0PThM25c04rf0MV5G2YLmhSNUME1vo2x+yzd39Lb98S18KWswsda7voFTOEzr8QhaH76Z6b0B85FxPOs002gaM62iKy9tp58yrf7RpnXUXWCAnQ5tOw2H8+JYQy19tcYXw4ah7gkjHGCo1VO9WeoDFN8L4MtZakUSDbkL8eAI2BEZ8YS8jUDBc/aTKlspzzy6+ZSiXlTUoq+S+XxnUh6WCac362inQQ+CJ5aZMQHQwRkBDBxCxzPgcF1HnYU1RLypEME9iNgq9SoQcQPz+HJiPOy4VYUHfJ14+PCF9cOz8LgW+8Ruw4yZeLTt68TFRcY2Al3iBATUL2hBFEwFkR2meYOoVAnPNyHyHZX/PAUu5Hk3rc9hqlexd3l17KSvx8Ui0/9Yef+LteY/13LNqe6Ep6jAAA7CJdR5rNBRftk/8o6pMd2aDRY9csYj2SnszwUehTOB2An1l+nfEYfYBrMrjI9x3fMo4H/vSMoECJaK2Y+gOJs7ynPWEFRbk44gHAO+AfGUN70dAXUfnpfeonMNy+h58iYtXkVTMD4oT95Uhqjc27dZk5XrDvLMno/BqD1PD8Io9Zk+CENgT0LsuWh5R1WI6d7B0DFD7z0RnX3zfh2z9gzaHpfGQ/bZ6bx4DRzSpjV0Sgf6AFp3pYUbqrsB0smulGnshFFXkvl0SuB5RsoIAmOMoUrg+WYsYGBMc+/Mt2cFHcCTM/PtKMWeF6hFGU3H7MjeYKeh9r6sXVhTnm7PrMvra3lrHX4mEnO8p4Wz+1eOXP7/e1u5Isuc0q/lOlxEMd9EXD/7aT7BOxhM5BX4BFlICe/PchM0lwB1OIJohAPcudTJnShNs6vCq62uqsI7yAz3GEndIJ6uwJNAYfhJTR+rLFM4jxq7yIEOg2fStjyVTpYCGlLe92ZuhgSJMDHNDXKEs2fy4RTm5kwqAKcq2Tt1Pvh0yV+PuMLEBHXs13TASlOADvXBLLviOsCoHR/RrvhnzsFRir60gwd2iXHwgGhEPk7PPatmuSSIdxjZMIYOCczhQif04CDC7ev323M3v0RjTtA3d+/2Bce78WdSQWnyv/Nc27C4LD9r2dTQCyby205X+0iQyY7A2GUH8xqZpDZHGonQfmCa/mBkfg5ILfxGft/pzph+V4ZhMk/vyIpNHmU/b/+IWRbnQnlv76KC/jl7mWzQCGgEkDim3gDSWeUAAXBUiLmV9sHIQe7xwKi0rwbMZ8qXUVYREoGbbcHpygLrTPPpZVtOcrKyh8CtV14HKpwoqY4H1D7SbK62yjiNiiKJ29g8vWq7rVYK3M79XIwvP/d1dWh988GIo5DnDjmH+4/PFAEp2bGbMREW0uvN0HqeAzEwD0D77tPlTYCLEfARCQAiprMn3FMPuD4MAuyCQJXojX8KUnXfGsmuUhrzPIkT/qtU04yg7cQzis+gGzrYNsvuVMp+JgHYJoOEhmdLB37rXY9YqPTK9L41DpBZeAtJUFdHTaBSAwKWDXKwh/FPnpB0lZshaY3qT9TPR0BDE/XvnDSVE+5Ivg0mobXOsLMKDU6lQ3YBp7Xwv3Ax0rRfFsA+cOwAcUdRylTg2aWdX6Ny9QR8VDyGdEt/if1o5OpOZP1uh9fpiU5V3Ynt6s7qqEBfKR6BrSogOGnBLbaDI9fbec4W9JXqiO+btot0+m8jASKaze8pVT5C86NU+Op/&lt;/diagram&gt;&lt;/mxfile&gt;"><defs/><g><path d="M 544.25 82.24 L 521.77 82.21" fill="none" stroke="rgb(0, 0, 0)" stroke-miterlimit="10" pointer-events="stroke"/><path d="M 516.52 82.2 L 523.52 78.71 L 521.77 82.21 L 523.51 85.71 Z" fill="rgb(0, 0, 0)" stroke="rgb(0, 0, 0)" stroke-miterlimit="10" pointer-events="all"/><path d="M 166 81 L 160.25 81" fill="none" stroke="rgb(0, 0, 0)" stroke-miterlimit="10" pointer-events="stroke"/><path d="M 155 81 L 162 77.5 L 160.25 81 L 162 84.5 Z" fill="rgb(0, 0, 0)" stroke="rgb(0, 0, 0)" stroke-miterlimit="10" pointer-events="all"/><rect x="120" y="46" width="33" height="70" fill="none" stroke="none" transform="translate(136.5,0)scale(-1,1)translate(-136.5,0)" pointer-events="all"/><path d="M 153 51.64 L 153 110.36 C 153 113.47 145.61 116 136.5 116 C 127.39 116 120 113.47 120 110.36 L 120 51.64 C 120 48.53 127.39 46 136.5 46 C 145.61 46 153 48.53 153 51.64 Z M 120 51.64 L 153 51.64 M 120 110.36 L 153 110.36 M 120 95.68 L 153 95.68 M 120 66.32 L 153 66.32 M 126.6 66.32 L 120 72.19 M 139.8 66.32 L 120 83.94 M 146.4 66.32 L 120 89.81 M 153 66.32 L 120 95.68 M 153 72.19 L 126.6 95.68 M 153 83.94 L 139.8 95.68 M 153 89.81 L 146.4 95.68 M 133.2 66.32 L 120 78.06 M 153 78.06 L 133.2 95.68" fill="#ffffff" stroke="rgb(0, 0, 0)" stroke-miterlimit="10" transform="translate(136.5,0)scale(-1,1)translate(-136.5,0)" pointer-events="all"/><path d="M 257 79.12 L 260.04 79.08 L 260.04 80.92 L 246.37 80.93" fill="none" stroke="rgb(0, 0, 0)" stroke-miterlimit="10" pointer-events="stroke"/><path d="M 241.12 80.93 L 248.12 77.43 L 246.37 80.93 L 248.12 84.43 Z" fill="rgb(0, 0, 0)" stroke="rgb(0, 0, 0)" stroke-miterlimit="10" pointer-events="all"/><rect x="210" y="46" width="30" height="70" fill="none" stroke="none" transform="translate(225,0)scale(-1,1)translate(-225,0)" pointer-events="all"/><path d="M 240 51.64 L 240 110.36 C 240 113.47 233.28 116 225 116 C 216.72 116 210 113.47 210 110.36 L 210 51.64 C 210 48.53 216.72 46 225 46 C 233.28 46 240 48.53 240 51.64 Z M 210 51.64 L 240 51.64 M 210 110.36 L 240 110.36 M 210 95.68 L 240 95.68 M 210 66.32 L 240 66.32 M 216 66.32 L 210 72.19 M 228 66.32 L 210 83.94 M 234 66.32 L 210 89.81 M 240 66.32 L 210 95.68 M 240 72.19 L 216 95.68 M 240 83.94 L 228 95.68 M 240 89.81 L 234 95.68 M 222 66.32 L 210 78.06 M 240 78.06 L 222 95.68" fill="#ffffff" stroke="rgb(0, 0, 0)" stroke-miterlimit="10" transform="translate(225,0)scale(-1,1)translate(-225,0)" pointer-events="all"/><path d="M 209.67 80.86 L 202.41 80.89" fill="none" stroke="rgb(0, 0, 0)" stroke-miterlimit="10" pointer-events="stroke"/><path d="M 197.16 80.92 L 204.14 77.38 L 202.41 80.89 L 204.17 84.38 Z" fill="rgb(0, 0, 0)" stroke="rgb(0, 0, 0)" stroke-miterlimit="10" pointer-events="all"/><rect x="166" y="66" width="30" height="30" fill="none" stroke="none" transform="translate(181,0)scale(-1,1)translate(-181,0)" pointer-events="all"/><ellipse cx="181" cy="81" rx="15" ry="15" fill="rgb(255, 255, 255)" stroke="rgb(0, 0, 0)" transform="translate(181,0)scale(-1,1)translate(-181,0)" pointer-events="all"/><path d="M 166 81 L 171 81 L 176 73.5 L 186 88.5 L 191 81 L 196 81" fill="none" stroke="rgb(0, 0, 0)" stroke-miterlimit="10" transform="translate(181,0)scale(-1,1)translate(-181,0)" pointer-events="all"/><rect x="344" y="46" width="32" height="70" fill="none" stroke="none" transform="translate(360,0)scale(-1,1)translate(-360,0)" pointer-events="all"/><path d="M 376 51.64 L 376 110.36 C 376 113.47 368.84 116 360 116 C 351.16 116 344 113.47 344 110.36 L 344 51.64 C 344 48.53 351.16 46 360 46 C 368.84 46 376 48.53 376 51.64 Z M 344 51.64 L 376 51.64 M 344 110.36 L 376 110.36 M 344 95.68 L 376 95.68 M 344 66.32 L 376 66.32 M 350.4 66.32 L 344 72.19 M 363.2 66.32 L 344 83.94 M 369.6 66.32 L 344 89.81 M 376 66.32 L 344 95.68 M 376 72.19 L 350.4 95.68 M 376 83.94 L 363.2 95.68 M 376 89.81 L 369.6 95.68 M 356.8 66.32 L 344 78.06 M 376 78.06 L 356.8 95.68" fill="#ffffff" stroke="rgb(0, 0, 0)" stroke-miterlimit="10" transform="translate(360,0)scale(-1,1)translate(-360,0)" pointer-events="all"/><path d="M 343.49 80.86 L 337.37 80.89" fill="none" stroke="rgb(0, 0, 0)" stroke-miterlimit="10" pointer-events="stroke"/><path d="M 332.12 80.91 L 339.1 77.38 L 337.37 80.89 L 339.13 84.38 Z" fill="rgb(0, 0, 0)" stroke="rgb(0, 0, 0)" stroke-miterlimit="10" pointer-events="all"/><rect x="301" y="66" width="30" height="30" fill="none" stroke="none" transform="translate(316,0)scale(-1,1)translate(-316,0)" pointer-events="all"/><ellipse cx="316" cy="81" rx="15" ry="15" fill="rgb(255, 255, 255)" stroke="rgb(0, 0, 0)" transform="translate(316,0)scale(-1,1)translate(-316,0)" pointer-events="all"/><path d="M 301 81 L 306 81 L 311 73.5 L 321 88.5 L 326 81 L 331 81" fill="none" stroke="rgb(0, 0, 0)" stroke-miterlimit="10" transform="translate(316,0)scale(-1,1)translate(-316,0)" pointer-events="all"/><rect x="111.5" y="11.25" width="50" height="30" fill="none" stroke="none" transform="translate(136.5,0)scale(-1,1)translate(-136.5,0)" pointer-events="all"/><g transform="translate(-0.5 -0.5)"><switch><foreignObject pointer-events="none" width="100%" height="100%" requiredFeatures="http://www.w3.org/TR/SVG11/feature#Extensibility" style="overflow: visible; text-align: left;"><div xmlns="http://www.w3.org/1999/xhtml" style="display: flex; align-items: unsafe center; justify-content: unsafe center; width: 48px; height: 1px; padding-top: 26px; margin-left: 113px;"><div data-drawio-colors="color: rgb(0, 0, 0); " style="box-sizing: border-box; font-size: 0px; text-align: center;"><div style="display: inline-block; font-size: 14px; font-family: Helvetica; color: rgb(0, 0, 0); line-height: 1.2; pointer-events: all; white-space: normal; overflow-wrap: normal;">Bed 3</div></div></div></foreignObject><text x="137" y="30" fill="rgb(0, 0, 0)" font-family="Helvetica" font-size="14px" text-anchor="middle">Bed 3</text></switch></g><rect x="200" y="11.25" width="50" height="30" fill="none" stroke="none" transform="translate(225,0)scale(-1,1)translate(-225,0)" pointer-events="all"/><g transform="translate(-0.5 -0.5)"><switch><foreignObject pointer-events="none" width="100%" height="100%" requiredFeatures="http://www.w3.org/TR/SVG11/feature#Extensibility" style="overflow: visible; text-align: left;"><div xmlns="http://www.w3.org/1999/xhtml" style="display: flex; align-items: unsafe center; justify-content: unsafe center; width: 48px; height: 1px; padding-top: 26px; margin-left: 201px;"><div data-drawio-colors="color: rgb(0, 0, 0); " style="box-sizing: border-box; font-size: 0px; text-align: center;"><div style="display: inline-block; font-size: 14px; font-family: Helvetica; color: rgb(0, 0, 0); line-height: 1.2; pointer-events: all; white-space: normal; overflow-wrap: normal;">Bed 2</div></div></div></foreignObject><text x="225" y="30" fill="rgb(0, 0, 0)" font-family="Helvetica" font-size="14px" text-anchor="middle">Bed 2</text></switch></g><rect x="335" y="11.25" width="50" height="30" fill="none" stroke="none" transform="translate(360,0)scale(-1,1)translate(-360,0)" pointer-events="all"/><g transform="translate(-0.5 -0.5)"><switch><foreignObject pointer-events="none" width="100%" height="100%" requiredFeatures="http://www.w3.org/TR/SVG11/feature#Extensibility" style="overflow: visible; text-align: left;"><div xmlns="http://www.w3.org/1999/xhtml" style="display: flex; align-items: unsafe center; justify-content: unsafe center; width: 48px; height: 1px; padding-top: 26px; margin-left: 336px;"><div data-drawio-colors="color: rgb(0, 0, 0); " style="box-sizing: border-box; font-size: 0px; text-align: center;"><div style="display: inline-block; font-size: 14px; font-family: Helvetica; color: rgb(0, 0, 0); line-height: 1.2; pointer-events: all; white-space: normal; overflow-wrap: normal;">Bed 1</div></div></div></foreignObject><text x="360" y="30" fill="rgb(0, 0, 0)" font-family="Helvetica" font-size="14px" text-anchor="middle">Bed 1</text></switch></g><rect x="141" y="114.87" width="80" height="30" fill="none" stroke="none" transform="translate(181,0)scale(-1,1)translate(-181,0)" pointer-events="all"/><g transform="translate(-0.5 -0.5)"><switch><foreignObject pointer-events="none" width="100%" height="100%" requiredFeatures="http://www.w3.org/TR/SVG11/feature#Extensibility" style="overflow: visible; text-align: left;"><div xmlns="http://www.w3.org/1999/xhtml" style="display: flex; align-items: unsafe center; justify-content: unsafe center; width: 78px; height: 1px; padding-top: 130px; margin-left: 142px;"><div data-drawio-colors="color: rgb(0, 0, 0); " style="box-sizing: border-box; font-size: 0px; text-align: center;"><div style="display: inline-block; font-size: 14px; font-family: Helvetica; color: rgb(0, 0, 0); line-height: 1.2; pointer-events: all; white-space: normal; overflow-wrap: normal;">Heat recovery</div></div></div></foreignObject><text x="181" y="134" fill="rgb(0, 0, 0)" font-family="Helvetica" font-size="14px" text-anchor="middle">Heat recove...</text></switch></g><rect x="276" y="113.98" width="80" height="30" fill="none" stroke="none" transform="translate(316,0)scale(-1,1)translate(-316,0)" pointer-events="all"/><g transform="translate(-0.5 -0.5)"><switch><foreignObject pointer-events="none" width="100%" height="100%" requiredFeatures="http://www.w3.org/TR/SVG11/feature#Extensibility" style="overflow: visible; text-align: left;"><div xmlns="http://www.w3.org/1999/xhtml" style="display: flex; align-items: unsafe center; justify-content: unsafe center; width: 78px; height: 1px; padding-top: 129px; margin-left: 277px;"><div data-drawio-colors="color: rgb(0, 0, 0); " style="box-sizing: border-box; font-size: 0px; text-align: center;"><div style="display: inline-block; font-size: 14px; font-family: Helvetica; color: rgb(0, 0, 0); line-height: 1.2; pointer-events: all; white-space: normal; overflow-wrap: normal;">Heat recovery</div></div></div></foreignObject><text x="316" y="133" fill="rgb(0, 0, 0)" font-family="Helvetica" font-size="14px" text-anchor="middle">Heat recove...</text></switch></g><path d="M 434 98.5 L 441.59 64.75 L 459.41 64.75 L 467 98.5 Z" fill="rgb(255, 255, 255)" stroke="rgb(0, 0, 0)" stroke-miterlimit="10" transform="translate(0,81.63)scale(1,-1)translate(0,-81.63)rotate(-90,450.5,81.63)" pointer-events="all"/><rect x="467" y="74.12" width="15" height="15" fill="none" stroke="none" pointer-events="all"/><ellipse cx="474.5" cy="81.62" rx="7.5" ry="7.5" fill="rgb(255, 255, 255)" stroke="rgb(0, 0, 0)" pointer-events="all"/><path d="M 467 81.62 L 469.5 81.62 L 472 77.87 L 477 85.37 L 479.5 81.62 L 482 81.62" fill="none" stroke="rgb(0, 0, 0)" stroke-miterlimit="10" pointer-events="all"/><path d="M 482 98.5 L 489.59 64.75 L 507.41 64.75 L 515 98.5 Z" fill="rgb(255, 255, 255)" stroke="rgb(0, 0, 0)" stroke-miterlimit="10" transform="translate(0,81.63)scale(1,-1)translate(0,-81.63)rotate(-90,498.5,81.63)" pointer-events="all"/><path d="M 433.63 81.63 L 423.47 81.54" fill="none" stroke="rgb(0, 0, 0)" stroke-miterlimit="10" pointer-events="stroke"/><path d="M 418.22 81.47 L 425.27 78.07 L 423.47 81.54 L 425.17 85.07 Z" fill="rgb(0, 0, 0)" stroke="rgb(0, 0, 0)" stroke-miterlimit="10" pointer-events="all"/><path d="M 269.95 69.04 L 270.04 7 L 400.04 7 L 400.04 61.75" fill="none" stroke="rgb(0, 0, 0)" stroke-miterlimit="10" pointer-events="stroke"/><path d="M 400.04 67 L 396.54 60 L 400.04 61.75 L 403.54 60 Z" fill="rgb(0, 0, 0)" stroke="rgb(0, 0, 0)" stroke-miterlimit="10" pointer-events="all"/><path d="M 392 68.13 L 404.5 75.63 L 392 83.13 Z M 417 68.13 L 404.5 75.63 L 417 83.13 Z M 404.5 75.63 L 412 88.13 L 397 88.13 Z" fill="rgb(255, 255, 255)" stroke="rgb(0, 0, 0)" stroke-linejoin="round" stroke-miterlimit="10" transform="rotate(-180,404.5,78.13)" pointer-events="all"/><path d="M 391.49 80.8 L 383.05 80.82" fill="none" stroke="rgb(0, 0, 0)" stroke-miterlimit="10" pointer-events="stroke"/><path d="M 377.8 80.84 L 384.79 77.32 L 383.05 80.82 L 384.81 84.32 Z" fill="rgb(0, 0, 0)" stroke="rgb(0, 0, 0)" stroke-miterlimit="10" pointer-events="all"/><path d="M 257 69.12 L 269.5 76.62 L 257 84.12 Z M 282 69.12 L 269.5 76.62 L 282 84.12 Z M 269.5 76.62 L 277 89.12 L 262 89.12 Z" fill="rgb(255, 255, 255)" stroke="rgb(0, 0, 0)" stroke-linejoin="round" stroke-miterlimit="10" transform="rotate(-180,269.5,79.12)" pointer-events="all"/><path d="M 301 81 L 288.41 81" fill="none" stroke="rgb(0, 0, 0)" stroke-miterlimit="10" pointer-events="stroke"/><path d="M 283.16 81 L 290.16 77.5 L 288.41 81 L 290.16 84.5 Z" fill="rgb(0, 0, 0)" stroke="rgb(0, 0, 0)" stroke-miterlimit="10" pointer-events="all"/><path d="M 120 81.5 L 120.04 87 L 58.15 86.96" fill="none" stroke="rgb(0, 0, 0)" stroke-miterlimit="10" pointer-events="stroke"/><path d="M 52.9 86.95 L 59.9 83.46 L 58.15 86.96 L 59.89 90.46 Z" fill="rgb(0, 0, 0)" stroke="rgb(0, 0, 0)" stroke-miterlimit="10" pointer-events="all"/><path d="M 440 147 L 403.24 147 L 403.16 98.65" fill="none" stroke="rgb(0, 0, 0)" stroke-miterlimit="10" pointer-events="stroke"/><path d="M 403.15 93.4 L 406.66 100.39 L 403.16 98.65 L 399.66 100.4 Z" fill="rgb(0, 0, 0)" stroke="rgb(0, 0, 0)" stroke-miterlimit="10" pointer-events="all"/><path d="M 392 73.12 L 404.5 80.62 L 392 88.12 Z M 417 73.12 L 404.5 80.62 L 417 88.12 Z M 404.5 80.62 L 412 93.12 L 397 93.12 Z" fill="rgb(255, 255, 255)" stroke="rgb(0, 0, 0)" stroke-linejoin="round" stroke-miterlimit="10" pointer-events="all"/><rect x="537.83" y="41.25" width="100.17" height="132.24" fill="none" stroke="none" pointer-events="all"/><rect x="537.83" y="158.96" width="100.17" height="14.53" fill="rgb(255, 255, 255)" stroke="rgb(0, 0, 0)" pointer-events="all"/><rect x="604.61" y="45.61" width="10.02" height="11.63" fill="rgb(255, 255, 255)" stroke="rgb(0, 0, 0)" pointer-events="all"/><rect x="546.18" y="57.24" width="83.47" height="101.72" fill="rgb(255, 255, 255)" stroke="rgb(0, 0, 0)" pointer-events="all"/><path d="M 602.11 45.61 L 617.13 45.61 M 602.11 41.25 L 617.13 41.25 M 571.22 173.49 L 579.57 158.96 M 537.83 173.49 L 546.18 158.96 M 546.18 173.49 L 554.52 158.96 M 554.52 173.49 L 562.87 158.96 M 562.87 173.49 L 571.22 158.96 M 579.57 173.49 L 587.91 158.96 M 587.91 173.49 L 596.26 158.96 M 596.26 173.49 L 604.61 158.96 M 604.61 173.49 L 612.96 158.96 M 612.96 173.49 L 621.3 158.96 M 629.65 173.49 L 638 158.96 M 621.3 173.49 L 629.65 158.96" fill="none" stroke="rgb(0, 0, 0)" stroke-miterlimit="10" pointer-events="all"/><rect x="141" y="151.24" width="190" height="30" fill="none" stroke="none" pointer-events="all"/><g transform="translate(-0.5 -0.5)"><switch><foreignObject pointer-events="none" width="100%" height="100%" requiredFeatures="http://www.w3.org/TR/SVG11/feature#Extensibility" style="overflow: visible; text-align: left;"><div xmlns="http://www.w3.org/1999/xhtml" style="display: flex; align-items: unsafe center; justify-content: unsafe center; width: 188px; height: 1px; padding-top: 166px; margin-left: 142px;"><div data-drawio-colors="color: rgb(0, 0, 0); " style="box-sizing: border-box; font-size: 0px; text-align: center;"><div style="display: inline-block; font-size: 14px; font-family: Helvetica; color: rgb(0, 0, 0); line-height: 1.2; pointer-events: all; font-weight: bold; white-space: normal; overflow-wrap: normal;">Methanation System</div></div></div></foreignObject><text x="236" y="170" fill="rgb(0, 0, 0)" font-family="Helvetica" font-size="14px" text-anchor="middle" font-weight="bold">Methanation System</text></switch></g><path d="M 496.16 122.13 L 496.07 104.87" fill="none" stroke="rgb(0, 0, 0)" stroke-miterlimit="10" stroke-dasharray="3 3" pointer-events="stroke"/><path d="M 496.05 99.62 L 499.58 106.61 L 496.07 104.87 L 492.58 106.64 Z" fill="rgb(0, 0, 0)" stroke="rgb(0, 0, 0)" stroke-miterlimit="10" pointer-events="all"/><rect x="475" y="116.35" width="40" height="30" fill="none" stroke="none" pointer-events="all"/><g transform="translate(-0.5 -0.5)"><switch><foreignObject pointer-events="none" width="100%" height="100%" requiredFeatures="http://www.w3.org/TR/SVG11/feature#Extensibility" style="overflow: visible; text-align: left;"><div xmlns="http://www.w3.org/1999/xhtml" style="display: flex; align-items: unsafe center; justify-content: unsafe center; width: 38px; height: 1px; padding-top: 131px; margin-left: 476px;"><div data-drawio-colors="color: rgb(0, 0, 0); " style="box-sizing: border-box; font-size: 0px; text-align: center;"><div style="display: inline-block; font-size: 14px; font-family: Helvetica; color: rgb(0, 0, 0); line-height: 1.2; pointer-events: all; white-space: normal; overflow-wrap: normal;">Electricity</div></div></div></foreignObject><text x="495" y="136" fill="rgb(0, 0, 0)" font-family="Helvetica" font-size="14px" text-anchor="middle">Electr...</text></switch></g><path d="M 102 113.98 L 102.4 139.61" fill="none" stroke="rgb(0, 0, 0)" stroke-miterlimit="10" pointer-events="stroke"/><path d="M 102.48 144.86 L 98.87 137.92 L 102.4 139.61 L 105.87 137.81 Z" fill="rgb(0, 0, 0)" stroke="rgb(0, 0, 0)" stroke-miterlimit="10" pointer-events="all"/><rect x="99.5" y="83.98" width="10" height="30" rx="4" ry="4" fill="#ffffff" stroke="#000000" pointer-events="all"/><rect x="80.37" y="72" width="30" height="30" fill="none" stroke="none" transform="translate(95.37,0)scale(-1,1)translate(-95.37,0)" pointer-events="all"/><ellipse cx="95.37" cy="87" rx="15" ry="15" fill="rgb(255, 255, 255)" stroke="rgb(0, 0, 0)" transform="translate(95.37,0)scale(-1,1)translate(-95.37,0)" pointer-events="all"/><path d="M 80.37 87 L 85.37 87 L 90.37 79.5 L 100.37 94.5 L 105.37 87 L 110.37 87" fill="none" stroke="rgb(0, 0, 0)" stroke-miterlimit="10" transform="translate(95.37,0)scale(-1,1)translate(-95.37,0)" pointer-events="all"/><rect x="10" y="121.24" width="80" height="30" fill="none" stroke="none" transform="translate(50,0)scale(-1,1)translate(-50,0)" pointer-events="all"/><g transform="translate(-0.5 -0.5)"><switch><foreignObject pointer-events="none" width="100%" height="100%" requiredFeatures="http://www.w3.org/TR/SVG11/feature#Extensibility" style="overflow: visible; text-align: left;"><div xmlns="http://www.w3.org/1999/xhtml" style="display: flex; align-items: unsafe center; justify-content: unsafe center; width: 78px; height: 1px; padding-top: 136px; margin-left: 11px;"><div data-drawio-colors="color: rgb(0, 0, 0); " style="box-sizing: border-box; font-size: 0px; text-align: center;"><div style="display: inline-block; font-size: 14px; font-family: Helvetica; color: rgb(0, 0, 0); line-height: 1.2; pointer-events: all; white-space: normal; overflow-wrap: normal;">Water separation</div></div></div></foreignObject><text x="50" y="140" fill="rgb(0, 0, 0)" font-family="Helvetica" font-size="14px" text-anchor="middle">Water separ...</text></switch></g><rect x="0.37" y="53.98" width="80" height="30" fill="none" stroke="none" transform="translate(40.37,0)scale(-1,1)translate(-40.37,0)" pointer-events="all"/><g transform="translate(-0.5 -0.5)"><switch><foreignObject pointer-events="none" width="100%" height="100%" requiredFeatures="http://www.w3.org/TR/SVG11/feature#Extensibility" style="overflow: visible; text-align: left;"><div xmlns="http://www.w3.org/1999/xhtml" style="display: flex; align-items: unsafe center; justify-content: unsafe center; width: 78px; height: 1px; padding-top: 69px; margin-left: 1px;"><div data-drawio-colors="color: rgb(0, 0, 0); " style="box-sizing: border-box; font-size: 0px; text-align: center;"><div style="display: inline-block; font-size: 14px; font-family: Helvetica; color: rgb(0, 0, 0); line-height: 1.2; pointer-events: all; white-space: normal; overflow-wrap: normal;">Methane</div></div></div></foreignObject><text x="40" y="73" fill="rgb(0, 0, 0)" font-family="Helvetica" font-size="14px" text-anchor="middle">Methane</text></switch></g><rect x="387" y="146.35" width="80" height="30" fill="none" stroke="none" transform="translate(427,0)scale(-1,1)translate(-427,0)" pointer-events="all"/><g transform="translate(-0.5 -0.5)"><switch><foreignObject pointer-events="none" width="100%" height="100%" requiredFeatures="http://www.w3.org/TR/SVG11/feature#Extensibility" style="overflow: visible; text-align: left;"><div xmlns="http://www.w3.org/1999/xhtml" style="display: flex; align-items: unsafe center; justify-content: unsafe center; width: 78px; height: 1px; padding-top: 161px; margin-left: 388px;"><div data-drawio-colors="color: rgb(0, 0, 0); " style="box-sizing: border-box; font-size: 0px; text-align: center;"><div style="display: inline-block; font-size: 14px; font-family: Helvetica; color: rgb(0, 0, 0); line-height: 1.2; pointer-events: all; white-space: normal; overflow-wrap: normal;">Hydrogen</div></div></div></foreignObject><text x="427" y="166" fill="rgb(0, 0, 0)" font-family="Helvetica" font-size="14px" text-anchor="middle">Hydrogen</text></switch></g></g><switch><g requiredFeatures="http://www.w3.org/TR/SVG11/feature#Extensibility"/><a transform="translate(0,-5)" xlink:href="https://www.diagrams.net/doc/faq/svg-export-text-problems" target="_blank"><text text-anchor="middle" font-size="10px" x="50%" y="100%">Text is not SVG - cannot display</text></a></switch></svg>