<?xml version='1.0' encoding='utf-8'?>
<svg xmlns="http://www.w3.org/2000/svg" xmlns:html="http://www.w3.org/1999/xhtml" xmlns:ns2="http://www.w3.org/1999/xlink" width="1310" height="685" viewBox="0 -120 1310 685"><defs><marker id="arrowIn" markerWidth="10" markerHeight="10" refX="9" refY="3" orient="auto" markerUnits="strokeWidth"><path d="M0,0 L0,6 L9,3 z" fill="#000" /></marker><marker id="arrowOut" markerWidth="10" markerHeight="10" refX="9" refY="3" orient="auto" markerUnits="strokeWidth"><path d="M0,0 L0,6 L9,3 z" fill="#000" /></marker></defs><rect x="0" y="-120" width="1310" height="685" fill="white" /><g transform="translate(788.0769230769231, -40.0) scale(1.623931623931624)"><defs /><g><path d="M 0 111.75 L 0 127.25 L 31 111.75 L 31 127.25 L 0 111.75" fill="#ffffff" stroke="#000000" stroke-miterlimit="10" transform="rotate(90,15.5,119.5)" pointer-events="all" /><path d="M 172 87 L 172 122 L 207 111.5 L 207 97.5 L 172 87" fill="#ffffff" stroke="#000000" stroke-miterlimit="10" transform="rotate(180,189.5,104.5)" pointer-events="all" /><path d="M 172 78.25 L 172 87 M 177.83 104.5 L 201.17 104.5 M 207 111.5 L 207 130.75" fill="none" stroke="#000000" stroke-miterlimit="10" transform="rotate(180,189.5,104.5)" pointer-events="all" /><path d="M 51.94 53 L 116.06 53 C 122.64 45.82 122.64 36.18 116.06 29 L 51.94 29 C 45.36 36.18 45.36 45.82 51.94 53" fill="#ffffff" stroke="#000000" stroke-miterlimit="10" pointer-events="all" /><path d="M 59.34 29 L 59.34 53 M 59.34 47 L 108.66 47 M 59.34 41 L 108.66 41 M 59.34 35 L 108.66 35 M 108.66 29 L 108.66 53" fill="none" stroke="#000000" stroke-miterlimit="10" pointer-events="all" /><rect x="38.92" y="56.09" width="90.31" height="24.84" fill="none" stroke="none" pointer-events="all" /><g transform="translate(-0.5 -0.5)"><switch><foreignObject pointer-events="none" width="100%" height="100%" requiredFeatures="http://www.w3.org/TR/SVG11/feature#Extensibility" style="overflow: visible; text-align: left;"><html:div style="display: flex; align-items: unsafe center; justify-content: unsafe center; width: 92px; height: 1px; padding-top: 69px; margin-left: 38px;"><html:div data-drawio-colors="color: rgb(0, 0, 0); " style="box-sizing: border-box; font-size: 0px; text-align: center; width: 90px; max-height: 25px; overflow: hidden;"><html:div style="display: inline-block; font-size: 12px; font-family: Helvetica; color: rgb(0, 0, 0); line-height: 1.2; pointer-events: all; width: 100%; white-space: normal; overflow-wrap: normal;"><html:div style=""><html:font style="font-family: Arial; color: rgb(0, 0, 0); direction: ltr; letter-spacing: 0px; line-height: 120%; opacity: 1;"><html:font style="font-size: 12px;">Condenser</html:font><html:br /></html:font></html:div></html:div></html:div></html:div></foreignObject><text x="84" y="72" fill="rgb(0, 0, 0)" font-family="Helvetica" font-size="12px" text-anchor="middle">Condenser
</text></switch></g><path d="M 51.94 204 L 116.06 204 C 122.64 196.82 122.64 187.18 116.06 180 L 51.94 180 C 45.36 187.18 45.36 196.82 51.94 204" fill="#ffffff" stroke="#000000" stroke-miterlimit="10" pointer-events="all" /><path d="M 59.34 180 L 59.34 204 M 59.34 198 L 108.66 198 M 59.34 192 L 108.66 192 M 59.34 186 L 108.66 186 M 108.66 180 L 108.66 204" fill="none" stroke="#000000" stroke-miterlimit="10" pointer-events="all" /><rect x="40.4" y="155.53" width="90.31" height="24.84" fill="none" stroke="none" pointer-events="all" /><g transform="translate(-0.5 -0.5)"><switch><foreignObject pointer-events="none" width="100%" height="100%" requiredFeatures="http://www.w3.org/TR/SVG11/feature#Extensibility" style="overflow: visible; text-align: left;"><html:div style="display: flex; align-items: unsafe center; justify-content: unsafe center; width: 92px; height: 1px; padding-top: 168px; margin-left: 39px;"><html:div data-drawio-colors="color: rgb(0, 0, 0); " style="box-sizing: border-box; font-size: 0px; text-align: center; width: 90px; max-height: 25px; overflow: hidden;"><html:div style="display: inline-block; font-size: 12px; font-family: Helvetica; color: rgb(0, 0, 0); line-height: 1.2; pointer-events: all; width: 100%; white-space: normal; overflow-wrap: normal;"><html:div style=""><html:font style="font-family: Arial; color: rgb(0, 0, 0); direction: ltr; letter-spacing: 0px; line-height: 120%; opacity: 1;"><html:font style="font-size: 12px;">Evaporator</html:font><html:br /></html:font></html:div></html:div></html:div></html:div></foreignObject><text x="86" y="172" fill="rgb(0, 0, 0)" font-family="Helvetica" font-size="12px" text-anchor="middle">Evaporator
</text></switch></g><path d="M 102 28 L 102 16.24" fill="none" stroke="#000000" stroke-width="2" stroke-miterlimit="10" pointer-events="stroke" /><path d="M 102 9.24 L 105.5 16.24 L 98.5 16.24 Z" fill="#000000" stroke="#000000" stroke-width="2" stroke-miterlimit="10" pointer-events="all" /><path d="M 66 7 L 66 19.76" fill="none" stroke="#000000" stroke-width="2" stroke-miterlimit="10" pointer-events="stroke" /><path d="M 66 26.76 L 62.5 19.76 L 69.5 19.76 Z" fill="#000000" stroke="#000000" stroke-width="2" stroke-miterlimit="10" pointer-events="all" /><path d="M 172 78.25 L 172.03 41.03 L 132.24 41.01" fill="none" stroke="#000000" stroke-width="2" stroke-miterlimit="10" pointer-events="stroke" /><path d="M 124.24 41 L 132.24 37.01 L 132.23 45.01 Z" fill="#000000" stroke="#000000" stroke-width="2" stroke-miterlimit="10" pointer-events="all" /><path d="M 122 193 L 207.83 193.03 L 207.81 140.86" fill="none" stroke="#000000" stroke-width="2" stroke-miterlimit="10" pointer-events="stroke" /><path d="M 207.81 133.86 L 211.31 140.86 L 204.31 140.86 Z" fill="#000000" stroke="#000000" stroke-width="2" stroke-miterlimit="10" pointer-events="all" /><path d="M 15 135 L 15 192.28 L 37.77 192.79" fill="none" stroke="#000000" stroke-width="2" stroke-miterlimit="10" pointer-events="stroke" /><path d="M 44.76 192.95 L 37.69 196.29 L 37.85 189.29 Z" fill="#000000" stroke="#000000" stroke-width="2" stroke-miterlimit="10" pointer-events="all" /><path d="M 47 41 L 14.87 41 L 14.87 94.58" fill="none" stroke="#000000" stroke-width="2" stroke-miterlimit="10" pointer-events="stroke" /><path d="M 14.87 101.58 L 11.37 94.58 L 18.37 94.58 Z" fill="#000000" stroke="#000000" stroke-width="2" stroke-miterlimit="10" pointer-events="all" /><rect x="101.69" y="107.08" width="70.31" height="24.84" fill="none" stroke="none" transform="rotate(359.91,136.85,119.5)" pointer-events="all" /><g transform="translate(-0.5 -0.5)rotate(359.91 136.84500000000003 119.5)"><switch><foreignObject pointer-events="none" width="100%" height="100%" requiredFeatures="http://www.w3.org/TR/SVG11/feature#Extensibility" style="overflow: visible; text-align: left;"><html:div style="display: flex; align-items: unsafe center; justify-content: unsafe center; width: 72px; height: 1px; padding-top: 120px; margin-left: 101px;"><html:div data-drawio-colors="color: rgb(0, 0, 0); " style="box-sizing: border-box; font-size: 0px; text-align: center; width: 70px; max-height: 25px; overflow: hidden;"><html:div style="display: inline-block; font-size: 12px; font-family: Helvetica; color: rgb(0, 0, 0); line-height: 1.2; pointer-events: all; width: 100%; white-space: normal; overflow-wrap: normal;"><html:div style=""><html:font style="font-family: Arial; color: rgb(0, 0, 0); direction: ltr; letter-spacing: 0px; line-height: 120%; opacity: 1;"><html:font style="font-size: 12px;">Compressor</html:font><html:br /></html:font></html:div></html:div></html:div></html:div></foreignObject><text x="137" y="123" fill="rgb(0, 0, 0)" font-family="Helvetica" font-size="12px" text-anchor="middle">Compressor
</text></switch></g><path d="M 99 225 L 99 213.24" fill="none" stroke="#000000" stroke-width="2" stroke-miterlimit="10" pointer-events="stroke" /><path d="M 99 206.24 L 102.5 213.24 L 95.5 213.24 Z" fill="#000000" stroke="#000000" stroke-width="2" stroke-miterlimit="10" pointer-events="all" /><path d="M 63 204 L 63 216.76" fill="none" stroke="#000000" stroke-width="2" stroke-miterlimit="10" pointer-events="stroke" /><path d="M 63 223.76 L 59.5 216.76 L 66.5 216.76 Z" fill="#000000" stroke="#000000" stroke-width="2" stroke-miterlimit="10" pointer-events="all" /><path d="M 252 104 L 216.24 104" fill="none" stroke="#000000" stroke-width="2" stroke-miterlimit="10" stroke-dasharray="6 6" pointer-events="stroke" /><path d="M 209.24 104 L 216.24 100.5 L 216.24 107.5 Z" fill="#000000" stroke="#000000" stroke-width="2" stroke-miterlimit="10" pointer-events="all" /><rect x="22" y="107.08" width="40.31" height="24.84" fill="none" stroke="none" pointer-events="all" /><g transform="translate(-0.5 -0.5)"><switch><foreignObject pointer-events="none" width="100%" height="100%" requiredFeatures="http://www.w3.org/TR/SVG11/feature#Extensibility" style="overflow: visible; text-align: left;"><html:div style="display: flex; align-items: unsafe center; justify-content: unsafe center; width: 42px; height: 1px; padding-top: 120px; margin-left: 21px;"><html:div data-drawio-colors="color: rgb(0, 0, 0); " style="box-sizing: border-box; font-size: 0px; text-align: center; width: 40px; max-height: 25px; overflow: hidden;"><html:div style="display: inline-block; font-size: 12px; font-family: Helvetica; color: rgb(0, 0, 0); line-height: 1.2; pointer-events: all; width: 100%; white-space: normal; overflow-wrap: normal;"><html:div style=""><html:font style="font-family: Arial; color: rgb(0, 0, 0); direction: ltr; letter-spacing: 0px; line-height: 120%; opacity: 1;"><html:font style="font-size: 12px;">Valve</html:font><html:br /></html:font></html:div></html:div></html:div></html:div></foreignObject><text x="42" y="123" fill="rgb(0, 0, 0)" font-family="Helvetica" font-size="12px" text-anchor="middle">Valve
</text></switch></g><rect x="182" y="62.16" width="70.31" height="24.84" fill="none" stroke="none" transform="rotate(359.91,217.15,74.58)" pointer-events="all" /><g transform="translate(-0.5 -0.5)rotate(359.91 217.15499999999997 74.57999999999993)"><switch><foreignObject pointer-events="none" width="100%" height="100%" requiredFeatures="http://www.w3.org/TR/SVG11/feature#Extensibility" style="overflow: visible; text-align: left;"><html:div style="display: flex; align-items: unsafe center; justify-content: unsafe center; width: 72px; height: 1px; padding-top: 75px; margin-left: 181px;"><html:div data-drawio-colors="color: rgb(0, 0, 0); " style="box-sizing: border-box; font-size: 0px; text-align: center; width: 70px; max-height: 25px; overflow: hidden;"><html:div style="display: inline-block; font-size: 12px; font-family: Helvetica; color: rgb(0, 0, 0); line-height: 1.2; pointer-events: all; width: 100%; white-space: normal; overflow-wrap: normal;"><html:div style=""><html:font style="font-family: Arial; color: rgb(0, 0, 0); direction: ltr; letter-spacing: 0px; line-height: 120%; opacity: 1;"><html:font style="font-size: 12px;">Electricity</html:font><html:br /></html:font></html:div></html:div></html:div></html:div></foreignObject><text x="217" y="78" fill="rgb(0, 0, 0)" font-family="Helvetica" font-size="12px" text-anchor="middle">Electricity
</text></switch></g></g><switch><g requiredFeatures="http://www.w3.org/TR/SVG11/feature#Extensibility" /><a transform="translate(0,-5)" ns2:href="https://www.diagrams.net/doc/faq/svg-export-text-problems" target="_blank"><text text-anchor="middle" font-size="10px" x="50%" y="100%">Text is not SVG - cannot display</text></a></switch></g><rect x="730.0" y="-70.0" width="540" height="440" fill="none" stroke="#666" stroke-width="2" stroke-dasharray="5,5" rx="10" /><text x="655.0" y="-90.0" text-anchor="middle" font-size="24" font-weight="bold" fill="#333">HeatPump - Block Flow Diagram</text><rect x="55" y="125" width="200" height="50" fill="white" stroke="#2563eb" stroke-width="1" rx="5" /><text x="155" y="145" text-anchor="middle" font-size="14" font-weight="bold" fill="#2563eb">Electricity</text><text x="155" y="162" text-anchor="middle" font-size="12" fill="#555">755.36 kW</text><line x1="255" y1="150" x2="730.0" y2="150" stroke="#2563eb" stroke-width="2" marker-end="url(#arrowIn)" /><text x="342.5" y="410.0" text-anchor="middle" font-size="16" font-weight="bold" fill="#dc2626">Hot Streams</text><rect x="50" y="430.0" width="585.0" height="35" fill="#e5e7eb" stroke="#333" stroke-width="1" /><text x="123.125" y="452.5" text-anchor="middle" font-size="14" font-weight="bold" fill="#333">Name</text><line x1="196.25" y1="430.0" x2="196.25" y2="465.0" stroke="#333" stroke-width="1" /><text x="251.09375" y="452.5" text-anchor="middle" font-size="14" font-weight="bold" fill="#333">T in [°C]</text><line x1="305.9375" y1="430.0" x2="305.9375" y2="465.0" stroke="#333" stroke-width="1" /><text x="360.78125" y="452.5" text-anchor="middle" font-size="14" font-weight="bold" fill="#333">T out [°C]</text><line x1="415.625" y1="430.0" x2="415.625" y2="465.0" stroke="#333" stroke-width="1" /><text x="470.46875" y="452.5" text-anchor="middle" font-size="14" font-weight="bold" fill="#333">H in [kW]</text><line x1="525.3125" y1="430.0" x2="525.3125" y2="465.0" stroke="#333" stroke-width="1" /><text x="580.15625" y="452.5" text-anchor="middle" font-size="14" font-weight="bold" fill="#333">H out [kW]</text><rect x="50" y="465.0" width="585.0" height="30" fill="#fee2e2" stroke="#333" stroke-width="1" /><text x="123.125" y="485.0" text-anchor="middle" font-size="13" font-weight="normal" fill="#333">condensation</text><line x1="196.25" y1="465.0" x2="196.25" y2="495.0" stroke="#333" stroke-width="1" /><text x="251.09375" y="485.0" text-anchor="middle" font-size="13" font-weight="normal" fill="#333">76.50</text><line x1="305.9375" y1="465.0" x2="305.9375" y2="495.0" stroke="#333" stroke-width="1" /><text x="360.78125" y="485.0" text-anchor="middle" font-size="13" font-weight="normal" fill="#333">76.50</text><line x1="415.625" y1="465.0" x2="415.625" y2="495.0" stroke="#333" stroke-width="1" /><text x="470.46875" y="485.0" text-anchor="middle" font-size="13" font-weight="normal" fill="#333">6,000.00</text><line x1="525.3125" y1="465.0" x2="525.3125" y2="495.0" stroke="#333" stroke-width="1" /><text x="580.15625" y="485.0" text-anchor="middle" font-size="13" font-weight="normal" fill="#333">0.00</text><text x="967.5" y="410.0" text-anchor="middle" font-size="16" font-weight="bold" fill="#2563eb">Cold Streams</text><rect x="675.0" y="430.0" width="585.0" height="35" fill="#e5e7eb" stroke="#333" stroke-width="1" /><text x="748.125" y="452.5" text-anchor="middle" font-size="14" font-weight="bold" fill="#333">Name</text><line x1="821.25" y1="430.0" x2="821.25" y2="465.0" stroke="#333" stroke-width="1" /><text x="876.09375" y="452.5" text-anchor="middle" font-size="14" font-weight="bold" fill="#333">T in [°C]</text><line x1="930.9375" y1="430.0" x2="930.9375" y2="465.0" stroke="#333" stroke-width="1" /><text x="985.78125" y="452.5" text-anchor="middle" font-size="14" font-weight="bold" fill="#333">T out [°C]</text><line x1="1040.625" y1="430.0" x2="1040.625" y2="465.0" stroke="#333" stroke-width="1" /><text x="1095.46875" y="452.5" text-anchor="middle" font-size="14" font-weight="bold" fill="#333">H in [kW]</text><line x1="1150.3125" y1="430.0" x2="1150.3125" y2="465.0" stroke="#333" stroke-width="1" /><text x="1205.15625" y="452.5" text-anchor="middle" font-size="14" font-weight="bold" fill="#333">H out [kW]</text><rect x="675.0" y="465.0" width="585.0" height="30" fill="#dbeafe" stroke="#333" stroke-width="1" /><text x="748.125" y="485.0" text-anchor="middle" font-size="13" font-weight="normal" fill="#333">evaporation</text><line x1="821.25" y1="465.0" x2="821.25" y2="495.0" stroke="#333" stroke-width="1" /><text x="876.09375" y="485.0" text-anchor="middle" font-size="13" font-weight="normal" fill="#333">54.50</text><line x1="930.9375" y1="465.0" x2="930.9375" y2="495.0" stroke="#333" stroke-width="1" /><text x="985.78125" y="485.0" text-anchor="middle" font-size="13" font-weight="normal" fill="#333">54.50</text><line x1="1040.625" y1="465.0" x2="1040.625" y2="495.0" stroke="#333" stroke-width="1" /><text x="1095.46875" y="485.0" text-anchor="middle" font-size="13" font-weight="normal" fill="#333">0.00</text><line x1="1150.3125" y1="465.0" x2="1150.3125" y2="495.0" stroke="#333" stroke-width="1" /><text x="1205.15625" y="485.0" text-anchor="middle" font-size="13" font-weight="normal" fill="#333">5,244.64</text></svg>