<?xml version="1.0" encoding="UTF-8"?>
<!DOCTYPE svg PUBLIC "-//W3C//DTD SVG 1.1//EN" "http://www.w3.org/Graphics/SVG/1.1/DTD/svg11.dtd">
<svg xmlns="http://www.w3.org/2000/svg" xmlns:xlink="http://www.w3.org/1999/xlink" version="1.1" width="349px" height="221px" viewBox="-0.5 -0.5 349 221"><defs/><g><path d="M 122 93 L 122.03 13.37" fill="none" stroke="rgb(0, 0, 0)" stroke-miterlimit="10" pointer-events="stroke"/><path d="M 122.04 8.12 L 125.53 15.12 L 122.03 13.37 L 118.53 15.12 Z" fill="rgb(0, 0, 0)" stroke="rgb(0, 0, 0)" stroke-miterlimit="10" pointer-events="all"/><path d="M 81.66 145.8 L 162.34 145.8 C 140.68 109.36 135.42 66.83 147.66 27 L 96.34 27 C 108.57 66.83 103.32 109.36 81.66 145.8" fill="#ffffff" stroke="#000000" stroke-miterlimit="10" pointer-events="all"/><path d="M 122 93 L 177 93 M 162.34 145.8 C 141.05 110.25 135.58 65.89 147.66 27 M 81.66 145.8 C 102.95 110.25 108.42 65.89 96.34 27 M 67 142.5 L 67 159 L 177 159 L 177 142.5 M 122 93 L 111.63 102.33 M 122 93 L 118.2 105.75 M 122 93 L 125.8 105.75 M 122 93 L 132.37 102.33" fill="none" stroke="#000000" stroke-miterlimit="10" pointer-events="all"/><rect x="70.56" y="190.88" width="112.89" height="28.23" fill="none" stroke="none" pointer-events="all"/><g transform="translate(-0.5 -0.5)"><switch><foreignObject pointer-events="none" width="100%" height="100%" requiredFeatures="http://www.w3.org/TR/SVG11/feature#Extensibility" style="overflow: visible; text-align: left;"><div xmlns="http://www.w3.org/1999/xhtml" style="display: flex; align-items: unsafe center; justify-content: unsafe center; width: 115px; height: 1px; padding-top: 205px; margin-left: 70px;"><div data-drawio-colors="color: rgb(0, 0, 0); " style="box-sizing: border-box; font-size: 0px; text-align: center; width: 113px; max-height: 28px; overflow: hidden;"><div style="display: inline-block; font-size: 12px; font-family: Helvetica; color: rgb(0, 0, 0); line-height: 1.2; pointer-events: all; width: 100%; white-space: normal; overflow-wrap: normal;"><div style="font-size: 1px"><font style="font-size:14.11px;font-family:Arial;color:#000000;direction:ltr;letter-spacing:0px;line-height:120%;opacity:1"><br /></font></div></div></div></div></foreignObject><text x="127" y="209" fill="rgb(0, 0, 0)" font-family="Helvetica" font-size="12px" text-anchor="middle"></text></switch></g><rect x="91" y="131" width="62" height="14" fill="none" stroke="none" transform="rotate(-180,122,138)" pointer-events="all"/><path d="M 122 131 L 122 143.72 M 142.06 142.66 C 145.14 142.43 148.8 142.57 150.9 142.99 C 153 143.42 153 144.01 150.9 144.44 C 148.8 144.86 145.14 145 142.06 144.78 L 101.94 142.66 C 98.86 142.43 95.2 142.57 93.1 142.99 C 91 143.42 91 144.01 93.1 144.44 C 95.2 144.86 98.86 145 101.94 144.78 Z" fill="rgb(255, 255, 255)" stroke="rgb(0, 0, 0)" stroke-miterlimit="10" transform="rotate(-180,122,138)" pointer-events="all"/><rect x="224.86" y="131" width="104.89" height="30" fill="none" stroke="none" pointer-events="all"/><g transform="translate(-0.5 -0.5)"><switch><foreignObject pointer-events="none" width="100%" height="100%" requiredFeatures="http://www.w3.org/TR/SVG11/feature#Extensibility" style="overflow: visible; text-align: left;"><div xmlns="http://www.w3.org/1999/xhtml" style="display: flex; align-items: unsafe center; justify-content: unsafe center; width: 103px; height: 1px; padding-top: 146px; margin-left: 226px;"><div data-drawio-colors="color: rgb(0, 0, 0); " style="box-sizing: border-box; font-size: 0px; text-align: center;"><div style="display: inline-block; font-size: 14px; font-family: Helvetica; color: rgb(0, 0, 0); line-height: 1.2; pointer-events: all; white-space: normal; overflow-wrap: normal;">Waste heat from processes</div></div></div></foreignObject><text x="277" y="150" fill="rgb(0, 0, 0)" font-family="Helvetica" font-size="14px" text-anchor="middle">Waste heat from...</text></switch></g><rect x="240" y="47" width="40" height="30" fill="none" stroke="none" pointer-events="all"/><g transform="translate(-0.5 -0.5)"><switch><foreignObject pointer-events="none" width="100%" height="100%" requiredFeatures="http://www.w3.org/TR/SVG11/feature#Extensibility" style="overflow: visible; text-align: left;"><div xmlns="http://www.w3.org/1999/xhtml" style="display: flex; align-items: unsafe center; justify-content: unsafe center; width: 38px; height: 1px; padding-top: 62px; margin-left: 241px;"><div data-drawio-colors="color: rgb(0, 0, 0); " style="box-sizing: border-box; font-size: 0px; text-align: center;"><div style="display: inline-block; font-size: 14px; font-family: Helvetica; color: rgb(0, 0, 0); line-height: 1.2; pointer-events: all; white-space: normal; overflow-wrap: normal;">Cooling Tower</div></div></div></foreignObject><text x="260" y="66" fill="rgb(0, 0, 0)" font-family="Helvetica" font-size="14px" text-anchor="middle">Coolin...</text></switch></g><path d="M 30 126 L 78.52 126" fill="none" stroke="rgb(0, 0, 0)" stroke-miterlimit="10" stroke-dasharray="3 3" pointer-events="stroke"/><path d="M 83.77 126 L 76.77 129.5 L 78.52 126 L 76.77 122.5 Z" fill="rgb(0, 0, 0)" stroke="rgb(0, 0, 0)" stroke-miterlimit="10" pointer-events="all"/><rect x="27" y="87" width="40" height="30" fill="none" stroke="none" pointer-events="all"/><g transform="translate(-0.5 -0.5)"><switch><foreignObject pointer-events="none" width="100%" height="100%" requiredFeatures="http://www.w3.org/TR/SVG11/feature#Extensibility" style="overflow: visible; text-align: left;"><div xmlns="http://www.w3.org/1999/xhtml" style="display: flex; align-items: unsafe center; justify-content: unsafe center; width: 38px; height: 1px; padding-top: 102px; margin-left: 28px;"><div data-drawio-colors="color: rgb(0, 0, 0); " style="box-sizing: border-box; font-size: 0px; text-align: center;"><div style="display: inline-block; font-size: 14px; font-family: Helvetica; color: rgb(0, 0, 0); line-height: 1.2; pointer-events: all; white-space: normal; overflow-wrap: normal;">Electricity</div></div></div></foreignObject><text x="47" y="106" fill="rgb(0, 0, 0)" font-family="Helvetica" font-size="14px" text-anchor="middle">Electr...</text></switch></g><path d="M 164.35 158.34 L 164.41 192.04 L 178.49 192.01" fill="none" stroke="rgb(0, 0, 0)" stroke-miterlimit="10" pointer-events="stroke"/><path d="M 183.74 192 L 176.75 195.51 L 178.49 192.01 L 176.74 188.51 Z" fill="rgb(0, 0, 0)" stroke="rgb(0, 0, 0)" stroke-miterlimit="10" pointer-events="all"/><path d="M 214.86 192 L 255.93 192" fill="none" stroke="rgb(0, 0, 0)" stroke-miterlimit="10" pointer-events="stroke"/><path d="M 261.18 192 L 254.18 195.5 L 255.93 192 L 254.18 188.5 Z" fill="rgb(0, 0, 0)" stroke="rgb(0, 0, 0)" stroke-miterlimit="10" pointer-events="all"/><rect x="184.86" y="177" width="30" height="30" fill="none" stroke="none" pointer-events="all"/><ellipse cx="199.86" cy="192" rx="14.999999999999998" ry="14.999999999999998" fill="rgb(255, 255, 255)" stroke="rgb(0, 0, 0)" pointer-events="all"/><path d="M 184.86 192 L 189.86 192 L 194.86 184.5 L 204.86 199.5 L 209.86 192 L 214.86 192" fill="none" stroke="rgb(0, 0, 0)" stroke-miterlimit="10" pointer-events="all"/><path d="M 292.3 192 L 340.04 192.04 L 340.04 93 L 183.37 93" fill="none" stroke="rgb(0, 0, 0)" stroke-miterlimit="10" pointer-events="stroke"/><path d="M 178.12 93 L 185.12 89.5 L 183.37 93 L 185.12 96.5 Z" fill="rgb(0, 0, 0)" stroke="rgb(0, 0, 0)" stroke-miterlimit="10" pointer-events="all"/><path d="M 50 189 L 90.04 189 L 90.01 165.37" fill="none" stroke="rgb(0, 0, 0)" stroke-miterlimit="10" pointer-events="stroke"/><path d="M 90 160.12 L 93.51 167.11 L 90.01 165.37 L 86.51 167.12 Z" fill="rgb(0, 0, 0)" stroke="rgb(0, 0, 0)" stroke-miterlimit="10" pointer-events="all"/><rect x="0" y="147" width="60" height="30" fill="none" stroke="none" pointer-events="all"/><g transform="translate(-0.5 -0.5)"><switch><foreignObject pointer-events="none" width="100%" height="100%" requiredFeatures="http://www.w3.org/TR/SVG11/feature#Extensibility" style="overflow: visible; text-align: left;"><div xmlns="http://www.w3.org/1999/xhtml" style="display: flex; align-items: unsafe center; justify-content: unsafe center; width: 58px; height: 1px; padding-top: 162px; margin-left: 1px;"><div data-drawio-colors="color: rgb(0, 0, 0); " style="box-sizing: border-box; font-size: 0px; text-align: center;"><div style="display: inline-block; font-size: 14px; font-family: Helvetica; color: rgb(0, 0, 0); line-height: 1.2; pointer-events: all; white-space: normal; overflow-wrap: normal;">Make up water</div></div></div></foreignObject><text x="30" y="166" fill="rgb(0, 0, 0)" font-family="Helvetica" font-size="14px" text-anchor="middle">Make up...</text></switch></g><rect x="160" y="17" width="40" height="30" fill="none" stroke="none" pointer-events="all"/><g transform="translate(-0.5 -0.5)"><switch><foreignObject pointer-events="none" width="100%" height="100%" requiredFeatures="http://www.w3.org/TR/SVG11/feature#Extensibility" style="overflow: visible; text-align: left;"><div xmlns="http://www.w3.org/1999/xhtml" style="display: flex; align-items: unsafe center; justify-content: unsafe center; width: 38px; height: 1px; padding-top: 32px; margin-left: 161px;"><div data-drawio-colors="color: rgb(0, 0, 0); " style="box-sizing: border-box; font-size: 0px; text-align: center;"><div style="display: inline-block; font-size: 14px; font-family: Helvetica; color: rgb(0, 0, 0); line-height: 1.2; pointer-events: all; white-space: normal; overflow-wrap: normal;">Humid air</div></div></div></foreignObject><text x="180" y="36" fill="rgb(0, 0, 0)" font-family="Helvetica" font-size="14px" text-anchor="middle">Humid...</text></switch></g><path d="M 200 126 L 161.92 125.69" fill="none" stroke="rgb(0, 0, 0)" stroke-miterlimit="10" pointer-events="stroke"/><path d="M 156.67 125.62 L 163.71 122.21 L 161.92 125.69 L 163.62 129.21 Z" fill="rgb(0, 0, 0)" stroke="rgb(0, 0, 0)" stroke-miterlimit="10" pointer-events="all"/><rect x="184.86" y="101" width="40" height="30" fill="none" stroke="none" pointer-events="all"/><g transform="translate(-0.5 -0.5)"><switch><foreignObject pointer-events="none" width="100%" height="100%" requiredFeatures="http://www.w3.org/TR/SVG11/feature#Extensibility" style="overflow: visible; text-align: left;"><div xmlns="http://www.w3.org/1999/xhtml" style="display: flex; align-items: unsafe center; justify-content: unsafe center; width: 38px; height: 1px; padding-top: 116px; margin-left: 186px;"><div data-drawio-colors="color: rgb(0, 0, 0); " style="box-sizing: border-box; font-size: 0px; text-align: center;"><div style="display: inline-block; font-size: 14px; font-family: Helvetica; color: rgb(0, 0, 0); line-height: 1.2; pointer-events: all; white-space: normal; overflow-wrap: normal;">Air</div></div></div></foreignObject><text x="205" y="120" fill="rgb(0, 0, 0)" font-family="Helvetica" font-size="14px" text-anchor="middle">Air</text></switch></g><rect x="262.3" y="177" width="30" height="30" fill="none" stroke="none" pointer-events="all"/><ellipse cx="277.3" cy="192" rx="14.999999999999998" ry="14.999999999999998" fill="rgb(255, 255, 255)" stroke="rgb(0, 0, 0)" pointer-events="all"/><path d="M 262.3 192 L 267.3 192 L 272.3 184.5 L 282.3 199.5 L 287.3 192 L 292.3 192" fill="none" stroke="rgb(0, 0, 0)" stroke-miterlimit="10" pointer-events="all"/></g><switch><g requiredFeatures="http://www.w3.org/TR/SVG11/feature#Extensibility"/><a transform="translate(0,-5)" xlink:href="https://www.diagrams.net/doc/faq/svg-export-text-problems" target="_blank"><text text-anchor="middle" font-size="10px" x="50%" y="100%">Text is not SVG - cannot display</text></a></switch></svg>